<?xml version="1.0" standalone="no"?>
<!DOCTYPE svg PUBLIC "-//W3C//DTD SVG 1.1//EN" "http://www.w3.org/Graphics/SVG/1.1/DTD/svg11.dtd" >
<svg xmlns="http://www.w3.org/2000/svg" xmlns:xlink="http://www.w3.org/1999/xlink" version="1.1">
<metadata>
Created by FontForge 20170731 at Thu Jul 29 11:47:20 2021
 By Aleksey,,,
(c)2009 Commercial Type.
</metadata>
<defs>
<font id="Graphik-SuperItalic" horiz-adv-x="1228" >
  <font-face 
    font-family="Graphik Super"
    font-weight="950"
    font-style="italic"
    font-stretch="normal"
    units-per-em="2048"
    panose-1="2 11 11 3 3 2 2 13 2 3"
    ascent="1696"
    descent="-352"
    x-height="1071"
    cap-height="1464"
    bbox="-520 -483 2576 2355"
    underline-thickness="102"
    underline-position="-307"
    slope="-8"
    unicode-range="U+0020-FB02"
  />
<missing-glyph horiz-adv-x="1083" 
 />
    <glyph glyph-name="f_f" unicode="ff" horiz-adv-x="1558" 
d="M780 0l121 766h-260l-121 -766h-467l121 766h-125l47 305h125l12 76q16 102 60.5 177t111.5 119.5t146.5 65.5t173.5 21q120 0 211 -31l-53 -334q-44 13 -84 13q-49 0 -74 -20t-33 -64l-4 -23h260l17 98q16 102 61 177t113 119.5t149.5 65.5t177.5 21q127 0 215 -30
l-53 -336q-47 14 -90 14q-99 0 -115 -84l-8 -45h195l-47 -305h-195l-121 -766h-467z" />
    <glyph glyph-name=".notdef" horiz-adv-x="1083" 
 />
    <glyph glyph-name=".null" horiz-adv-x="0" 
 />
    <glyph glyph-name="nonmarkingreturn" horiz-adv-x="682" 
 />
    <glyph glyph-name="space" unicode=" " horiz-adv-x="331" 
 />
    <glyph glyph-name="exclam" unicode="!" horiz-adv-x="733" 
d="M315 -29q-108 0 -178.5 68.5t-70.5 169.5t74 172.5t182 71.5t180.5 -69.5t72.5 -170.5q0 -100 -76 -171t-184 -71zM164 516l84 948h528l-219 -948h-393z" />
    <glyph glyph-name="quotedbl" unicode="&#x22;" horiz-adv-x="1038" 
d="M166 868l41 596h428l-139 -596h-330zM653 868l41 596h428l-139 -596h-330z" />
    <glyph glyph-name="numbersign" unicode="#" horiz-adv-x="1234" 
d="M561 203l60 248h-93l-59 -248h-303l59 248h-149l59 364h176l23 94h-150l52 344h180l51 211h303l-51 -211h92l51 211h303l-51 -211h152l-52 -344h-182l-22 -94h155l-59 -364h-182l-60 -248h-303zM637 909l-23 -94h93l22 94h-92z" />
    <glyph glyph-name="dollar" unicode="$" horiz-adv-x="1345" 
d="M459 -276l41 260q-78 10 -145 30.5t-131.5 59t-110.5 91t-75 131t-32 175.5h467q0 -105 82 -137l31 198q-258 51 -367.5 151.5t-109.5 285.5q0 122 50 220.5t136.5 162t199.5 98.5t242 37l29 178h180l-31 -188q456 -56 474 -459h-455q-3 76 -74 106l-31 -198
q119 -23 204 -55t151.5 -81.5t99.5 -122t33 -169.5q0 -129 -49 -230t-136 -164.5t-202 -96t-252 -34.5l-39 -249h-180zM848 414q0 54 -86 82l-29 -181q115 12 115 99zM569 1049q0 -35 19.5 -56.5t64.5 -34.5l29 183q-113 -16 -113 -92z" />
    <glyph glyph-name="percent" unicode="%" horiz-adv-x="1738" 
d="M434 1073q0 -41 19.5 -67t60.5 -25q49 1 72.5 51.5t23.5 114.5q0 39 -19 63.5t-56 24.5q-50 0 -75.5 -47t-25.5 -115zM502 725q-108 0 -196 35t-145 112t-57 185q0 183 122.5 304.5t318.5 121.5q104 0 191.5 -36t144.5 -113t57 -183q0 -178 -122 -302t-314 -124zM195 0
l1212 1464h223l-1212 -1464h-223zM1208 319q0 -41 19.5 -67t60.5 -25q49 1 72.5 51.5t23.5 114.5q0 39 -19 63.5t-56 24.5q-50 0 -75.5 -47t-25.5 -115zM1276 -29q-108 0 -196 35t-144.5 112t-56.5 185q0 179 122.5 302.5t317.5 123.5q104 0 191.5 -36t144.5 -113t57 -183
q0 -178 -122 -302t-314 -124z" />
    <glyph glyph-name="ampersand" unicode="&#x26;" horiz-adv-x="1646" 
d="M1659 766l-320 -494l174 -272h-577l-51 78q-167 -107 -387 -107q-78 0 -148 14.5t-132.5 47t-107.5 80.5t-71.5 120t-26.5 160q0 87 29.5 158.5t85 125.5t119.5 93t149 74q-27 42 -44 100.5t-17 110.5q0 104 45.5 188t123 137t177.5 81t213 28q70 0 136 -11t129.5 -38
t110.5 -67.5t76 -104t29 -142.5q0 -73 -26 -132.5t-76 -103.5t-104 -75t-128 -61l101 -158l110 170h408zM512 451q0 -56 31.5 -90.5t93.5 -34.5q48 0 76 14l-148 229q-53 -49 -53 -118zM885 1167q-41 0 -67.5 -26.5t-26.5 -71.5q0 -57 59 -123q56 28 87.5 59.5t31.5 79.5
q0 36 -23 59t-61 23z" />
    <glyph glyph-name="quotesingle" unicode="'" horiz-adv-x="571" 
d="M166 868l41 596h448l-139 -596h-350z" />
    <glyph glyph-name="parenleft" unicode="(" horiz-adv-x="763" 
d="M618 -303h-346q-44 70 -78 136.5t-68 158.5t-52.5 206t-18.5 240q0 338 136.5 633t383.5 518h359q-109 -149 -186 -280.5t-137 -277.5t-89.5 -303.5t-29.5 -330.5q0 -400 126 -700z" />
    <glyph glyph-name="parenright" unicode=")" horiz-adv-x="763" 
d="M172 1589h346q44 -70 78 -136.5t68 -158.5t52.5 -206t18.5 -240q0 -338 -136.5 -633t-383.5 -518h-358q109 149 186 280.5t137 277.5t89.5 303.5t29.5 330.5q0 397 -127 700z" />
    <glyph glyph-name="asterisk" unicode="*" horiz-adv-x="921" 
d="M391 723l-244 211l213 147l-231 27l133 303l199 -127l-29 238h365l-103 -252l232 96l35 -313l-236 6l164 -174l-305 -174l-60 233z" />
    <glyph glyph-name="plus" unicode="+" horiz-adv-x="1220" 
d="M362 147l60 381h-348l53 332h348l60 381h368l-59 -381h348l-53 -332h-348l-60 -381h-369z" />
    <glyph glyph-name="comma" unicode="," horiz-adv-x="653" 
d="M195 -254l-254 107l206 581l410 -143z" />
    <glyph glyph-name="hyphen" unicode="-" horiz-adv-x="831" 
d="M74 426l55 338h643l-55 -338h-643z" />
    <glyph glyph-name="period" unicode="." horiz-adv-x="630" 
d="M258 -29q-108 0 -179 71t-71 175q0 103 70.5 174.5t177.5 71.5q111 0 185.5 -72t74.5 -174q0 -104 -73.5 -175t-184.5 -71z" />
    <glyph glyph-name="slash" unicode="/" horiz-adv-x="921" 
d="M-199 -303l934 1892h371l-936 -1892h-369z" />
    <glyph glyph-name="zero" unicode="0" horiz-adv-x="1552" 
d="M618 721q-16 -114 -16 -156q0 -176 164 -176q99 0 146 69.5t73 231.5l8 51q15 107 15 154q0 89 -36 135.5t-122 46.5q-98 0 -148 -70.5t-75 -234.5zM745 -29q-312 0 -495.5 158.5t-183.5 452.5q0 63 14 163l8 54q53 341 257.5 514.5t516.5 173.5q146 0 269 -38.5
t216 -113.5t145 -194.5t52 -272.5q0 -74 -12 -151l-8 -53q-53 -347 -254 -520t-525 -173z" />
    <glyph glyph-name="one" unicode="1" horiz-adv-x="974" 
d="M231 0l146 932l-277 -148l72 457l371 223h465l-232 -1464h-545z" />
    <glyph glyph-name="two" unicode="2" horiz-adv-x="1323" 
d="M-80 0l10 70l555 510q59 51 85 74.5t72 67t67 70t46.5 63t35.5 69t10 65.5q0 92 -92 92q-54 0 -92 -43t-60 -147h-489q16 149 73.5 264t149 187t209 108.5t258.5 36.5q266 0 424.5 -114.5t158.5 -336.5q0 -71 -19.5 -136.5t-48 -116t-78 -105.5t-92 -93.5t-108.5 -92.5
l-112 -93h377l-62 -399h-1278z" />
    <glyph glyph-name="three" unicode="3" horiz-adv-x="1386" 
d="M686 -29q-152 0 -269.5 30t-205 93.5t-133.5 167.5t-47 246h489q-3 -152 135 -152q55 0 91 33t36 86q0 103 -129 103h-106l51 317h133q130 0 133 115q1 48 -28 72t-76 24q-128 0 -152 -141h-483q31 240 208 381t464 141q117 0 217.5 -21.5t184 -67t131.5 -125t48 -186.5
q0 -126 -74.5 -216t-211.5 -123q108 -26 171.5 -105.5t63.5 -185.5q0 -99 -37.5 -181.5t-99.5 -138t-145.5 -93.5t-173.5 -55.5t-185 -17.5z" />
    <glyph glyph-name="four" unicode="4" horiz-adv-x="1452" 
d="M631 0l41 266h-703l33 209l739 989h643l-133 -833h181l-58 -365h-180l-41 -266h-522zM518 631h225l66 411z" />
    <glyph glyph-name="five" unicode="5" horiz-adv-x="1339" 
d="M631 -29q-101 0 -189.5 16.5t-168.5 56t-137 98t-90 149t-32 203.5h508q-3 -117 109 -117q58 0 86.5 37t30.5 102q1 67 -36.5 100t-105.5 33q-62 0 -112.5 -24t-79.5 -64h-336l178 903h1071l-61 -387h-684l-50 -250q53 76 146 125t221 49q183 0 288.5 -109.5
t104.5 -322.5q-1 -281 -177 -439.5t-484 -158.5z" />
    <glyph glyph-name="six" unicode="6" horiz-adv-x="1439" 
d="M725 -29q-306 0 -480 152t-171 448q0 88 16 189l6 41q47 315 254 500.5t506 185.5q92 0 173 -15t155.5 -50t128.5 -88t88 -135t37 -185h-502q0 37 -23 57.5t-67 20.5q-49 0 -87 -22.5t-63.5 -65.5t-41 -91t-27.5 -112q124 164 327 162q84 0 162 -25.5t141.5 -75
t101.5 -131t38 -184.5q0 -138 -54 -249t-147 -181.5t-213.5 -108t-257.5 -37.5zM612 475q0 -55 29.5 -90t85.5 -35q61 0 101 48t40 116q0 54 -29 88.5t-85 34.5q-60 0 -101 -46t-41 -116z" />
    <glyph glyph-name="seven" unicode="7" horiz-adv-x="1234" 
d="M100 0l521 1022h-504l69 442h1192l-8 -53l-711 -1411h-559z" />
    <glyph glyph-name="eight" unicode="8" horiz-adv-x="1398" 
d="M553 463q0 -57 33.5 -88t93.5 -31t101.5 40t41.5 108q0 55 -33.5 84.5t-91.5 29.5q-61 0 -103 -38t-42 -105zM647 1001q0 -48 30 -79t81 -31q54 0 95.5 35t41.5 94q0 51 -31 80.5t-84 29.5t-93 -35t-40 -94zM659 -29q-130 0 -244 24.5t-206.5 73.5t-146.5 130t-54 186
q0 155 86 252t236 141q-77 41 -119.5 107t-42.5 151q0 113 51.5 201t139.5 141.5t197.5 81t234.5 27.5q84 0 164 -12t160 -41.5t139 -74.5t95.5 -116t36.5 -160q0 -116 -67 -205.5t-182 -134.5q104 -40 157.5 -117.5t53.5 -174.5t-33.5 -176t-94 -135t-146.5 -94.5
t-190 -56.5t-225 -18z" />
    <glyph glyph-name="nine" unicode="9" horiz-adv-x="1439" 
d="M635 -27q-94 0 -178 15.5t-160 51t-131 88.5t-89.5 133.5t-37.5 180.5h500q3 -35 34 -53t78 -18q92 0 140 70t77 210q-54 -78 -126 -120t-191 -42q-88 0 -165.5 23t-143 69.5t-104 128t-38.5 189.5q0 138 51.5 250t141.5 186t212.5 114t264.5 40q308 0 484 -158t176 -465
q0 -84 -15 -172l-4 -24q-59 -351 -250.5 -524t-525.5 -173zM618 950q0 -57 29.5 -91t85.5 -34q61 0 103.5 46.5t42.5 117.5q0 53 -31.5 88t-87.5 35q-60 0 -101 -45t-41 -117z" />
    <glyph glyph-name="colon" unicode=":" horiz-adv-x="638" 
d="M262 -29q-108 0 -179 71t-71 175q0 103 70.5 174.5t177.5 71.5q111 0 185.5 -72t74.5 -174q0 -104 -73.5 -175t-184.5 -71zM354 545q-108 0 -179 71t-71 175q0 103 70.5 174t177.5 71q111 0 185.5 -71.5t74.5 -173.5q0 -104 -73.5 -175t-184.5 -71z" />
    <glyph glyph-name="semicolon" unicode=";" horiz-adv-x="688" 
d="M416 545q-108 0 -179 71t-71 175q0 103 70.5 174t177.5 71q111 0 185.5 -71.5t74.5 -173.5q0 -104 -73.5 -175t-184.5 -71zM195 -254l-254 107l206 581l410 -143z" />
    <glyph glyph-name="less" unicode="&#x3c;" horiz-adv-x="1058" 
d="M903 84l-817 545l14 88l985 520l-67 -428l-336 -154l285 -174z" />
    <glyph glyph-name="equal" unicode="=" horiz-adv-x="1216" 
d="M41 311l47 303h1061l-47 -303h-1061zM106 731l48 303h1060l-47 -303h-1061z" />
    <glyph glyph-name="greater" unicode="&#x3e;" horiz-adv-x="1058" 
d="M190 1239l818 -545l-15 -88l-985 -520l68 428l336 154l-285 174z" />
    <glyph glyph-name="question" unicode="?" horiz-adv-x="1210" 
d="M330 516l4 21q12 58 40.5 109.5t65 88.5t78 71t80.5 62.5t70.5 55.5t51 57.5t19.5 62.5q-3 64 -69 64q-85 0 -113 -135h-459q16 129 71 228.5t140.5 161t192.5 93t231 31.5q254 0 386 -99.5t132 -283.5q0 -80 -27.5 -147.5t-70.5 -112.5t-98 -88.5t-105.5 -75.5
t-98.5 -74t-73 -84l-2 -6h-446zM500 -29q-108 0 -179 68.5t-71 169.5t74 172.5t182 71.5t181 -70t73 -170t-76 -171t-184 -71z" />
    <glyph glyph-name="at" unicode="@" horiz-adv-x="1882" 
d="M944 -336q-205 0 -375.5 64.5t-285.5 177t-178.5 267t-63.5 333.5q0 204 79.5 378t212 289t304.5 179.5t358 64.5q179 0 335 -51.5t271 -145.5t181.5 -235t66.5 -311q0 -151 -39.5 -266t-109 -182.5t-155 -100.5t-185.5 -33q-270 0 -318 162q-84 -162 -284 -162
q-139 0 -224 98.5t-88 264.5q0 229 121 371.5t303 142.5q157 0 207 -113l19 96h368l-94 -579q-20 -123 76 -123q94 0 162.5 108t68.5 324q0 264 -188.5 427t-495.5 163q-159 0 -299 -54t-245 -151.5t-165.5 -244.5t-60.5 -322q0 -151 46.5 -276.5t136.5 -218t230 -144
t318 -51.5q173 0 323.5 56.5t225.5 133.5h201q-113 -155 -316 -245.5t-444 -90.5zM909 389q54 0 87.5 58t33.5 139q0 43 -21.5 68.5t-64.5 25.5q-51 0 -85.5 -54.5t-33.5 -140.5q0 -96 84 -96z" />
    <glyph glyph-name="A" unicode="A" horiz-adv-x="1605" 
d="M948 0l-18 195h-414l-80 -195h-520l682 1464h702l218 -1464h-570zM856 1026l-190 -467h231z" />
    <glyph glyph-name="B" unicode="B" horiz-adv-x="1452" 
d="M33 0l231 1464h682q108 0 192.5 -19.5t139.5 -53.5t91.5 -81t51.5 -99.5t15 -112.5q0 -139 -82 -229t-207 -115q113 -24 183.5 -99.5t70.5 -201.5q0 -203 -160 -328t-426 -125h-782zM618 352h105q69 0 110 37.5t41 97.5q0 109 -135 109h-82zM707 911h108q129 0 129 111
q0 49 -28.5 70.5t-86.5 21.5h-90z" />
    <glyph glyph-name="C" unicode="C" horiz-adv-x="1595" 
d="M811 -29q-169 0 -305 39.5t-234.5 118.5t-152 203t-53.5 286q0 257 97 452t288.5 306t453.5 111q325 0 505 -152.5t189 -453.5h-552q-6 182 -156 182q-85 0 -144 -61t-84.5 -152.5t-27.5 -206.5q-1 -67 14 -118.5t57.5 -87.5t110.5 -36q164 0 205 183h543
q-19 -153 -85.5 -271.5t-168.5 -192.5t-228.5 -111.5t-271.5 -37.5z" />
    <glyph glyph-name="D" unicode="D" horiz-adv-x="1583" 
d="M33 0l231 1464h535q377 0 576.5 -160.5t199.5 -461.5q0 -168 -42 -306.5t-118 -237t-183 -166t-237 -100t-280 -32.5h-682zM643 412h78q141 0 215 103.5t74 301.5q0 236 -222 236h-43z" />
    <glyph glyph-name="E" unicode="E" horiz-adv-x="1300" 
d="M33 0l231 1464h1094l-66 -415h-551l-20 -125h434l-57 -373h-434l-23 -135h582l-66 -416h-1124z" />
    <glyph glyph-name="F" unicode="F" horiz-adv-x="1220" 
d="M33 0l231 1464h1059l-68 -417h-512l-30 -205h415l-63 -396h-416l-69 -446h-547z" />
    <glyph glyph-name="G" unicode="G" horiz-adv-x="1632" 
d="M823 -29q-169 0 -306 39.5t-238.5 118.5t-157 204.5t-55.5 289.5q0 250 109 447t305 307t446 110q114 0 213 -19.5t187 -63t151.5 -109.5t102.5 -164.5t44 -221.5h-541q-6 75 -45 112.5t-131 37.5q-90 0 -154.5 -63t-94 -158t-29.5 -209q0 -123 54.5 -184.5t176.5 -61.5
q162 0 201 119h-201l53 332h723q-18 -229 -66.5 -385.5t-143 -266.5t-242.5 -160.5t-361 -50.5z" />
    <glyph glyph-name="H" unicode="H" horiz-adv-x="1662" 
d="M33 0l231 1464h547l-80 -506h334l80 506h545l-232 -1464h-545l84 539h-333l-84 -539h-547z" />
    <glyph glyph-name="I" unicode="I" horiz-adv-x="800" 
d="M39 0l231 1464h551l-231 -1464h-551z" />
    <glyph glyph-name="J" unicode="J" horiz-adv-x="1040" 
d="M332 -18q-209 0 -350 65l63 397q94 -32 180 -32q153 0 174 141l146 911h547l-148 -929q-44 -281 -197 -417t-415 -136z" />
    <glyph glyph-name="K" unicode="K" horiz-adv-x="1601" 
d="M33 0l231 1464h547l-80 -508l434 508h578l-615 -698l377 -766h-585l-252 561l-88 -561h-547z" />
    <glyph glyph-name="L" unicode="L" horiz-adv-x="1218" 
d="M33 0l231 1464h547l-166 -1046h494l-66 -418h-1040z" />
    <glyph glyph-name="M" unicode="M" horiz-adv-x="2019" 
d="M33 0l231 1464h680l98 -585l293 585h709l-232 -1464h-542l123 778l-414 -778h-184l-156 778l-123 -778h-483z" />
    <glyph glyph-name="N" unicode="N" horiz-adv-x="1648" 
d="M33 0l231 1464h602l221 -649l103 649h483l-231 -1464h-512l-291 768l-121 -768h-485z" />
    <glyph glyph-name="O" unicode="O" horiz-adv-x="1685" 
d="M631 629q0 -106 48 -169t157 -63q59 0 107 25t79 66.5t51.5 98t29.5 115t9 121.5q0 235 -201 240q-71 1 -126.5 -35.5t-88 -99.5t-49 -139t-16.5 -160zM793 -29q-146 0 -275 40t-231 116.5t-161.5 200t-59.5 278.5q0 261 108 461.5t303.5 310t450.5 109.5
q121 0 230.5 -23.5t205.5 -74t165.5 -124.5t109.5 -182t40 -239q0 -194 -62.5 -356.5t-176.5 -276t-280 -177t-367 -63.5z" />
    <glyph glyph-name="P" unicode="P" horiz-adv-x="1409" 
d="M33 0l231 1464h588q287 0 437.5 -118.5t152.5 -319.5q0 -277 -167.5 -430.5t-475.5 -153.5h-150l-69 -442h-547zM702 803h68q75 0 116.5 39t41.5 116q0 51 -34.5 80t-100.5 29h-50z" />
    <glyph glyph-name="Q" unicode="Q" horiz-adv-x="1685" 
d="M793 -29q-146 0 -275 40t-231 116.5t-161.5 200t-59.5 278.5q0 261 108 461.5t303.5 310t450.5 109.5q121 0 230.5 -23.5t205.5 -74t165.5 -124.5t109.5 -182t40 -239q0 -230 -85.5 -412t-243.5 -297l114 -115l-321 -299l-242 256q-53 -6 -108 -6zM631 629
q0 -159 90 -219l203 159l96 -98q94 120 94 352q0 104 -48 170.5t-155 69.5q-71 1 -126.5 -35.5t-88 -99.5t-49 -139t-16.5 -160z" />
    <glyph glyph-name="R" unicode="R" horiz-adv-x="1501" 
d="M33 0l231 1464h621q297 0 441 -116.5t144 -321.5q0 -170 -80.5 -284.5t-218.5 -161.5l234 -580h-545l-182 465h-31l-72 -465h-542zM702 807h84q154 0 154 141q0 111 -133 111h-66z" />
    <glyph glyph-name="S" unicode="S" horiz-adv-x="1345" 
d="M649 -29q-315 0 -485.5 127.5t-167.5 376.5h510q4 -125 153 -125q115 0 115 78q0 30 -35.5 49t-115.5 33q-283 50 -398.5 153t-115.5 295q0 114 42 210.5t121 167.5t200.5 111t272.5 40q292 0 447 -119t151 -367h-497q-6 107 -113 107q-100 0 -100 -70q0 -34 33.5 -52
t117.5 -32q264 -43 394.5 -145t130.5 -295q0 -248 -170 -394t-490 -149z" />
    <glyph glyph-name="T" unicode="T" horiz-adv-x="1327" 
d="M303 0l164 1047h-354l67 417h1258l-68 -417h-354l-164 -1047h-549z" />
    <glyph glyph-name="U" unicode="U" horiz-adv-x="1636" 
d="M801 -29q-369 0 -548.5 175t-125.5 511l129 807h545l-131 -823q-20 -122 11 -183t126 -61q50 0 82.5 14t51.5 47.5t28.5 67.5t19.5 95l133 843h549l-139 -884q-50 -321 -227 -465t-504 -144z" />
    <glyph glyph-name="V" unicode="V" horiz-adv-x="1560" 
d="M395 0l-248 1464h572l84 -893l368 893h533l-696 -1464h-613z" />
    <glyph glyph-name="W" unicode="W" horiz-adv-x="2103" 
d="M256 0l-109 1464h553l7 -805l266 805h459l41 -815l274 815h498l-572 -1464h-528l-49 774l-289 -774h-551z" />
    <glyph glyph-name="X" unicode="X" horiz-adv-x="1603" 
d="M-66 0l555 772l-288 692h587l107 -366l213 366h563l-471 -706l318 -758h-586l-148 446l-280 -446h-570z" />
    <glyph glyph-name="Y" unicode="Y" horiz-adv-x="1478" 
d="M383 0l96 623l-336 841h566l120 -389l242 389h543l-588 -868l-94 -596h-549z" />
    <glyph glyph-name="Z" unicode="Z" horiz-adv-x="1286" 
d="M-76 0l8 55l682 1014h-444l63 395h1199l-11 -55l-680 -1008h467l-63 -401h-1221z" />
    <glyph glyph-name="bracketleft" unicode="[" horiz-adv-x="894" 
d="M-25 -303l299 1892h713l-53 -336h-240l-192 -1220h239l-53 -336h-713z" />
    <glyph glyph-name="backslash" unicode="\" horiz-adv-x="921" 
d="M541 -303l-435 1892h349l434 -1892h-348z" />
    <glyph glyph-name="bracketright" unicode="]" 
d="M-61 -303l53 336h235l193 1220h-236l54 336h708l-299 -1892h-708z" />
    <glyph glyph-name="asciicircum" unicode="^" horiz-adv-x="1112" 
d="M63 791l435 673h395l233 -673h-376l-103 296l-194 -296h-390z" />
    <glyph glyph-name="underscore" unicode="_" horiz-adv-x="929" 
d="M-139 -332l30 197h932l-30 -197h-932z" />
    <glyph glyph-name="grave" unicode="`" horiz-adv-x="819" 
d="M362 1163l-194 359h444l74 -359h-324z" />
    <glyph glyph-name="a" unicode="a" horiz-adv-x="1218" 
d="M539 274q50 0 84.5 29t40.5 72l8 39h-82q-73 0 -102 -18t-29 -56q0 -29 21.5 -47.5t58.5 -18.5zM1106 0h-455q-8 39 -8 133q-106 -162 -315 -162q-142 0 -239 78t-97 217q0 208 144 294.5t442 86.5h131l2 15q4 35 2 62.5t-23 44.5t-63 17q-83 0 -103 -92h-434
q40 201 179.5 305.5t379.5 104.5q297 0 425.5 -126t88.5 -378l-41 -260q-34 -205 -16 -340z" />
    <glyph glyph-name="b" unicode="b" horiz-adv-x="1333" 
d="M457 0h-469l241 1522h469l-96 -611q115 193 352 193q157 0 254 -116.5t97 -342.5q0 -162 -39.5 -292t-109.5 -212.5t-162 -126t-199 -43.5q-113 0 -198.5 52.5t-111.5 142.5zM645 319q78 0 129 80t51 211q0 154 -120 154q-78 0 -127.5 -83.5t-49.5 -205.5
q0 -156 117 -156z" />
    <glyph glyph-name="c" unicode="c" horiz-adv-x="1212" 
d="M600 -27q-119 0 -220 30.5t-179.5 89.5t-123 155t-44.5 219q0 187 76 331t218.5 225t331.5 81q116 0 210 -27.5t167 -83.5t114.5 -148t45.5 -214h-438q-5 58 -28.5 86t-78.5 28q-151 0 -151 -284q0 -74 26.5 -115t91.5 -41q115 0 138 135h418q-25 -227 -171 -347
t-403 -120z" />
    <glyph glyph-name="d" unicode="d" horiz-adv-x="1333" 
d="M1411 1522l-186 -1182q-34 -208 -23 -340h-465q-10 41 -10 172q-120 -201 -340 -201q-166 0 -264 116t-98 343q0 162 41 292t112.5 212.5t166.5 126t206 43.5q103 0 185.5 -50.5t109.5 -135.5l96 604h469zM684 764q-78 0 -129 -80t-51 -211q0 -158 119 -158q78 0 128 85
t50 208q0 156 -117 156z" />
    <glyph glyph-name="e" unicode="e" horiz-adv-x="1261" 
d="M1208 440h-721q2 -71 37.5 -118.5t114.5 -47.5q106 0 137 103h436q-35 -194 -188 -300t-395 -106q-98 0 -184.5 17t-163 55t-131 95t-86 142t-31.5 191q0 189 85 334t231.5 222t330.5 77q187 0 317.5 -73.5t188 -215.5t28.5 -334zM674 815q-117 0 -162 -158h285
q5 70 -25.5 114t-97.5 44z" />
    <glyph glyph-name="f" unicode="f" horiz-adv-x="831" 
d="M96 1071h125l17 98q17 102 62.5 177t113 119.5t148.5 65.5t177 21q127 0 215 -30l-53 -336q-47 14 -90 14q-99 0 -115 -84l-8 -45h195l-47 -305h-195l-121 -766h-467l121 766h-125z" />
    <glyph glyph-name="g" unicode="g" horiz-adv-x="1327" 
d="M549 -399q-294 0 -442 115t-154 309h463q4 -44 34.5 -76.5t96.5 -32.5q44 0 74 11t46.5 33t24.5 45.5t13 57.5l30 193q-111 -176 -327 -176q-78 0 -145 26t-119 77.5t-81.5 134.5t-29.5 190q0 270 145 433t369 163q226 0 293 -189l24 156h469l-159 -1005
q-39 -241 -186 -353t-439 -112zM627 391q85 0 128.5 69.5t43.5 170.5q-2 61 -30.5 100t-82.5 39q-84 0 -128 -68.5t-44 -160.5q0 -69 28.5 -109.5t84.5 -40.5z" />
    <glyph glyph-name="h" unicode="h" horiz-adv-x="1300" 
d="M-10 0l239 1522h469l-102 -643q135 225 367 225q75 0 134 -26t102.5 -81t57 -142t-3.5 -208l-102 -647h-469l92 588q21 143 -88 143q-62 0 -93.5 -36.5t-43.5 -119.5l-90 -575h-469z" />
    <glyph glyph-name="i" unicode="i" horiz-adv-x="647" 
d="M442 1114q-105 0 -172 63t-67 162q0 98 67.5 162t173.5 64q104 0 173 -64t69 -162t-69.5 -161.5t-174.5 -63.5zM4 0l168 1071h467l-168 -1071h-467z" />
    <glyph glyph-name="j" unicode="j" horiz-adv-x="647" 
d="M-170 -367l49 326q59 3 91.5 25t39.5 73l160 1014h467l-168 -1061q-11 -69 -33.5 -125t-69.5 -108.5t-115.5 -86t-176 -49.5t-244.5 -8zM440 1114q-105 0 -172 63t-67 162q0 98 67.5 162t173.5 64q104 0 173 -64t69 -162t-69.5 -161.5t-174.5 -63.5z" />
    <glyph glyph-name="k" unicode="k" horiz-adv-x="1247" 
d="M-10 0l239 1522h469l-133 -836l277 385h493l-391 -498l227 -573h-497l-148 428l-67 -428h-469z" />
    <glyph glyph-name="l" unicode="l" horiz-adv-x="638" 
d="M2 0l240 1522h465l-240 -1522h-465z" />
    <glyph glyph-name="m" unicode="m" horiz-adv-x="1923" 
d="M592 879q59 95 155.5 160t215.5 65q209 0 264 -201q65 95 159 148t201 53q161 0 243.5 -107.5t51.5 -308.5l-108 -688h-467l94 604q10 62 -10.5 93.5t-65.5 31.5q-97 0 -117 -127l-94 -602h-463l94 602q10 63 -10 95t-65 32q-54 0 -80.5 -32t-36.5 -95l-94 -602h-469
l110 705q38 240 43 366h461q0 -101 -12 -192z" />
    <glyph glyph-name="n" unicode="n" horiz-adv-x="1300" 
d="M-10 0l110 705q38 240 43 366h461q0 -108 -12 -199q63 105 156 168.5t215 63.5q75 0 134 -26t102.5 -81t57 -142t-3.5 -208l-102 -647h-469l92 588q21 143 -88 143q-62 0 -93.5 -36.5t-43.5 -119.5l-90 -575h-469z" />
    <glyph glyph-name="o" unicode="o" horiz-adv-x="1288" 
d="M500 463q0 -152 121 -152q86 0 126.5 85t40.5 227q0 60 -27.5 99.5t-86.5 39.5q-89 0 -131.5 -81t-42.5 -218zM614 -29q-112 0 -212 28t-183.5 85t-133 155.5t-50.5 227.5q-1 183 79 328t227 227t337 82q89 0 171 -17.5t157 -57t130 -97t88 -143.5t33 -191
q0 -281 -178.5 -454t-464.5 -173z" />
    <glyph glyph-name="p" unicode="p" horiz-adv-x="1333" 
d="M645 319q78 0 129 80t51 211q0 154 -120 154q-78 0 -127.5 -83.5t-49.5 -205.5q0 -156 117 -156zM594 895q112 209 360 209q158 0 254.5 -116.5t96.5 -342.5q0 -162 -39 -291.5t-108 -212.5t-160.5 -126.5t-198.5 -43.5q-113 0 -200.5 52.5t-113.5 142.5l-84 -518h-469
l168 1057q38 240 43 366h461q0 -78 -10 -176z" />
    <glyph glyph-name="q" unicode="q" horiz-adv-x="1333" 
d="M870 1071h469l-225 -1423h-469l84 524q-120 -201 -342 -201q-166 0 -264 116t-98 343q0 162 41 292t112.5 212.5t166.5 126t206 43.5q103 0 185.5 -50.5t109.5 -135.5zM684 764q-78 0 -129 -80t-51 -211q0 -158 119 -158q78 0 128 85t50 208q0 156 -117 156z" />
    <glyph glyph-name="r" unicode="r" horiz-adv-x="937" 
d="M-10 0l110 705q35 223 41 366h461q0 -135 -16 -252q116 273 385 264l-68 -436q-177 14 -266.5 -35.5t-110.5 -181.5l-67 -430h-469z" />
    <glyph glyph-name="s" unicode="s" horiz-adv-x="1085" 
d="M485 -31q-115 0 -206.5 21t-161.5 65.5t-108.5 119.5t-39.5 177h432q3 -47 25 -69.5t72 -22.5q35 0 56 14t21 41q0 28 -31 42.5t-134 31.5q-190 32 -277.5 104t-87.5 212q0 131 68 223t186 135.5t276 42.5q478 0 498 -369h-422q-12 88 -86 88q-80 0 -80 -55q0 -30 30 -43
t106 -27q118 -22 192.5 -46.5t127 -63t74 -92.5t21.5 -133q0 -102 -41.5 -179t-117 -124t-174 -70t-218.5 -23z" />
    <glyph glyph-name="t" unicode="t" horiz-adv-x="833" 
d="M481 -29q-83 0 -147.5 14.5t-115.5 47t-78.5 85t-37 128t8.5 176.5l55 344h-117l47 305h117l35 213h469l-35 -213h190l-47 -305h-190l-51 -324q-9 -57 11.5 -80.5t68.5 -23.5q45 0 92 16l-56 -348q-95 -35 -219 -35z" />
    <glyph glyph-name="u" unicode="u" horiz-adv-x="1306" 
d="M1307 1071l-115 -731q-35 -213 -27 -340h-460q-5 53 0 193q-138 -222 -367 -222q-74 0 -133 25t-103 80t-58 140.5t3 207.5l103 647h468l-98 -616q-21 -144 86 -144q61 0 92 36.5t43 119.5l97 604h469z" />
    <glyph glyph-name="v" unicode="v" horiz-adv-x="1257" 
d="M287 0l-207 1071h479l64 -586l260 586h458l-565 -1071h-489z" />
    <glyph glyph-name="w" unicode="w" horiz-adv-x="1767" 
d="M227 0l-147 1071h473l33 -526l205 526h372l37 -526l205 526h448l-505 -1071h-435l-43 492l-196 -492h-447z" />
    <glyph glyph-name="x" unicode="x" horiz-adv-x="1296" 
d="M-82 0l428 547l-237 524h514l79 -227l148 227h489l-405 -500l270 -571h-514l-98 262l-186 -262h-488z" />
    <glyph glyph-name="y" unicode="y" horiz-adv-x="1257" 
d="M96 -352l248 473l-264 950h487l88 -475l226 475h460l-782 -1423h-463z" />
    <glyph glyph-name="z" unicode="z" horiz-adv-x="1067" 
d="M-78 0l6 43l500 690h-350l51 338h1006l-7 -43l-526 -694h383l-51 -334h-1012z" />
    <glyph glyph-name="braceleft" unicode="{" horiz-adv-x="894" 
d="M688 -303q-337 0 -478 132.5t-58 379.5l47 151q22 67 -15 101.5t-137 40.5l51 321q104 0 149.5 29.5t43.5 93.5v152q0 141 40 235.5t128 151.5t214.5 80.5t313.5 23.5l-53 -338q-101 -7 -137 -41t-41 -118l-11 -193q-4 -101 -70.5 -166.5t-185.5 -87.5q115 -29 158 -101
t15 -175l-52 -191q-20 -76 6 -106t125 -37z" />
    <glyph glyph-name="bar" unicode="|" horiz-adv-x="563" 
d="M150 -303v1892h317v-1892h-317z" />
    <glyph glyph-name="braceright" unicode="}" horiz-adv-x="894" 
d="M236 1589q336 0 474 -131t62 -381l-45 -147q-20 -68 16 -102t136 -40l-52 -321q-103 0 -146.5 -29t-45.5 -94l-2 -156q-2 -141 -42 -235.5t-127.5 -151.5t-213.5 -80.5t-313 -23.5l53 338q100 7 136.5 41.5t41.5 118.5l12 196q6 101 72 166.5t184 87.5
q-114 29 -156.5 101t-15.5 176l49 186q20 76 -6 106t-125 37z" />
    <glyph glyph-name="asciitilde" unicode="~" horiz-adv-x="1138" 
d="M29 430q32 250 136.5 364.5t248.5 114.5q66 0 135.5 -21t123.5 -42t83 -21q76 0 100 86h291q-25 -232 -134 -355.5t-251 -123.5q-67 0 -136.5 21t-124 42t-83.5 21q-78 0 -99 -86h-290z" />
    <glyph glyph-name="uni00A0" unicode="&#xa0;" horiz-adv-x="503" 
 />
    <glyph glyph-name="exclamdown" unicode="&#xa1;" horiz-adv-x="733" 
d="M432 1253q108 0 179 -68t71 -169t-74 -172.5t-182 -71.5t-181 70t-73 170t76 170.5t184 70.5zM584 709l-84 -949h-529l219 949h394z" />
    <glyph glyph-name="cent" unicode="&#xa2;" horiz-adv-x="1249" 
d="M455 -276l41 256q-133 18 -236.5 74t-168.5 158t-66 237q-1 183 77 329t226.5 232.5t343.5 91.5l30 186h142l-31 -192q199 -26 309.5 -140.5t116.5 -324.5h-418q0 100 -61 127l-76 -471q56 12 87.5 49t45.5 104h402q-19 -207 -175 -335t-409 -134l-39 -247h-141zM475 455
q0 -121 70 -158l73 465q-143 -46 -143 -307z" />
    <glyph glyph-name="sterling" unicode="&#xa3;" horiz-adv-x="1409" 
d="M59 578l43 270h82q-8 49 -8 115q0 163 85.5 283.5t228 180.5t321.5 60q109 0 197.5 -16.5t166.5 -56t131 -101.5t82.5 -157t28.5 -218h-502q3 77 -20 110t-78 33q-123 0 -123 -198v-35h344l-43 -270h-301q-7 -86 -41 -160q93 -19 127 -19q96 0 111 93h489
q-14 -112 -53.5 -203.5t-103.5 -161t-158 -107.5t-211 -38q-74 0 -148 15t-121 33t-94.5 33t-76.5 15q-36 0 -60 -21t-30 -57h-392q23 147 87 256.5t169 161.5q34 75 37 160h-166z" />
    <glyph glyph-name="yen" unicode="&#xa5;" horiz-adv-x="1396" 
d="M123 616l24 160h263l-260 688h577l76 -381l205 381h530l-461 -688h266l-24 -160h-326l-12 -77h324l-25 -160h-324l-59 -379h-549l60 379h-324l25 160h323l12 77h-321z" />
    <glyph glyph-name="brokenbar" unicode="&#xa6;" horiz-adv-x="563" 
d="M150 -303v924h317v-924h-317zM150 768v821h317v-821h-317z" />
    <glyph glyph-name="section" unicode="&#xa7;" horiz-adv-x="1312" 
d="M573 -281q-104 0 -191 22t-156.5 67.5t-109 124t-40.5 182.5h420q6 -95 92 -95q67 0 67 48q0 26 -38 43.5t-148 50.5q-108 32 -184.5 66t-137.5 80t-91.5 107.5t-30.5 139.5q0 131 68.5 209t195.5 119q-53 74 -53 161q0 113 41.5 199.5t115 138.5t167.5 78.5t206 26.5
q83 0 153.5 -12.5t132.5 -42.5t106 -75.5t70.5 -115t28.5 -158.5h-426q-4 48 -19.5 71t-63.5 24q-70 0 -70 -52q0 -26 29.5 -41t120.5 -43q21 -7 32 -10q108 -33 182.5 -66.5t137 -79.5t93 -108t30.5 -141q0 -127 -67 -202.5t-198 -121.5q62 -75 62 -161q0 -90 -29 -163.5
t-78 -123t-117 -83t-143.5 -48.5t-159.5 -15zM791 489q51 7 51 48q0 26 -23 41.5t-101 48.5q-24 10 -38 16l-137 62q-54 -4 -54 -48q0 -26 29.5 -44t130.5 -62z" />
    <glyph glyph-name="dieresis" unicode="&#xa8;" horiz-adv-x="819" 
d="M303 1130q-88 0 -148.5 59t-60.5 144t60.5 144t148.5 59t149.5 -59t61.5 -144t-61.5 -144t-149.5 -59zM764 1130q-87 0 -147 59t-60 144t60 144t147 59q89 0 150 -59t61 -144t-61 -144t-150 -59z" />
    <glyph glyph-name="copyright" unicode="&#xa9;" horiz-adv-x="1724" 
d="M909 305q-229 0 -341.5 111.5t-112.5 308.5v16q0 190 124.5 304t315.5 114q183 0 289 -83.5t119 -256.5h-318q-3 47 -26 73t-64 26q-117 0 -117 -177v-14q0 -178 123 -178q45 0 74 25t33 75h305q-6 -163 -117 -253.5t-287 -90.5zM887 61q137 0 259 49t211 136t141 214
t52 275q0 195 -87 348t-237 236.5t-335 83.5q-187 0 -338.5 -84t-238.5 -238t-87 -350q0 -197 89 -351t239 -236.5t332 -82.5zM887 -51q-164 0 -312.5 60.5t-256 163.5t-171 249t-63.5 309q0 162 63 307t170.5 250t257.5 166.5t316 61.5q168 0 317.5 -61t256 -165.5
t168 -249t61.5 -305.5q0 -164 -63 -310.5t-171 -250.5t-257 -164.5t-316 -60.5z" />
    <glyph glyph-name="ordfeminine" unicode="&#xaa;" horiz-adv-x="1056" 
d="M1016 610h-387q-8 39 -8 105q-87 -129 -250 -129q-109 0 -187 60.5t-78 168.5q0 165 122 233t372 68h68l2 17q1 20 1.5 37t-11.5 28.5t-39 11.5q-56 0 -70 -67h-379q29 163 152.5 250.5t328.5 87.5q254 0 346.5 -101t55.5 -336l-27 -167q-27 -159 -12 -267zM557 848
q67 0 76 55l4 25h-51q-45 0 -62.5 -10.5t-17.5 -32.5q0 -37 51 -37z" />
    <glyph glyph-name="guillemotleft" unicode="&#xab;" horiz-adv-x="962" 
d="M227 129l-196 418l282 393h279l-281 -395l181 -416h-265zM592 129l-186 412l282 399h279l-281 -408l170 -403h-264z" />
    <glyph glyph-name="registered" unicode="&#xae;" horiz-adv-x="1060" 
d="M422 811v449h196q195 0 195 -152v-2q0 -79 -65 -117l92 -178h-170l-70 143h-12v-143h-166zM588 1059h18q47 0 47 39v2q0 35 -47 35h-18v-76zM606 655q164 0 273.5 105.5t109.5 269.5q0 165 -107.5 270t-275.5 105t-275.5 -106t-107.5 -271t109.5 -269t273.5 -104z
M606 573q-199 0 -338 131.5t-139 323.5q0 191 139 325t338 134q202 0 339.5 -133t137.5 -324q0 -193 -138.5 -325t-338.5 -132z" />
    <glyph glyph-name="macron" unicode="&#xaf;" horiz-adv-x="819" 
d="M174 1214l39 244h678l-39 -244h-678z" />
    <glyph glyph-name="degree" unicode="&#xb0;" horiz-adv-x="954" 
d="M567 909q81 0 134 59.5t53 147.5q0 91 -53 151t-134 60q-84 0 -137 -59.5t-53 -151.5q0 -89 53 -148t137 -59zM567 754q-156 0 -266.5 107t-110.5 255q0 151 110.5 259t266.5 108q154 0 263.5 -108t109.5 -259q0 -148 -110 -255t-263 -107z" />
    <glyph glyph-name="plusminus" unicode="&#xb1;" horiz-adv-x="1220" 
d="M401 393l52 320h-349l52 331h348l51 320h369l-52 -320h349l-52 -331h-348l-51 -320h-369zM-8 0l45 291h1073l-45 -291h-1073z" />
    <glyph glyph-name="twosuperior" unicode="&#xb2;" horiz-adv-x="794" 
d="M25 659l8 41l305 273q42 37 61 54t55.5 53t53 61.5t16.5 44.5q0 45 -39 45q-54 0 -73 -94h-312q24 170 132.5 255t279.5 85q76 0 137 -13t110 -41t76 -78t27 -118q0 -80 -54 -150.5t-163 -158.5l-22 -19h190l-39 -240h-749z" />
    <glyph glyph-name="threesuperior" unicode="&#xb3;" horiz-adv-x="831" 
d="M473 643q-178 0 -278 73t-101 224h299q0 -66 64 -66q22 0 38.5 13t16.5 41q0 43 -76 43h-61l28 180h76q74 0 74 53q0 43 -51 43q-56 0 -70 -61h-295q20 139 122.5 215t275.5 76q63 0 118.5 -10.5t107 -34t81.5 -69t30 -108.5q0 -75 -44 -123t-121 -69q139 -30 139 -160
t-105 -195t-268 -65z" />
    <glyph glyph-name="acute" unicode="&#xb4;" horiz-adv-x="819" 
d="M326 1163l145 359h449l-261 -359h-333z" />
    <glyph glyph-name="paragraph" unicode="&#xb6;" horiz-adv-x="1089" 
d="M385 -205l135 860h-4q-114 0 -203.5 38.5t-144.5 120.5t-55 198q0 147 67 250.5t180.5 152.5t262.5 49h493l-264 -1669h-162l242 1532h-146l-241 -1532h-160z" />
    <glyph glyph-name="periodcentered" unicode="&#xb7;" horiz-adv-x="630" 
d="M330 422q-108 0 -179 71t-71 175q0 103 70.5 174t177.5 71q111 0 185.5 -71.5t74.5 -173.5q0 -104 -73.5 -175t-184.5 -71z" />
    <glyph glyph-name="cedilla" unicode="&#xb8;" horiz-adv-x="819" 
d="M281 -475q-75 0 -136 19.5t-103.5 66t-47.5 113.5h205q8 -48 63 -48q24 0 43 15.5t19 46.5q0 53 -62 53q-37 0 -63 -22l-78 86l119 145h168l-72 -84q95 6 156 -40t61 -130q0 -108 -77.5 -164.5t-194.5 -56.5z" />
    <glyph glyph-name="onesuperior" unicode="&#xb9;" horiz-adv-x="645" 
d="M223 659l76 474l-182 -86l43 274l243 143h291l-129 -805h-342z" />
    <glyph glyph-name="ordmasculine" unicode="&#xba;" horiz-adv-x="1099" 
d="M571 586q-206 0 -326 101t-120 282q0 152 75.5 270.5t198.5 180t269 61.5q217 0 330.5 -106t113.5 -290q0 -114 -45 -209.5t-121 -158t-173 -97t-202 -34.5zM600 874q56 0 84.5 65t28.5 157q0 47 -16.5 70.5t-55.5 23.5q-53 0 -84 -62.5t-31 -158.5q0 -95 74 -95z" />
    <glyph glyph-name="guillemotright" unicode="&#xbb;" horiz-adv-x="962" 
d="M733 940l197 -418l-283 -393h-278l280 395l-180 416h264zM369 940l186 -412l-283 -399h-278l280 408l-170 403h265z" />
    <glyph glyph-name="onequarter" unicode="&#xbc;" horiz-adv-x="1765" 
d="M229 659l76 474l-182 -86l43 274l244 143h290l-129 -805h-342zM145 0l1266 1464h223l-1265 -1464h-224zM1202 0l23 143h-398l21 127l407 535h406l-70 -443h101l-35 -219h-101l-22 -143h-332zM1147 362h125l35 218z" />
    <glyph glyph-name="onehalf" unicode="&#xbd;" horiz-adv-x="1789" 
d="M229 659l76 474l-182 -86l43 274l244 143h290l-129 -805h-342zM119 0l1265 1464h224l-1266 -1464h-223zM911 0l9 41l305 272q42 37 61 54t55.5 53t53 61.5t16.5 44.5q0 45 -39 45q-55 0 -74 -94h-311q24 170 132.5 255t279.5 85q76 0 137 -13t110 -41t76 -78t27 -118
q0 -80 -54 -150.5t-163 -158.5l-23 -18h191l-39 -240h-750z" />
    <glyph glyph-name="threequarters" unicode="&#xbe;" horiz-adv-x="1863" 
d="M479 643q-178 0 -278 73t-101 224h299q0 -66 64 -66q22 0 38.5 13t16.5 41q0 43 -76 43h-61l29 180h75q74 0 74 53q0 43 -51 43q-56 0 -70 -61h-295q20 139 122.5 215t275.5 76q63 0 118.5 -10.5t107 -34t82 -69t30.5 -108.5q0 -146 -166 -192q139 -30 139 -160
t-105 -195t-268 -65zM270 0l1266 1464h223l-1265 -1464h-224zM1300 0l23 143h-397l20 127l408 535h405l-69 -443h100l-35 -219h-100l-23 -143h-332zM1245 362h125l35 218z" />
    <glyph glyph-name="questiondown" unicode="&#xbf;" horiz-adv-x="1210" 
d="M901 711l-4 -21q-13 -67 -49.5 -125.5t-81 -98t-93.5 -78t-89 -68t-66 -65.5t-26 -73q3 -63 69 -63q85 0 113 135h459q-16 -129 -71 -228.5t-140.5 -161t-192.5 -93t-231 -31.5q-254 0 -386 99.5t-132 283.5q0 80 27.5 147.5t70.5 112.5t98 88.5t105.5 75.5t98.5 74
t73 84l2 6h446zM731 1255q108 0 179 -68t71 -169t-74 -172.5t-182 -71.5t-181 70t-73 170t76 170.5t184 70.5z" />
    <glyph glyph-name="Agrave" unicode="&#xc0;" horiz-adv-x="1605" 
d="M948 0l-18 195h-414l-80 -195h-520l682 1464h702l218 -1464h-570zM805 1542l-182 318h464l62 -318h-344zM856 1026l-190 -467h231z" />
    <glyph glyph-name="Aacute" unicode="&#xc1;" horiz-adv-x="1605" 
d="M948 0l-18 195h-414l-80 -195h-520l682 1464h702l218 -1464h-570zM760 1542l127 318h469l-242 -318h-354zM856 1026l-190 -467h231z" />
    <glyph glyph-name="Acircumflex" unicode="&#xc2;" horiz-adv-x="1605" 
d="M948 0l-18 195h-414l-80 -195h-520l682 1464h702l218 -1464h-570zM510 1542l276 318h388l190 -318h-326l-82 90l-102 -90h-344zM856 1026l-190 -467h231z" />
    <glyph glyph-name="Atilde" unicode="&#xc3;" horiz-adv-x="1605" 
d="M948 0l-18 195h-414l-80 -195h-520l682 1464h702l218 -1464h-570zM1094 1536q-56 0 -105 15t-86 29.5t-61 14.5q-23 0 -40 -15t-22 -38h-252q28 178 111 265t195 87q67 0 147.5 -29.5t110.5 -29.5q47 0 63 53h252q-16 -91 -48 -160t-75 -110t-90.5 -61.5t-99.5 -20.5z
M856 1026l-190 -467h231z" />
    <glyph glyph-name="Adieresis" unicode="&#xc4;" horiz-adv-x="1605" 
d="M948 0l-18 195h-414l-80 -195h-520l682 1464h702l218 -1464h-570zM723 1520q-88 0 -148.5 58.5t-60.5 143.5t60.5 144t148.5 59t149.5 -59t61.5 -144t-61.5 -143.5t-149.5 -58.5zM1200 1520q-88 0 -147.5 58.5t-59.5 143.5t60 144t147 59q89 0 150 -59t61 -144
t-61 -143.5t-150 -58.5zM856 1026l-190 -467h231z" />
    <glyph glyph-name="Aring" unicode="&#xc5;" horiz-adv-x="1605" 
d="M948 0l-18 195h-414l-80 -195h-520l682 1464h702l218 -1464h-570zM958 1509q-106 0 -182 73.5t-76 176.5t76 176.5t182 73.5t182.5 -73.5t76.5 -176.5t-76.5 -176.5t-182.5 -73.5zM856 1026l-190 -467h231zM958 1663q39 0 64 27t25 69t-25 69t-64 27q-40 0 -64 -26.5
t-24 -69.5t24 -69.5t64 -26.5z" />
    <glyph glyph-name="AE" unicode="&#xc6;" horiz-adv-x="2107" 
d="M860 0l37 236h-332l-125 -236h-524l829 1464h1420l-66 -415h-532l-21 -125h416l-57 -373h-416l-23 -135h564l-66 -416h-1104zM997 1049l-243 -459h198l74 459h-29z" />
    <glyph glyph-name="Ccedilla" unicode="&#xc7;" horiz-adv-x="1595" 
d="M659 -475q-75 0 -136 19.5t-103 66t-47 113.5h205q8 -48 63 -48q24 0 42.5 15.5t18.5 46.5q0 53 -61 53q-37 0 -63 -22l-78 86l108 133q-257 43 -399.5 201t-142.5 429q0 257 97 452t288.5 306t453.5 111q325 0 505 -152.5t189 -453.5h-552q-6 182 -156 182
q-85 0 -144 -61t-84.5 -152.5t-27.5 -206.5q-1 -67 14 -118.5t57.5 -87.5t110.5 -36q164 0 205 183h543q-19 -153 -85.5 -271.5t-168.5 -192.5t-228.5 -111.5t-271.5 -37.5q-22 0 -49 2l-47 -57q95 6 156 -40t61 -130q0 -108 -78 -164.5t-195 -56.5z" />
    <glyph glyph-name="Egrave" unicode="&#xc8;" horiz-adv-x="1300" 
d="M33 0l231 1464h1094l-66 -415h-551l-20 -125h434l-57 -373h-434l-23 -135h582l-66 -416h-1124zM657 1542l-182 318h465l61 -318h-344z" />
    <glyph glyph-name="Eacute" unicode="&#xc9;" horiz-adv-x="1300" 
d="M33 0l231 1464h1094l-66 -415h-551l-20 -125h434l-57 -373h-434l-23 -135h582l-66 -416h-1124zM604 1542l127 318h469l-242 -318h-354z" />
    <glyph glyph-name="Ecircumflex" unicode="&#xca;" horiz-adv-x="1300" 
d="M33 0l231 1464h1094l-66 -415h-551l-20 -125h434l-57 -373h-434l-23 -135h582l-66 -416h-1124zM383 1542l276 318h388l190 -318h-326l-82 90l-102 -90h-344z" />
    <glyph glyph-name="Edieresis" unicode="&#xcb;" horiz-adv-x="1300" 
d="M33 0l231 1464h1094l-66 -415h-551l-20 -125h434l-57 -373h-434l-23 -135h582l-66 -416h-1124zM600 1520q-88 0 -148.5 58.5t-60.5 143.5t60.5 144t148.5 59t149.5 -59t61.5 -144t-61.5 -143.5t-149.5 -58.5zM1077 1520q-88 0 -147.5 58.5t-59.5 143.5t60 144t147 59
q89 0 150 -59t61 -144t-61 -143.5t-150 -58.5z" />
    <glyph glyph-name="Igrave" unicode="&#xcc;" horiz-adv-x="800" 
d="M39 0l231 1464h551l-231 -1464h-551zM397 1542l-182 318h465l61 -318h-344z" />
    <glyph glyph-name="Iacute" unicode="&#xcd;" horiz-adv-x="800" 
d="M39 0l231 1464h551l-231 -1464h-551zM344 1542l127 318h469l-242 -318h-354z" />
    <glyph glyph-name="Icircumflex" unicode="&#xce;" horiz-adv-x="800" 
d="M39 0l231 1464h551l-231 -1464h-551zM123 1542l276 318h387l191 -318h-326l-82 90l-102 -90h-344z" />
    <glyph glyph-name="Idieresis" unicode="&#xcf;" horiz-adv-x="800" 
d="M39 0l231 1464h551l-231 -1464h-551zM340 1520q-88 0 -148.5 58.5t-60.5 143.5t60.5 144t148.5 59t149.5 -59t61.5 -144t-61.5 -143.5t-149.5 -58.5zM817 1520q-88 0 -147.5 58.5t-59.5 143.5t60 144t147 59q89 0 150 -59t61 -144t-61 -143.5t-150 -58.5z" />
    <glyph glyph-name="Eth" unicode="&#xd0;" horiz-adv-x="1619" 
d="M57 557l56 358h100l88 549h535q377 0 576.5 -160.5t199.5 -461.5q0 -168 -42 -306.5t-118 -237t-183 -166t-237 -100t-280 -32.5h-682l88 557h-101zM668 412h90q141 0 215 103.5t74 301.5q0 236 -222 236h-55l-22 -138h153l-55 -358h-156z" />
    <glyph glyph-name="Ntilde" unicode="&#xd1;" horiz-adv-x="1648" 
d="M33 0l231 1464h602l221 -649l103 649h483l-231 -1464h-512l-291 768l-121 -768h-485zM1153 1536q-56 0 -105 15t-86 29.5t-61 14.5q-23 0 -39.5 -15t-21.5 -38h-252q28 178 110.5 265t194.5 87q67 0 147.5 -29.5t110.5 -29.5q47 0 63 53h252q-16 -91 -48 -160t-75 -110
t-90.5 -61.5t-99.5 -20.5z" />
    <glyph glyph-name="Ograve" unicode="&#xd2;" horiz-adv-x="1685" 
d="M631 629q0 -106 48 -169t157 -63q59 0 107 25t79 66.5t51.5 98t29.5 115t9 121.5q0 235 -201 240q-71 1 -126.5 -35.5t-88 -99.5t-49 -139t-16.5 -160zM793 -29q-146 0 -275 40t-231 116.5t-161.5 200t-59.5 278.5q0 261 108 461.5t303.5 310t450.5 109.5
q121 0 230.5 -23.5t205.5 -74t165.5 -124.5t109.5 -182t40 -239q0 -194 -62.5 -356.5t-176.5 -276t-280 -177t-367 -63.5zM795 1542l-183 318h465l62 -318h-344z" />
    <glyph glyph-name="Oacute" unicode="&#xd3;" horiz-adv-x="1685" 
d="M631 629q0 -106 48 -169t157 -63q59 0 107 25t79 66.5t51.5 98t29.5 115t9 121.5q0 235 -201 240q-71 1 -126.5 -35.5t-88 -99.5t-49 -139t-16.5 -160zM793 -29q-146 0 -275 40t-231 116.5t-161.5 200t-59.5 278.5q0 261 108 461.5t303.5 310t450.5 109.5
q121 0 230.5 -23.5t205.5 -74t165.5 -124.5t109.5 -182t40 -239q0 -194 -62.5 -356.5t-176.5 -276t-280 -177t-367 -63.5zM741 1542l127 318h469l-241 -318h-355z" />
    <glyph glyph-name="Ocircumflex" unicode="&#xd4;" horiz-adv-x="1685" 
d="M631 629q0 -106 48 -169t157 -63q59 0 107 25t79 66.5t51.5 98t29.5 115t9 121.5q0 235 -201 240q-71 1 -126.5 -35.5t-88 -99.5t-49 -139t-16.5 -160zM793 -29q-146 0 -275 40t-231 116.5t-161.5 200t-59.5 278.5q0 261 108 461.5t303.5 310t450.5 109.5
q121 0 230.5 -23.5t205.5 -74t165.5 -124.5t109.5 -182t40 -239q0 -194 -62.5 -356.5t-176.5 -276t-280 -177t-367 -63.5zM510 1542l276 318h388l190 -318h-326l-82 90l-102 -90h-344z" />
    <glyph glyph-name="Otilde" unicode="&#xd5;" horiz-adv-x="1685" 
d="M631 629q0 -106 48 -169t157 -63q59 0 107 25t79 66.5t51.5 98t29.5 115t9 121.5q0 235 -201 240q-71 1 -126.5 -35.5t-88 -99.5t-49 -139t-16.5 -160zM793 -29q-146 0 -275 40t-231 116.5t-161.5 200t-59.5 278.5q0 261 108 461.5t303.5 310t450.5 109.5
q121 0 230.5 -23.5t205.5 -74t165.5 -124.5t109.5 -182t40 -239q0 -194 -62.5 -356.5t-176.5 -276t-280 -177t-367 -63.5zM1085 1536q-56 0 -105 15t-85.5 29.5t-60.5 14.5q-23 0 -40 -15t-22 -38h-252q28 178 110.5 265t194.5 87q67 0 147.5 -29.5t110.5 -29.5q48 0 64 53
h252q-30 -176 -117.5 -264t-196.5 -88z" />
    <glyph glyph-name="Odieresis" unicode="&#xd6;" horiz-adv-x="1685" 
d="M631 629q0 -106 48 -169t157 -63q59 0 107 25t79 66.5t51.5 98t29.5 115t9 121.5q0 235 -201 240q-71 1 -126.5 -35.5t-88 -99.5t-49 -139t-16.5 -160zM793 -29q-146 0 -275 40t-231 116.5t-161.5 200t-59.5 278.5q0 261 108 461.5t303.5 310t450.5 109.5
q121 0 230.5 -23.5t205.5 -74t165.5 -124.5t109.5 -182t40 -239q0 -194 -62.5 -356.5t-176.5 -276t-280 -177t-367 -63.5zM737 1520q-88 0 -148.5 58.5t-60.5 143.5t60.5 144t148.5 59t149.5 -59t61.5 -144t-61.5 -143.5t-149.5 -58.5zM1214 1520q-87 0 -146.5 58.5
t-59.5 143.5t59.5 144t146.5 59q89 0 150 -59t61 -144t-61 -143.5t-150 -58.5z" />
    <glyph glyph-name="multiply" unicode="&#xd7;" horiz-adv-x="1275" 
d="M59 385l357 309l-266 316l274 243l270 -319l357 309l211 -244l-359 -311l268 -313l-276 -244l-270 318l-355 -308z" />
    <glyph glyph-name="Oslash" unicode="&#xd8;" horiz-adv-x="1685" 
d="M170 -70l-104 107l151 153q-151 164 -151 416q0 261 108 461.5t303.5 310t450.5 109.5q274 0 467 -115l147 148l105 -107l-134 -133q166 -169 166 -436q0 -194 -62.5 -356.5t-176.5 -276t-280 -177t-367 -63.5q-269 0 -459 123zM1130 825q0 28 -4 64l-446 -449
q55 -49 156 -49q75 0 133.5 37t92.5 100t51 138t17 159zM614 627q0 -25 2 -37l437 436q-52 40 -142 43q-96 2 -165 -62t-100.5 -162.5t-31.5 -217.5z" />
    <glyph glyph-name="Ugrave" unicode="&#xd9;" horiz-adv-x="1636" 
d="M801 -29q-369 0 -548.5 175t-125.5 511l129 807h545l-131 -823q-20 -122 11 -183t126 -61q50 0 82.5 14t51.5 47.5t28.5 67.5t19.5 95l133 843h549l-139 -884q-50 -321 -227 -465t-504 -144zM797 1542l-183 318h465l62 -318h-344z" />
    <glyph glyph-name="Uacute" unicode="&#xda;" horiz-adv-x="1636" 
d="M801 -29q-369 0 -548.5 175t-125.5 511l129 807h545l-131 -823q-20 -122 11 -183t126 -61q50 0 82.5 14t51.5 47.5t28.5 67.5t19.5 95l133 843h549l-139 -884q-50 -321 -227 -465t-504 -144zM780 1542l127 318h469l-241 -318h-355z" />
    <glyph glyph-name="Ucircumflex" unicode="&#xdb;" horiz-adv-x="1636" 
d="M801 -29q-369 0 -548.5 175t-125.5 511l129 807h545l-131 -823q-20 -122 11 -183t126 -61q50 0 82.5 14t51.5 47.5t28.5 67.5t19.5 95l133 843h549l-139 -884q-50 -321 -227 -465t-504 -144zM526 1542l277 318h387l190 -318h-325l-82 90l-103 -90h-344z" />
    <glyph glyph-name="Udieresis" unicode="&#xdc;" horiz-adv-x="1636" 
d="M801 -29q-369 0 -548.5 175t-125.5 511l129 807h545l-131 -823q-20 -122 11 -183t126 -61q50 0 82.5 14t51.5 47.5t28.5 67.5t19.5 95l133 843h549l-139 -884q-50 -321 -227 -465t-504 -144zM735 1520q-88 0 -148.5 58.5t-60.5 143.5t60.5 144t148.5 59t149.5 -59
t61.5 -144t-61.5 -143.5t-149.5 -58.5zM1212 1520q-87 0 -146.5 58.5t-59.5 143.5t59.5 144t146.5 59q89 0 150 -59t61 -144t-61 -143.5t-150 -58.5z" />
    <glyph glyph-name="Yacute" unicode="&#xdd;" horiz-adv-x="1478" 
d="M383 0l96 623l-336 841h566l120 -389l242 389h543l-588 -868l-94 -596h-549zM723 1542l127 318h469l-242 -318h-354z" />
    <glyph glyph-name="Thorn" unicode="&#xde;" horiz-adv-x="1409" 
d="M768 246h-152l-36 -246h-547l231 1464h543l-35 -225h51q291 0 439.5 -112t148.5 -322q0 -257 -169 -408t-474 -151zM762 864h-49l-39 -258h65q74 0 115 40t41 114q0 48 -33 76t-100 28z" />
    <glyph glyph-name="germandbls" unicode="&#xdf;" horiz-adv-x="1345" 
d="M758 -20q-118 0 -221 28l55 338q32 -14 74 -14q178 0 178 252q0 184 -189 174l47 297q152 3 152 127q0 45 -25 71.5t-71 26.5q-50 0 -79.5 -34.5t-41.5 -110.5l-178 -1135h-469l176 1106q20 129 72.5 221.5t133.5 145.5t179.5 77.5t222.5 24.5q242 0 380 -93t138 -272
q0 -117 -73.5 -195.5t-200.5 -111.5q131 -36 212 -135.5t81 -251.5q0 -247 -144.5 -391.5t-408.5 -144.5z" />
    <glyph glyph-name="agrave" unicode="&#xe0;" horiz-adv-x="1218" 
d="M539 274q50 0 84.5 29t40.5 72l8 39h-82q-73 0 -102 -18t-29 -56q0 -29 21.5 -47.5t58.5 -18.5zM1106 0h-455q-8 39 -8 133q-106 -162 -315 -162q-142 0 -239 78t-97 217q0 208 144 294.5t442 86.5h131l2 15q4 35 2 62.5t-23 44.5t-63 17q-83 0 -103 -92h-434
q40 201 179.5 305.5t379.5 104.5q297 0 425.5 -126t88.5 -378l-41 -260q-34 -205 -16 -340zM510 1163l-195 359h445l74 -359h-324z" />
    <glyph glyph-name="aacute" unicode="&#xe1;" horiz-adv-x="1218" 
d="M539 274q50 0 84.5 29t40.5 72l8 39h-82q-73 0 -102 -18t-29 -56q0 -29 21.5 -47.5t58.5 -18.5zM1106 0h-455q-8 39 -8 133q-106 -162 -315 -162q-142 0 -239 78t-97 217q0 208 144 294.5t442 86.5h131l2 15q4 35 2 62.5t-23 44.5t-63 17q-83 0 -103 -92h-434
q40 201 179.5 305.5t379.5 104.5q297 0 425.5 -126t88.5 -378l-41 -260q-34 -205 -16 -340zM524 1163l146 359h448l-260 -359h-334z" />
    <glyph glyph-name="acircumflex" unicode="&#xe2;" horiz-adv-x="1218" 
d="M539 274q50 0 84.5 29t40.5 72l8 39h-82q-73 0 -102 -18t-29 -56q0 -29 21.5 -47.5t58.5 -18.5zM1106 0h-455q-8 39 -8 133q-106 -162 -315 -162q-142 0 -239 78t-97 217q0 208 144 294.5t442 86.5h131l2 15q4 35 2 62.5t-23 44.5t-63 17q-83 0 -103 -92h-434
q40 201 179.5 305.5t379.5 104.5q297 0 425.5 -126t88.5 -378l-41 -260q-34 -205 -16 -340zM258 1169l311 353h318l209 -353h-312l-86 95l-110 -95h-330z" />
    <glyph glyph-name="atilde" unicode="&#xe3;" horiz-adv-x="1218" 
d="M539 274q50 0 84.5 29t40.5 72l8 39h-82q-73 0 -102 -18t-29 -56q0 -29 21.5 -47.5t58.5 -18.5zM1106 0h-455q-8 39 -8 133q-106 -162 -315 -162q-142 0 -239 78t-97 217q0 208 144 294.5t442 86.5h131l2 15q4 35 2 62.5t-23 44.5t-63 17q-83 0 -103 -92h-434
q40 201 179.5 305.5t379.5 104.5q297 0 425.5 -126t88.5 -378l-41 -260q-34 -205 -16 -340zM825 1167q-56 0 -103.5 15t-82.5 30t-59 15q-46 0 -60 -53h-237q27 182 101.5 271t182.5 89q67 0 145.5 -29.5t108.5 -29.5q44 0 60 53h237q-28 -179 -107.5 -270t-185.5 -91z" />
    <glyph glyph-name="adieresis" unicode="&#xe4;" horiz-adv-x="1218" 
d="M539 274q50 0 84.5 29t40.5 72l8 39h-82q-73 0 -102 -18t-29 -56q0 -29 21.5 -47.5t58.5 -18.5zM1106 0h-455q-8 39 -8 133q-106 -162 -315 -162q-142 0 -239 78t-97 217q0 208 144 294.5t442 86.5h131l2 15q4 35 2 62.5t-23 44.5t-63 17q-83 0 -103 -92h-434
q40 201 179.5 305.5t379.5 104.5q297 0 425.5 -126t88.5 -378l-41 -260q-34 -205 -16 -340zM461 1130q-88 0 -148.5 59t-60.5 144t60.5 144t148.5 59t149.5 -59t61.5 -144t-61.5 -144t-149.5 -59zM922 1130q-87 0 -147 59t-60 144t60 144t147 59q89 0 150 -59t61 -144
t-61 -144t-150 -59z" />
    <glyph glyph-name="aring" unicode="&#xe5;" horiz-adv-x="1218" 
d="M539 274q50 0 84.5 29t40.5 72l8 39h-82q-73 0 -102 -18t-29 -56q0 -29 21.5 -47.5t58.5 -18.5zM1106 0h-455q-8 39 -8 133q-106 -162 -315 -162q-142 0 -239 78t-97 217q0 208 144 294.5t442 86.5h131l2 15q4 35 2 62.5t-23 44.5t-63 17q-83 0 -103 -92h-434
q40 201 179.5 305.5t379.5 104.5q297 0 425.5 -126t88.5 -378l-41 -260q-34 -205 -16 -340zM678 1313q38 0 62 26.5t24 67.5t-24 67.5t-62 26.5t-62 -26.5t-24 -67.5t24 -67.5t62 -26.5zM678 1161q-104 0 -179 72.5t-75 173.5t75 173.5t179 72.5t179 -72.5t75 -173.5
t-75 -173.5t-179 -72.5z" />
    <glyph glyph-name="ae" unicode="&#xe6;" horiz-adv-x="1888" 
d="M645 1104q231 0 334 -103q150 103 332 103q185 0 314.5 -73.5t187 -215.5t28.5 -334l-6 -41h-721q2 -71 37.5 -118.5t114.5 -47.5q106 0 137 103h436q-35 -194 -188.5 -300t-395.5 -106q-324 0 -454 179q-112 -179 -400 -179q-183 0 -296 80t-113 225q0 200 147 287.5
t439 87.5h131l2 15q7 56 -10.5 88t-77.5 32q-51 0 -77 -28t-34 -64h-434q36 200 185.5 305t381.5 105zM1300 815q-116 0 -161 -158h284q5 70 -25.5 114t-97.5 44zM539 274q50 0 84.5 29.5t42.5 77.5l8 51h-82q-133 0 -133 -88q0 -33 21 -51.5t59 -18.5z" />
    <glyph glyph-name="ccedilla" unicode="&#xe7;" horiz-adv-x="1212" 
d="M483 -475q-75 0 -136 19.5t-103 66t-47 113.5h204q8 -48 64 -48q24 0 42.5 15.5t18.5 46.5q0 53 -61 53q-38 0 -64 -22l-77 86l110 135q-183 37 -292 157.5t-109 319.5q0 187 76 331t218.5 225t331.5 81q116 0 210 -27.5t167 -83.5t114.5 -148t45.5 -214h-438
q-5 58 -28.5 86t-78.5 28q-151 0 -151 -284q0 -74 26.5 -115t91.5 -41q115 0 138 135h418q-25 -227 -171 -347t-403 -120h-12l-49 -57q95 6 156 -40t61 -130q0 -108 -78 -164.5t-195 -56.5z" />
    <glyph glyph-name="egrave" unicode="&#xe8;" horiz-adv-x="1261" 
d="M1208 440h-721q2 -71 37.5 -118.5t114.5 -47.5q106 0 137 103h436q-35 -194 -188 -300t-395 -106q-98 0 -184.5 17t-163 55t-131 95t-86 142t-31.5 191q0 189 85 334t231.5 222t330.5 77q187 0 317.5 -73.5t188 -215.5t28.5 -334zM547 1163l-195 359h445l73 -359h-323z
M674 815q-117 0 -162 -158h285q5 70 -25.5 114t-97.5 44z" />
    <glyph glyph-name="eacute" unicode="&#xe9;" horiz-adv-x="1261" 
d="M1208 440h-721q2 -71 37.5 -118.5t114.5 -47.5q106 0 137 103h436q-35 -194 -188 -300t-395 -106q-98 0 -184.5 17t-163 55t-131 95t-86 142t-31.5 191q0 189 85 334t231.5 222t330.5 77q187 0 317.5 -73.5t188 -215.5t28.5 -334zM526 1163l146 359h448l-260 -359h-334z
M674 815q-117 0 -162 -158h285q5 70 -25.5 114t-97.5 44z" />
    <glyph glyph-name="ecircumflex" unicode="&#xea;" horiz-adv-x="1261" 
d="M1208 440h-721q2 -71 37.5 -118.5t114.5 -47.5q106 0 137 103h436q-35 -194 -188 -300t-395 -106q-98 0 -184.5 17t-163 55t-131 95t-86 142t-31.5 191q0 189 85 334t231.5 222t330.5 77q187 0 317.5 -73.5t188 -215.5t28.5 -334zM276 1169l312 353h317l209 -353h-311
l-86 95l-111 -95h-330zM674 815q-117 0 -162 -158h285q5 70 -25.5 114t-97.5 44z" />
    <glyph glyph-name="edieresis" unicode="&#xeb;" horiz-adv-x="1261" 
d="M1208 440h-721q2 -71 37.5 -118.5t114.5 -47.5q106 0 137 103h436q-35 -194 -188 -300t-395 -106q-98 0 -184.5 17t-163 55t-131 95t-86 142t-31.5 191q0 189 85 334t231.5 222t330.5 77q187 0 317.5 -73.5t188 -215.5t28.5 -334zM483 1130q-88 0 -148.5 59t-60.5 144
t60.5 144t148.5 59t149.5 -59t61.5 -144t-61.5 -144t-149.5 -59zM944 1130q-87 0 -147 59t-60 144t60 144t147 59q89 0 150 -59t61 -144t-61 -144t-150 -59zM674 815q-117 0 -162 -158h285q5 70 -25.5 114t-97.5 44z" />
    <glyph glyph-name="igrave" unicode="&#xec;" horiz-adv-x="647" 
d="M4 0l168 1071h467l-168 -1071h-467zM270 1163l-194 359h444l74 -359h-324z" />
    <glyph glyph-name="iacute" unicode="&#xed;" horiz-adv-x="647" 
d="M4 0l168 1071h467l-168 -1071h-467zM238 1163l145 359h448l-260 -359h-333z" />
    <glyph glyph-name="icircumflex" unicode="&#xee;" horiz-adv-x="647" 
d="M4 0l168 1071h467l-168 -1071h-467zM4 1169l311 353h318l209 -353h-312l-86 95l-110 -95h-330z" />
    <glyph glyph-name="idieresis" unicode="&#xef;" horiz-adv-x="647" 
d="M221 1130q-88 0 -148.5 59t-60.5 144t60.5 144t148.5 59t149.5 -59t61.5 -144t-61.5 -144t-149.5 -59zM682 1130q-87 0 -147 59t-60 144t60 144t147 59q89 0 150 -59t61 -144t-61 -144t-150 -59zM4 0l168 1071h467l-168 -1071h-467z" />
    <glyph glyph-name="eth" unicode="&#xf0;" horiz-adv-x="1300" 
d="M279 1139l-31 125l244 69q-116 107 -222 189h543q59 -38 98 -70l240 68l29 -127l-160 -45q252 -283 252 -643q0 -156 -39.5 -286.5t-117 -232t-205 -158.5t-292.5 -57q-126 0 -230.5 31t-184 92t-124 160.5t-44.5 228.5q0 166 61 301t181.5 216t279.5 81q139 0 213 -92
q-57 111 -174 238zM500 459q0 -148 129 -148q47 0 82 29t52.5 77t25.5 98.5t8 105.5q0 141 -127 141q-87 0 -128.5 -84t-41.5 -219z" />
    <glyph glyph-name="ntilde" unicode="&#xf1;" horiz-adv-x="1300" 
d="M-10 0l110 705q38 240 43 366h461q0 -108 -12 -199q63 105 156 168.5t215 63.5q75 0 134 -26t102.5 -81t57 -142t-3.5 -208l-102 -647h-469l92 588q21 143 -88 143q-62 0 -93.5 -36.5t-43.5 -119.5l-90 -575h-469zM870 1167q-56 0 -103.5 15t-82.5 30t-59 15
q-46 0 -60 -53h-237q27 182 101.5 271t182.5 89q67 0 145.5 -29.5t108.5 -29.5q44 0 60 53h237q-28 -179 -107.5 -270t-185.5 -91z" />
    <glyph glyph-name="ograve" unicode="&#xf2;" horiz-adv-x="1288" 
d="M500 463q0 -152 121 -152q86 0 126.5 85t40.5 227q0 60 -27.5 99.5t-86.5 39.5q-89 0 -131.5 -81t-42.5 -218zM614 -29q-112 0 -212 28t-183.5 85t-133 155.5t-50.5 227.5q-1 183 79 328t227 227t337 82q89 0 171 -17.5t157 -57t130 -97t88 -143.5t33 -191
q0 -281 -178.5 -454t-464.5 -173zM545 1163l-195 359h445l73 -359h-323z" />
    <glyph glyph-name="oacute" unicode="&#xf3;" horiz-adv-x="1288" 
d="M500 463q0 -152 121 -152q86 0 126.5 85t40.5 227q0 60 -27.5 99.5t-86.5 39.5q-89 0 -131.5 -81t-42.5 -218zM614 -29q-112 0 -212 28t-183.5 85t-133 155.5t-50.5 227.5q-1 183 79 328t227 227t337 82q89 0 171 -17.5t157 -57t130 -97t88 -143.5t33 -191
q0 -281 -178.5 -454t-464.5 -173zM512 1163l145 359h449l-260 -359h-334z" />
    <glyph glyph-name="ocircumflex" unicode="&#xf4;" horiz-adv-x="1288" 
d="M500 463q0 -152 121 -152q86 0 126.5 85t40.5 227q0 60 -27.5 99.5t-86.5 39.5q-89 0 -131.5 -81t-42.5 -218zM614 -29q-112 0 -212 28t-183.5 85t-133 155.5t-50.5 227.5q-1 183 79 328t227 227t337 82q89 0 171 -17.5t157 -57t130 -97t88 -143.5t33 -191
q0 -281 -178.5 -454t-464.5 -173zM279 1169l311 353h317l209 -353h-311l-86 95l-111 -95h-329z" />
    <glyph glyph-name="otilde" unicode="&#xf5;" horiz-adv-x="1288" 
d="M500 463q0 -152 121 -152q86 0 126.5 85t40.5 227q0 60 -27.5 99.5t-86.5 39.5q-89 0 -131.5 -81t-42.5 -218zM614 -29q-112 0 -212 28t-183.5 85t-133 155.5t-50.5 227.5q-1 183 79 328t227 227t337 82q89 0 171 -17.5t157 -57t130 -97t88 -143.5t33 -191
q0 -281 -178.5 -454t-464.5 -173zM850 1167q-56 0 -103.5 15t-83 30t-59.5 15q-45 0 -59 -53h-238q27 181 102 270.5t183 89.5q67 0 145.5 -29.5t108.5 -29.5q25 0 38 13t21 40h238q-28 -179 -107.5 -270t-185.5 -91z" />
    <glyph glyph-name="odieresis" unicode="&#xf6;" horiz-adv-x="1288" 
d="M500 463q0 -152 121 -152q86 0 126.5 85t40.5 227q0 60 -27.5 99.5t-86.5 39.5q-89 0 -131.5 -81t-42.5 -218zM614 -29q-112 0 -212 28t-183.5 85t-133 155.5t-50.5 227.5q-1 183 79 328t227 227t337 82q89 0 171 -17.5t157 -57t130 -97t88 -143.5t33 -191
q0 -281 -178.5 -454t-464.5 -173zM496 1130q-88 0 -148.5 59t-60.5 144t60.5 144t148.5 59t149.5 -59t61.5 -144t-61.5 -144t-149.5 -59zM956 1130q-87 0 -146.5 59t-59.5 144t59.5 144t146.5 59q89 0 150 -59t61 -144t-61 -144t-150 -59z" />
    <glyph glyph-name="divide" unicode="&#xf7;" 
d="M76 539l49 311h1073l-49 -311h-1073zM586 39q-97 0 -160.5 63t-63.5 156q0 92 63 155.5t159 63.5q99 0 165 -63.5t66 -155.5q0 -93 -65 -156t-164 -63zM684 911q-97 0 -160 63t-63 156q0 92 63 156t158 64q99 0 165 -64t66 -156q0 -93 -65 -156t-164 -63z" />
    <glyph glyph-name="oslash" unicode="&#xf8;" horiz-adv-x="1288" 
d="M121 -82l-92 90l129 131q-123 126 -123 332q-1 183 79 327t227 225t337 81q195 0 342 -84l137 141l94 -90l-127 -129q133 -136 133 -348q0 -280 -178 -451.5t-465 -171.5q-209 0 -356 88zM623 301q91 0 138.5 88.5t47.5 228.5l-283 -286q34 -31 97 -31zM676 770
q-95 0 -145 -82t-50 -219l273 279q-31 22 -78 22z" />
    <glyph glyph-name="ugrave" unicode="&#xf9;" horiz-adv-x="1306" 
d="M1307 1071l-115 -731q-35 -213 -27 -340h-460q-5 53 0 193q-138 -222 -367 -222q-74 0 -133 25t-103 80t-58 140.5t3 207.5l103 647h468l-98 -616q-21 -144 86 -144q61 0 92 36.5t43 119.5l97 604h469zM569 1163l-194 359h444l74 -359h-324z" />
    <glyph glyph-name="uacute" unicode="&#xfa;" horiz-adv-x="1306" 
d="M1307 1071l-115 -731q-35 -213 -27 -340h-460q-5 53 0 193q-138 -222 -367 -222q-74 0 -133 25t-103 80t-58 140.5t3 207.5l103 647h468l-98 -616q-21 -144 86 -144q61 0 92 36.5t43 119.5l97 604h469zM569 1163l146 359h448l-260 -359h-334z" />
    <glyph glyph-name="ucircumflex" unicode="&#xfb;" horiz-adv-x="1306" 
d="M1307 1071l-115 -731q-35 -213 -27 -340h-460q-5 53 0 193q-138 -222 -367 -222q-74 0 -133 25t-103 80t-58 140.5t3 207.5l103 647h468l-98 -616q-21 -144 86 -144q61 0 92 36.5t43 119.5l97 604h469zM301 1169l311 353h318l209 -353h-312l-86 95l-110 -95h-330z" />
    <glyph glyph-name="udieresis" unicode="&#xfc;" horiz-adv-x="1306" 
d="M1307 1071l-115 -731q-35 -213 -27 -340h-460q-5 53 0 193q-138 -222 -367 -222q-74 0 -133 25t-103 80t-58 140.5t3 207.5l103 647h468l-98 -616q-21 -144 86 -144q61 0 92 36.5t43 119.5l97 604h469zM512 1130q-88 0 -148.5 59t-60.5 144t60.5 144t148.5 59t149.5 -59
t61.5 -144t-61.5 -144t-149.5 -59zM973 1130q-87 0 -147 59t-60 144t60 144t147 59q89 0 150 -59t61 -144t-61 -144t-150 -59z" />
    <glyph glyph-name="yacute" unicode="&#xfd;" horiz-adv-x="1257" 
d="M96 -352l248 473l-264 950h487l88 -475l226 475h460l-782 -1423h-463zM565 1163l146 359h448l-260 -359h-334z" />
    <glyph glyph-name="thorn" unicode="&#xfe;" horiz-adv-x="1333" 
d="M401 -352h-469l297 1874h469l-96 -611q115 193 352 193q73 0 135.5 -28.5t111 -83.5t76.5 -144t28 -203q0 -162 -39.5 -292t-108.5 -212.5t-161 -126t-199 -43.5q-113 0 -199.5 52.5t-112.5 142.5zM645 319q78 0 129 80t51 211q0 154 -120 154q-78 0 -127.5 -83.5
t-49.5 -205.5q0 -156 117 -156z" />
    <glyph glyph-name="ydieresis" unicode="&#xff;" horiz-adv-x="1257" 
d="M96 -352l248 473l-264 950h487l88 -475l226 475h460l-782 -1423h-463zM522 1130q-88 0 -148.5 59t-60.5 144t60.5 144t148.5 59t149.5 -59t61.5 -144t-61.5 -144t-149.5 -59zM983 1130q-87 0 -147 59t-60 144t60 144t147 59q89 0 150 -59t61 -144t-61 -144t-150 -59z" />
    <glyph glyph-name="Amacron" unicode="&#x100;" horiz-adv-x="1605" 
d="M948 0l-18 195h-414l-80 -195h-520l682 1464h702l218 -1464h-570zM598 1565l41 264h719l-41 -264h-719zM856 1026l-190 -467h231z" />
    <glyph glyph-name="amacron" unicode="&#x101;" horiz-adv-x="1218" 
d="M539 274q50 0 84.5 29t40.5 72l8 39h-82q-73 0 -102 -18t-29 -56q0 -29 21.5 -47.5t58.5 -18.5zM1106 0h-455q-8 39 -8 133q-106 -162 -315 -162q-142 0 -239 78t-97 217q0 208 144 294.5t442 86.5h131l2 15q4 35 2 62.5t-23 44.5t-63 17q-83 0 -103 -92h-434
q40 201 179.5 305.5t379.5 104.5q297 0 425.5 -126t88.5 -378l-41 -260q-34 -205 -16 -340zM346 1214l39 244h678l-39 -244h-678z" />
    <glyph glyph-name="Abreve" unicode="&#x102;" horiz-adv-x="1605" 
d="M948 0l-18 195h-414l-80 -195h-520l682 1464h702l218 -1464h-570zM973 1524q-179 0 -271 88.5t-94 247.5h287q2 -34 23 -54t59 -20q34 0 57 19t29 55h291q-28 -163 -127 -249.5t-254 -86.5zM856 1026l-190 -467h231z" />
    <glyph glyph-name="abreve" unicode="&#x103;" horiz-adv-x="1218" 
d="M539 274q50 0 84.5 29t40.5 72l8 39h-82q-73 0 -102 -18t-29 -56q0 -29 21.5 -47.5t58.5 -18.5zM1106 0h-455q-8 39 -8 133q-106 -162 -315 -162q-142 0 -239 78t-97 217q0 208 144 294.5t442 86.5h131l2 15q4 35 2 62.5t-23 44.5t-63 17q-83 0 -103 -92h-434
q40 201 179.5 305.5t379.5 104.5q297 0 425.5 -126t88.5 -378l-41 -260q-34 -205 -16 -340zM717 1171q-173 0 -268 92.5t-89 260.5h273q3 -82 88 -82q40 0 66 22t30 60h277q-25 -173 -122 -263t-255 -90z" />
    <glyph glyph-name="Aogonek" unicode="&#x104;" horiz-adv-x="1605" 
d="M948 0l-18 195h-414l-80 -195h-520l682 1464h702l213 -1435q-112 -75 -112 -142q0 -41 51 -41q17 0 37 4l-31 -190q-76 -33 -178 -33q-49 0 -90.5 7.5t-78 25t-57 50t-20.5 77.5q0 78 62 132.5t145 80.5h-293zM856 1026l-190 -467h231z" />
    <glyph glyph-name="aogonek" unicode="&#x105;" horiz-adv-x="1218" 
d="M539 274q50 0 84.5 29t40.5 72l8 39h-82q-73 0 -102 -18t-29 -56q0 -29 21.5 -47.5t58.5 -18.5zM1163 600l-41 -260q-33 -191 -18 -324q-80 -73 -80 -129q0 -41 51 -41q17 0 37 4l-31 -190q-76 -33 -178 -33q-49 0 -90.5 7.5t-78 25t-57 50t-20.5 77.5q0 78 62 132.5
t145 80.5h-213q-8 39 -8 133q-106 -162 -315 -162q-142 0 -239 78t-97 217q0 208 144 294.5t442 86.5h131l2 15q4 35 2 62.5t-23 44.5t-63 17q-83 0 -103 -92h-434q40 201 179.5 305.5t379.5 104.5q297 0 425.5 -126t88.5 -378z" />
    <glyph glyph-name="Cacute" unicode="&#x106;" horiz-adv-x="1595" 
d="M811 -29q-169 0 -305 39.5t-234.5 118.5t-152 203t-53.5 286q0 257 97 452t288.5 306t453.5 111q325 0 505 -152.5t189 -453.5h-552q-6 182 -156 182q-85 0 -144 -61t-84.5 -152.5t-27.5 -206.5q-1 -67 14 -118.5t57.5 -87.5t110.5 -36q164 0 205 183h543
q-19 -153 -85.5 -271.5t-168.5 -192.5t-228.5 -111.5t-271.5 -37.5zM711 1542l127 318h469l-242 -318h-354z" />
    <glyph glyph-name="cacute" unicode="&#x107;" horiz-adv-x="1212" 
d="M600 -27q-119 0 -220 30.5t-179.5 89.5t-123 155t-44.5 219q0 187 76 331t218.5 225t331.5 81q116 0 210 -27.5t167 -83.5t114.5 -148t45.5 -214h-438q-5 58 -28.5 86t-78.5 28q-151 0 -151 -284q0 -74 26.5 -115t91.5 -41q115 0 138 135h418q-25 -227 -171 -347
t-403 -120zM489 1163l146 359h448l-260 -359h-334z" />
    <glyph glyph-name="Ccircumflex" unicode="&#x108;" horiz-adv-x="1595" 
d="M811 -29q-169 0 -305 39.5t-234.5 118.5t-152 203t-53.5 286q0 257 97 452t288.5 306t453.5 111q325 0 505 -152.5t189 -453.5h-552q-6 182 -156 182q-85 0 -144 -61t-84.5 -152.5t-27.5 -206.5q-1 -67 14 -118.5t57.5 -87.5t110.5 -36q164 0 205 183h543
q-19 -153 -85.5 -271.5t-168.5 -192.5t-228.5 -111.5t-271.5 -37.5zM489 1542l277 318h387l190 -318h-325l-82 90l-102 -90h-345z" />
    <glyph glyph-name="ccircumflex" unicode="&#x109;" horiz-adv-x="1212" 
d="M600 -27q-119 0 -220 30.5t-179.5 89.5t-123 155t-44.5 219q0 187 76 331t218.5 225t331.5 81q116 0 210 -27.5t167 -83.5t114.5 -148t45.5 -214h-438q-5 58 -28.5 86t-78.5 28q-151 0 -151 -284q0 -74 26.5 -115t91.5 -41q115 0 138 135h418q-25 -227 -171 -347
t-403 -120zM248 1169l311 353h318l208 -353h-311l-86 95l-110 -95h-330z" />
    <glyph glyph-name="Cdotaccent" unicode="&#x10a;" horiz-adv-x="1595" 
d="M811 -29q-169 0 -305 39.5t-234.5 118.5t-152 203t-53.5 286q0 257 97 452t288.5 306t453.5 111q325 0 505 -152.5t189 -453.5h-552q-6 182 -156 182q-85 0 -144 -61t-84.5 -152.5t-27.5 -206.5q-1 -67 14 -118.5t57.5 -87.5t110.5 -36q164 0 205 183h543
q-19 -153 -85.5 -271.5t-168.5 -192.5t-228.5 -111.5t-271.5 -37.5zM928 1520q-103 0 -170.5 61t-67.5 156t68 157t170 62t170.5 -62t68.5 -157q0 -94 -68.5 -155.5t-170.5 -61.5z" />
    <glyph glyph-name="cdotaccent" unicode="&#x10b;" horiz-adv-x="1212" 
d="M600 -27q-119 0 -220 30.5t-179.5 89.5t-123 155t-44.5 219q0 187 76 331t218.5 225t331.5 81q116 0 210 -27.5t167 -83.5t114.5 -148t45.5 -214h-438q-5 58 -28.5 86t-78.5 28q-151 0 -151 -284q0 -74 26.5 -115t91.5 -41q115 0 138 135h418q-25 -227 -171 -347
t-403 -120zM682 1128q-103 0 -170.5 61.5t-67.5 156.5t68 157t170 62t171 -62t69 -157q0 -94 -69 -156t-171 -62z" />
    <glyph glyph-name="Ccaron" unicode="&#x10c;" horiz-adv-x="1595" 
d="M811 -29q-169 0 -305 39.5t-234.5 118.5t-152 203t-53.5 286q0 257 97 452t288.5 306t453.5 111q325 0 505 -152.5t189 -453.5h-552q-6 182 -156 182q-85 0 -144 -61t-84.5 -152.5t-27.5 -206.5q-1 -67 14 -118.5t57.5 -87.5t110.5 -36q164 0 205 183h543
q-19 -153 -85.5 -271.5t-168.5 -192.5t-228.5 -111.5t-271.5 -37.5zM1382 1860l-276 -318h-387l-191 318h326l82 -91l102 91h344z" />
    <glyph glyph-name="ccaron" unicode="&#x10d;" horiz-adv-x="1212" 
d="M600 -27q-119 0 -220 30.5t-179.5 89.5t-123 155t-44.5 219q0 187 76 331t218.5 225t331.5 81q116 0 210 -27.5t167 -83.5t114.5 -148t45.5 -214h-438q-5 58 -28.5 86t-78.5 28q-151 0 -151 -284q0 -74 26.5 -115t91.5 -41q115 0 138 135h418q-25 -227 -171 -347
t-403 -120zM1128 1522l-311 -353h-317l-209 353h311l86 -95l111 95h329z" />
    <glyph glyph-name="Dcaron" unicode="&#x10e;" horiz-adv-x="1583" 
d="M33 0l231 1464h535q377 0 576.5 -160.5t199.5 -461.5q0 -168 -42 -306.5t-118 -237t-183 -166t-237 -100t-280 -32.5h-682zM643 412h78q141 0 215 103.5t74 301.5q0 236 -222 236h-43zM1327 1860l-276 -318h-387l-191 318h326l82 -91l102 91h344z" />
    <glyph glyph-name="dcaron" unicode="&#x10f;" horiz-adv-x="1333" 
d="M1411 1522l-186 -1182q-34 -208 -23 -340h-465q-10 41 -10 172q-120 -201 -340 -201q-166 0 -264 116t-98 343q0 162 41 292t112.5 212.5t166.5 126t206 43.5q103 0 185.5 -50.5t109.5 -135.5l96 604h469zM684 764q-78 0 -129 -80t-51 -211q0 -158 119 -158q78 0 128 85
t50 208q0 156 -117 156zM1417 1165l70 357h313l-158 -357h-225z" />
    <glyph glyph-name="Dcroat" unicode="&#x110;" horiz-adv-x="1619" 
d="M57 557l56 358h100l88 549h535q377 0 576.5 -160.5t199.5 -461.5q0 -168 -42 -306.5t-118 -237t-183 -166t-237 -100t-280 -32.5h-682l88 557h-101zM668 412h90q141 0 215 103.5t74 301.5q0 236 -222 236h-55l-22 -138h153l-55 -358h-156z" />
    <glyph glyph-name="dcroat" unicode="&#x111;" horiz-adv-x="1333" 
d="M1411 1522l-18 -117h96l-37 -234h-96l-131 -831q-34 -208 -23 -340h-465q-10 41 -10 172q-120 -201 -340 -201q-166 0 -264 116t-98 343q0 162 41 292t112.5 212.5t166.5 126t206 43.5q103 0 185.5 -50.5t109.5 -135.5l41 253h-293l37 234h293l18 117h469zM684 764
q-78 0 -129 -80t-51 -211q0 -158 119 -158q78 0 128 85t50 208q0 156 -117 156z" />
    <glyph glyph-name="Emacron" unicode="&#x112;" horiz-adv-x="1300" 
d="M33 0l231 1464h1094l-66 -415h-551l-20 -125h434l-57 -373h-434l-23 -135h582l-66 -416h-1124zM459 1565l41 264h719l-41 -264h-719z" />
    <glyph glyph-name="emacron" unicode="&#x113;" horiz-adv-x="1261" 
d="M1208 440h-721q2 -71 37.5 -118.5t114.5 -47.5q106 0 137 103h436q-35 -194 -188 -300t-395 -106q-98 0 -184.5 17t-163 55t-131 95t-86 142t-31.5 191q0 189 85 334t231.5 222t330.5 77q187 0 317.5 -73.5t188 -215.5t28.5 -334zM367 1214l39 244h677l-39 -244h-677z
M674 815q-117 0 -162 -158h285q5 70 -25.5 114t-97.5 44z" />
    <glyph glyph-name="Ebreve" unicode="&#x114;" horiz-adv-x="1300" 
d="M33 0l231 1464h1094l-66 -415h-551l-20 -125h434l-57 -373h-434l-23 -135h582l-66 -416h-1124zM834 1524q-179 0 -271 88.5t-94 247.5h287q2 -34 23 -54t59 -20q34 0 57 19t29 55h290q-28 -163 -126.5 -249.5t-253.5 -86.5z" />
    <glyph glyph-name="ebreve" unicode="&#x115;" horiz-adv-x="1261" 
d="M1208 440h-721q2 -71 37.5 -118.5t114.5 -47.5q106 0 137 103h436q-35 -194 -188 -300t-395 -106q-98 0 -184.5 17t-163 55t-131 95t-86 142t-31.5 191q0 189 85 334t231.5 222t330.5 77q187 0 317.5 -73.5t188 -215.5t28.5 -334zM719 1167q-173 0 -268 92.5t-89 260.5
h273q3 -82 88 -82q40 0 66 22t30 60h277q-25 -173 -122 -263t-255 -90zM674 815q-117 0 -162 -158h285q5 70 -25.5 114t-97.5 44z" />
    <glyph glyph-name="Edotaccent" unicode="&#x116;" horiz-adv-x="1300" 
d="M33 0l231 1464h1094l-66 -415h-551l-20 -125h434l-57 -373h-434l-23 -135h582l-66 -416h-1124zM821 1520q-103 0 -170 61t-67 156t67.5 157t169.5 62t171 -62t69 -157q0 -94 -69 -155.5t-171 -61.5z" />
    <glyph glyph-name="edotaccent" unicode="&#x117;" horiz-adv-x="1261" 
d="M1208 440h-721q2 -71 37.5 -118.5t114.5 -47.5q106 0 137 103h436q-35 -194 -188 -300t-395 -106q-98 0 -184.5 17t-163 55t-131 95t-86 142t-31.5 191q0 189 85 334t231.5 222t330.5 77q187 0 317.5 -73.5t188 -215.5t28.5 -334zM700 1128q-103 0 -170 61.5t-67 156.5
t67.5 157t169.5 62t171 -62t69 -157q0 -94 -69 -156t-171 -62zM674 815q-117 0 -162 -158h285q5 70 -25.5 114t-97.5 44z" />
    <glyph glyph-name="Eogonek" unicode="&#x118;" horiz-adv-x="1300" 
d="M33 0l231 1464h1094l-66 -415h-551l-20 -125h434l-57 -373h-434l-23 -135h582l-66 -416h-82q-76 -61 -76 -113q0 -41 52 -41q16 0 36 4l-30 -190q-76 -33 -178 -33q-49 0 -90.5 7.5t-78 25t-57 50t-20.5 77.5q0 78 62 132.5t145 80.5h-807z" />
    <glyph glyph-name="eogonek" unicode="&#x119;" horiz-adv-x="1261" 
d="M680 1104q187 0 317.5 -73.5t188 -215.5t28.5 -334l-6 -41h-721q2 -71 37.5 -118.5t114.5 -47.5q106 0 137 103h436q-36 -186 -184 -299q-11 -8 -50.5 -34.5t-66 -46t-50 -50.5t-23.5 -60q0 -41 51 -41q17 0 37 4l-31 -190q-76 -33 -178 -33q-49 0 -91 7.5t-78 24
t-56.5 47.5t-20.5 73q0 39 15 71t43 55t55.5 38t62.5 28h-18q-98 0 -184.5 17t-163 55t-131 95t-86 142t-31.5 191q0 188 85.5 333.5t232.5 222.5t329 77zM674 815q-117 0 -162 -158h285q5 70 -25.5 114t-97.5 44z" />
    <glyph glyph-name="Ecaron" unicode="&#x11a;" horiz-adv-x="1300" 
d="M33 0l231 1464h1094l-66 -415h-551l-20 -125h434l-57 -373h-434l-23 -135h582l-66 -416h-1124zM1276 1860l-277 -318h-387l-190 318h326l81 -91l103 91h344z" />
    <glyph glyph-name="ecaron" unicode="&#x11b;" horiz-adv-x="1261" 
d="M1208 440h-721q2 -71 37.5 -118.5t114.5 -47.5q106 0 137 103h436q-35 -194 -188 -300t-395 -106q-98 0 -184.5 17t-163 55t-131 95t-86 142t-31.5 191q0 189 85 334t231.5 222t330.5 77q187 0 317.5 -73.5t188 -215.5t28.5 -334zM1151 1522l-311 -353h-318l-209 353h312
l86 -95l110 95h330zM674 815q-117 0 -162 -158h285q5 70 -25.5 114t-97.5 44z" />
    <glyph glyph-name="Gcircumflex" unicode="&#x11c;" horiz-adv-x="1632" 
d="M823 -29q-169 0 -306 39.5t-238.5 118.5t-157 204.5t-55.5 289.5q0 250 109 447t305 307t446 110q114 0 213 -19.5t187 -63t151.5 -109.5t102.5 -164.5t44 -221.5h-541q-6 75 -45 112.5t-131 37.5q-90 0 -154.5 -63t-94 -158t-29.5 -209q0 -123 54.5 -184.5t176.5 -61.5
q162 0 201 119h-201l53 332h723q-18 -229 -66.5 -385.5t-143 -266.5t-242.5 -160.5t-361 -50.5zM481 1542l277 318h387l190 -318h-325l-82 90l-103 -90h-344z" />
    <glyph glyph-name="gcircumflex" unicode="&#x11d;" horiz-adv-x="1327" 
d="M549 -399q-294 0 -442 115t-154 309h463q4 -44 34.5 -76.5t96.5 -32.5q44 0 74 11t46.5 33t24.5 45.5t13 57.5l30 193q-111 -176 -327 -176q-78 0 -145 26t-119 77.5t-81.5 134.5t-29.5 190q0 270 145 433t369 163q226 0 293 -189l24 156h469l-159 -1005
q-39 -241 -186 -353t-439 -112zM627 391q85 0 128.5 69.5t43.5 170.5q-2 61 -30.5 100t-82.5 39q-84 0 -128 -68.5t-44 -160.5q0 -69 28.5 -109.5t84.5 -40.5zM317 1169l312 353h317l209 -353h-311l-86 95l-111 -95h-330z" />
    <glyph glyph-name="Gbreve" unicode="&#x11e;" horiz-adv-x="1632" 
d="M823 -29q-169 0 -306 39.5t-238.5 118.5t-157 204.5t-55.5 289.5q0 250 109 447t305 307t446 110q114 0 213 -19.5t187 -63t151.5 -109.5t102.5 -164.5t44 -221.5h-541q-6 75 -45 112.5t-131 37.5q-90 0 -154.5 -63t-94 -158t-29.5 -209q0 -123 54.5 -184.5t176.5 -61.5
q162 0 201 119h-201l53 332h723q-18 -229 -66.5 -385.5t-143 -266.5t-242.5 -160.5t-361 -50.5zM932 1524q-179 0 -271 88.5t-94 247.5h287q2 -34 23 -54t59 -20q34 0 57 19t29 55h291q-28 -163 -127 -249.5t-254 -86.5z" />
    <glyph glyph-name="gbreve" unicode="&#x11f;" horiz-adv-x="1327" 
d="M549 -399q-294 0 -442 115t-154 309h463q4 -44 34.5 -76.5t96.5 -32.5q44 0 74 11t46.5 33t24.5 45.5t13 57.5l30 193q-111 -176 -327 -176q-78 0 -145 26t-119 77.5t-81.5 134.5t-29.5 190q0 270 145 433t369 163q226 0 293 -189l24 156h469l-159 -1005
q-39 -241 -186 -353t-439 -112zM627 391q85 0 128.5 69.5t43.5 170.5q-2 61 -30.5 100t-82.5 39q-84 0 -128 -68.5t-44 -160.5q0 -69 28.5 -109.5t84.5 -40.5zM750 1167q-173 0 -268 92.5t-89 260.5h273q3 -82 88 -82q40 0 66 22t30 60h276q-25 -174 -121.5 -263.5
t-254.5 -89.5z" />
    <glyph glyph-name="Gdotaccent" unicode="&#x120;" horiz-adv-x="1632" 
d="M823 -29q-169 0 -306 39.5t-238.5 118.5t-157 204.5t-55.5 289.5q0 250 109 447t305 307t446 110q114 0 213 -19.5t187 -63t151.5 -109.5t102.5 -164.5t44 -221.5h-541q-6 75 -45 112.5t-131 37.5q-90 0 -154.5 -63t-94 -158t-29.5 -209q0 -123 54.5 -184.5t176.5 -61.5
q162 0 201 119h-201l53 332h723q-18 -229 -66.5 -385.5t-143 -266.5t-242.5 -160.5t-361 -50.5zM920 1520q-103 0 -170.5 61t-67.5 156t68 157t170 62t170.5 -62t68.5 -157q0 -94 -68.5 -155.5t-170.5 -61.5z" />
    <glyph glyph-name="gdotaccent" unicode="&#x121;" horiz-adv-x="1327" 
d="M549 -399q-294 0 -442 115t-154 309h463q4 -44 34.5 -76.5t96.5 -32.5q44 0 74 11t46.5 33t24.5 45.5t13 57.5l30 193q-111 -176 -327 -176q-78 0 -145 26t-119 77.5t-81.5 134.5t-29.5 190q0 270 145 433t369 163q226 0 293 -189l24 156h469l-159 -1005
q-39 -241 -186 -353t-439 -112zM627 391q85 0 128.5 69.5t43.5 170.5q-2 61 -30.5 100t-82.5 39q-84 0 -128 -68.5t-44 -160.5q0 -69 28.5 -109.5t84.5 -40.5zM725 1128q-103 0 -170.5 61.5t-67.5 156.5t68 157t170 62t171 -62t69 -157q0 -94 -69 -156t-171 -62z" />
    <glyph glyph-name="Gcommaaccent" unicode="&#x122;" horiz-adv-x="1632" 
d="M823 -29q-169 0 -306 39.5t-238.5 118.5t-157 204.5t-55.5 289.5q0 250 109 447t305 307t446 110q114 0 213 -19.5t187 -63t151.5 -109.5t102.5 -164.5t44 -221.5h-541q-6 75 -45 112.5t-131 37.5q-90 0 -154.5 -63t-94 -158t-29.5 -209q0 -123 54.5 -184.5t176.5 -61.5
q162 0 201 119h-201l53 332h723q-18 -229 -66.5 -385.5t-143 -266.5t-242.5 -160.5t-361 -50.5zM717 -483l-254 55l84 354h403z" />
    <glyph glyph-name="gcommaaccent" unicode="&#x123;" horiz-adv-x="1327" 
d="M549 -399q-294 0 -442 115t-154 309h463q4 -44 34.5 -76.5t96.5 -32.5q44 0 74 11t46.5 33t24.5 45.5t13 57.5l30 193q-111 -176 -327 -176q-78 0 -145 26t-119 77.5t-81.5 134.5t-29.5 190q0 270 145 433t369 163q226 0 293 -189l24 156h469l-159 -1005
q-39 -241 -186 -353t-439 -112zM627 391q85 0 128.5 69.5t43.5 170.5q-2 61 -30.5 100t-82.5 39q-84 0 -128 -68.5t-44 -160.5q0 -69 28.5 -109.5t84.5 -40.5zM756 1561l254 -56l-84 -354h-404z" />
    <glyph glyph-name="Hcircumflex" unicode="&#x124;" horiz-adv-x="1662" 
d="M33 0l231 1464h547l-80 -506h334l80 506h545l-232 -1464h-545l84 539h-333l-84 -539h-547zM545 1542l276 318h387l191 -318h-326l-82 90l-102 -90h-344z" />
    <glyph glyph-name="hcircumflex" unicode="&#x125;" horiz-adv-x="1300" 
d="M-10 0l239 1522h469l-102 -643q135 225 367 225q75 0 134 -26t102.5 -81t57 -142t-3.5 -208l-102 -647h-469l92 588q21 143 -88 143q-62 0 -93.5 -36.5t-43.5 -119.5l-90 -575h-469zM381 1593l276 318h387l191 -318h-326l-82 90l-102 -90h-344z" />
    <glyph glyph-name="Hbar" unicode="&#x126;" horiz-adv-x="1662" 
d="M92 1096l37 227h113l22 141h547l-23 -141h334l23 141h545l-23 -141h113l-37 -227h-113l-172 -1096h-545l84 539h-333l-84 -539h-547l172 1096h-113zM731 958h334l20 138h-333z" />
    <glyph glyph-name="hbar" unicode="&#x127;" horiz-adv-x="1300" 
d="M78 1171l37 234h96l18 117h469l-18 -117h293l-37 -234h-293l-47 -292q135 225 367 225q75 0 134 -26t102.5 -81t57 -142t-3.5 -208l-102 -647h-469l92 588q21 143 -88 143q-62 0 -93.5 -36.5t-43.5 -119.5l-90 -575h-469l184 1171h-96z" />
    <glyph glyph-name="Itilde" unicode="&#x128;" horiz-adv-x="800" 
d="M39 0l231 1464h551l-231 -1464h-551zM713 1536q-56 0 -105 15t-86 29.5t-61 14.5q-23 0 -40 -15t-22 -38h-252q28 178 111 265t195 87q67 0 147.5 -29.5t110.5 -29.5q47 0 63 53h252q-16 -91 -48 -160t-75 -110t-90.5 -61.5t-99.5 -20.5z" />
    <glyph glyph-name="itilde" unicode="&#x129;" horiz-adv-x="647" 
d="M4 0l168 1071h467l-168 -1071h-467zM575 1167q-56 0 -103.5 15t-82.5 30t-59 15q-46 0 -60 -53h-237q27 182 101.5 271t182.5 89q67 0 145.5 -29.5t108.5 -29.5q44 0 60 53h237q-28 -179 -107.5 -270t-185.5 -91z" />
    <glyph glyph-name="Imacron" unicode="&#x12a;" horiz-adv-x="800" 
d="M39 0l231 1464h551l-231 -1464h-551zM193 1565l40 264h719l-41 -264h-718z" />
    <glyph glyph-name="imacron" unicode="&#x12b;" horiz-adv-x="647" 
d="M152 1214l38 244h558l-39 -244h-557zM4 0l168 1071h467l-168 -1071h-467z" />
    <glyph glyph-name="Ibreve" unicode="&#x12c;" horiz-adv-x="800" 
d="M39 0l231 1464h551l-231 -1464h-551zM575 1524q-179 0 -270.5 88.5t-93.5 247.5h287q2 -34 23 -54t59 -20q34 0 57 19t29 55h290q-28 -163 -127 -249.5t-254 -86.5z" />
    <glyph glyph-name="ibreve" unicode="&#x12d;" horiz-adv-x="647" 
d="M4 0l168 1071h467l-168 -1071h-467zM436 1167q-173 0 -267.5 92.5t-88.5 260.5h272q3 -82 88 -82q40 0 66.5 22t30.5 60h276q-25 -173 -122 -263t-255 -90z" />
    <glyph glyph-name="Iogonek" unicode="&#x12e;" horiz-adv-x="800" 
d="M39 0l231 1464h551l-225 -1427q-119 -90 -119 -150q0 -41 51 -41q17 0 37 4l-30 -190q-76 -33 -179 -33q-68 0 -119.5 13t-88.5 50.5t-37 96.5q0 78 61.5 132.5t144.5 80.5h-278z" />
    <glyph glyph-name="iogonek" unicode="&#x12f;" horiz-adv-x="647" 
d="M4 0l168 1071h467l-162 -1036q-119 -84 -119 -148q0 -41 52 -41q16 0 36 4l-30 -190q-76 -33 -178 -33q-49 0 -90.5 7.5t-78 25t-57 50t-20.5 77.5q0 78 62 132.5t145 80.5h-195zM442 1114q-105 0 -172 63t-67 162q0 98 67.5 162t173.5 64q104 0 173 -64t69 -162
t-69.5 -161.5t-174.5 -63.5z" />
    <glyph glyph-name="Idotaccent" unicode="&#x130;" horiz-adv-x="800" 
d="M39 0l231 1464h551l-231 -1464h-551zM561 1520q-103 0 -170 61t-67 156t67.5 157t169.5 62t171 -62t69 -157q0 -94 -69 -155.5t-171 -61.5z" />
    <glyph glyph-name="dotlessi" unicode="&#x131;" horiz-adv-x="647" 
d="M4 0l168 1071h467l-168 -1071h-467z" />
    <glyph glyph-name="IJ" unicode="&#x132;" horiz-adv-x="1800" 
d="M39 0l231 1464h551l-231 -1464h-551zM1092 -18q-210 0 -351 65l64 397q94 -32 180 -32q153 0 174 141l146 911h546l-147 -929q-44 -281 -197 -417t-415 -136z" />
    <glyph glyph-name="ij" unicode="&#x133;" horiz-adv-x="1294" 
d="M442 1114q-105 0 -172 63t-67 162q0 98 67.5 162t173.5 64q104 0 173 -64t69 -162t-69.5 -161.5t-174.5 -63.5zM4 0l168 1071h467l-168 -1071h-467zM477 -367l49 326q59 3 91.5 25t39.5 73l160 1014h467l-168 -1061q-11 -69 -33.5 -125t-69.5 -108.5t-115.5 -86
t-176 -49.5t-244.5 -8zM1087 1114q-105 0 -172 63t-67 162q0 98 68 162t174 64q104 0 172.5 -64t68.5 -162t-69.5 -161.5t-174.5 -63.5z" />
    <glyph glyph-name="Jcircumflex" unicode="&#x134;" horiz-adv-x="1040" 
d="M332 -18q-209 0 -350 65l63 397q94 -32 180 -32q153 0 174 141l146 911h547l-148 -929q-44 -281 -197 -417t-415 -136zM387 1542l277 318h387l190 -318h-326l-81 90l-103 -90h-344z" />
    <glyph glyph-name="jcircumflex" unicode="&#x135;" horiz-adv-x="647" 
d="M-170 -367l49 326q59 3 91.5 25t39.5 73l160 1014h467l-168 -1061q-11 -69 -33.5 -125t-69.5 -108.5t-115.5 -86t-176 -49.5t-244.5 -8zM-14 1169l311 353h317l209 -353h-311l-86 95l-111 -95h-329z" />
    <glyph glyph-name="Kcommaaccent" unicode="&#x136;" horiz-adv-x="1601" 
d="M33 0l231 1464h547l-80 -508l434 508h578l-615 -698l377 -766h-585l-252 561l-88 -561h-547zM688 -483l-254 55l84 354h404z" />
    <glyph glyph-name="kcommaaccent" unicode="&#x137;" horiz-adv-x="1247" 
d="M-10 0l239 1522h469l-131 -836l275 385h493l-391 -498l227 -573h-497l-148 428l-67 -428h-469zM541 -483l-254 55l84 354h403z" />
    <glyph glyph-name="Lacute" unicode="&#x139;" horiz-adv-x="1218" 
d="M33 0l231 1464h547l-166 -1046h494l-66 -418h-1040zM336 1542l127 318h469l-242 -318h-354z" />
    <glyph glyph-name="lacute" unicode="&#x13a;" horiz-adv-x="638" 
d="M2 0l240 1522h465l-240 -1522h-465zM281 1593l127 318h469l-242 -318h-354z" />
    <glyph glyph-name="Lcommaaccent" unicode="&#x13b;" horiz-adv-x="1218" 
d="M33 0l231 1464h547l-166 -1046h494l-66 -418h-1040zM510 -483l-254 55l84 354h403z" />
    <glyph glyph-name="lcommaaccent" unicode="&#x13c;" horiz-adv-x="638" 
d="M2 0l240 1522h465l-240 -1522h-465zM188 -483l-254 55l84 354h404z" />
    <glyph glyph-name="Lcaron" unicode="&#x13d;" horiz-adv-x="1218" 
d="M848 1083l88 381h360l-188 -381h-260zM33 0l231 1464h547l-166 -1046h494l-66 -418h-1040z" />
    <glyph glyph-name="lcaron" unicode="&#x13e;" horiz-adv-x="638" 
d="M2 0l240 1522h465l-240 -1522h-465zM715 1165l69 357h314l-158 -357h-225z" />
    <glyph glyph-name="Ldot" unicode="&#x13f;" horiz-adv-x="1300" 
d="M33 0l231 1464h547l-166 -1046h494l-66 -418h-1040zM1096 594q-108 0 -179 71t-71 175q0 103 70.5 174t177.5 71q111 0 185.5 -71.5t74.5 -173.5q0 -104 -73.5 -175t-184.5 -71z" />
    <glyph glyph-name="ldot" unicode="&#x140;" horiz-adv-x="1064" 
d="M2 0l240 1522h465l-240 -1522h-465zM877 483q-108 0 -179 71t-71 175q0 103 70 174.5t177 71.5q111 0 186 -72t75 -174q0 -104 -73.5 -175t-184.5 -71z" />
    <glyph glyph-name="Lslash" unicode="&#x141;" horiz-adv-x="1255" 
d="M16 442l41 275l131 41l113 706h547l-84 -524l366 117l-45 -275l-364 -116l-39 -248h494l-66 -418h-1040l75 483z" />
    <glyph glyph-name="lslash" unicode="&#x142;" horiz-adv-x="743" 
d="M20 481l46 291l116 47l111 703h465l-78 -498l123 51l-45 -291l-125 -51l-115 -733h-465l82 528z" />
    <glyph glyph-name="Nacute" unicode="&#x143;" horiz-adv-x="1648" 
d="M33 0l231 1464h602l221 -649l103 649h483l-231 -1464h-512l-291 768l-121 -768h-485zM799 1542l127 318h469l-242 -318h-354z" />
    <glyph glyph-name="nacute" unicode="&#x144;" horiz-adv-x="1300" 
d="M-10 0l110 705q38 240 43 366h461q0 -108 -12 -199q63 105 156 168.5t215 63.5q75 0 134 -26t102.5 -81t57 -142t-3.5 -208l-102 -647h-469l92 588q21 143 -88 143q-62 0 -93.5 -36.5t-43.5 -119.5l-90 -575h-469zM551 1163l145 359h449l-260 -359h-334z" />
    <glyph glyph-name="Ncommaaccent" unicode="&#x145;" horiz-adv-x="1648" 
d="M33 0l231 1464h602l221 -649l103 649h483l-231 -1464h-512l-291 768l-121 -768h-485zM694 -483l-254 55l84 354h404z" />
    <glyph glyph-name="ncommaaccent" unicode="&#x146;" horiz-adv-x="1300" 
d="M-10 0l110 705q38 240 43 366h461q0 -108 -12 -199q63 105 156 168.5t215 63.5q75 0 134 -26t102.5 -81t57 -142t-3.5 -208l-102 -647h-469l92 588q21 143 -88 143q-62 0 -93.5 -36.5t-43.5 -119.5l-90 -575h-469zM539 -483l-254 55l84 354h403z" />
    <glyph glyph-name="Ncaron" unicode="&#x147;" horiz-adv-x="1648" 
d="M33 0l231 1464h602l221 -649l103 649h483l-231 -1464h-512l-291 768l-121 -768h-485zM1470 1860l-276 -318h-387l-191 318h326l82 -91l102 91h344z" />
    <glyph glyph-name="ncaron" unicode="&#x148;" horiz-adv-x="1300" 
d="M-10 0l110 705q38 240 43 366h461q0 -108 -12 -199q63 105 156 168.5t215 63.5q75 0 134 -26t102.5 -81t57 -142t-3.5 -208l-102 -647h-469l92 588q21 143 -88 143q-62 0 -93.5 -36.5t-43.5 -119.5l-90 -575h-469zM1184 1522l-312 -353h-317l-209 353h311l86 -95l111 95
h330z" />
    <glyph glyph-name="napostrophe" unicode="&#x149;" horiz-adv-x="1667" 
d="M356 0l111 705q38 240 43 366h461q0 -100 -13 -199q63 105 156 168.5t215 63.5q75 0 134 -26t103 -81t57.5 -142t-3.5 -208l-102 -647h-469l92 588q21 143 -88 143q-62 0 -94 -36.5t-44 -119.5l-90 -575h-469zM211 1493l397 -127l-348 -553l-252 92z" />
    <glyph glyph-name="Eng" unicode="&#x14a;" horiz-adv-x="1648" 
d="M870 -393q-188 0 -299 51l60 375q79 -23 143 -23q93 0 135 45l-270 713l-121 -768h-485l231 1464h604l219 -649l103 649h483l-225 -1423q-16 -97 -56.5 -174.5t-109.5 -136.5t-173.5 -91t-238.5 -32z" />
    <glyph glyph-name="eng" unicode="&#x14b;" horiz-adv-x="1306" 
d="M1253 647l-100 -637q-11 -69 -34 -125t-70 -108.5t-116 -86t-176.5 -49.5t-244.5 -8l49 326q59 3 91.5 25t39.5 73l82 531q21 143 -88 143q-62 0 -93.5 -36.5t-43.5 -119.5l-90 -575h-469l110 705q38 240 43 366h461q0 -108 -12 -199q63 105 156 168.5t215 63.5
q75 0 134 -26t102.5 -81t57 -142t-3.5 -208z" />
    <glyph glyph-name="Omacron" unicode="&#x14c;" horiz-adv-x="1685" 
d="M631 629q0 -106 48 -169t157 -63q59 0 107 25t79 66.5t51.5 98t29.5 115t9 121.5q0 235 -201 240q-71 1 -126.5 -35.5t-88 -99.5t-49 -139t-16.5 -160zM793 -29q-146 0 -275 40t-231 116.5t-161.5 200t-59.5 278.5q0 261 108 461.5t303.5 310t450.5 109.5
q121 0 230.5 -23.5t205.5 -74t165.5 -124.5t109.5 -182t40 -239q0 -194 -62.5 -356.5t-176.5 -276t-280 -177t-367 -63.5zM590 1565l41 264h719l-41 -264h-719z" />
    <glyph glyph-name="omacron" unicode="&#x14d;" horiz-adv-x="1288" 
d="M500 463q0 -152 121 -152q86 0 126.5 85t40.5 227q0 60 -27.5 99.5t-86.5 39.5q-89 0 -131.5 -81t-42.5 -218zM614 -29q-112 0 -212 28t-183.5 85t-133 155.5t-50.5 227.5q-1 183 79 328t227 227t337 82q89 0 171 -17.5t157 -57t130 -97t88 -143.5t33 -191
q0 -281 -178.5 -454t-464.5 -173zM365 1214l38 244h678l-39 -244h-677z" />
    <glyph glyph-name="Obreve" unicode="&#x14e;" horiz-adv-x="1685" 
d="M631 629q0 -106 48 -169t157 -63q59 0 107 25t79 66.5t51.5 98t29.5 115t9 121.5q0 235 -201 240q-71 1 -126.5 -35.5t-88 -99.5t-49 -139t-16.5 -160zM793 -29q-146 0 -275 40t-231 116.5t-161.5 200t-59.5 278.5q0 261 108 461.5t303.5 310t450.5 109.5
q121 0 230.5 -23.5t205.5 -74t165.5 -124.5t109.5 -182t40 -239q0 -194 -62.5 -356.5t-176.5 -276t-280 -177t-367 -63.5zM971 1524q-179 0 -271 88.5t-94 247.5h287q2 -34 23 -54t59 -20q34 0 57 19t29 55h291q-28 -163 -127 -249.5t-254 -86.5z" />
    <glyph glyph-name="obreve" unicode="&#x14f;" horiz-adv-x="1288" 
d="M500 463q0 -152 121 -152q86 0 126.5 85t40.5 227q0 60 -27.5 99.5t-86.5 39.5q-89 0 -131.5 -81t-42.5 -218zM614 -29q-112 0 -212 28t-183.5 85t-133 155.5t-50.5 227.5q-1 183 79 328t227 227t337 82q89 0 171 -17.5t157 -57t130 -97t88 -143.5t33 -191
q0 -281 -178.5 -454t-464.5 -173zM709 1167q-173 0 -268 92.5t-89 260.5h273q3 -82 88 -82q40 0 66 22t30 60h276q-25 -174 -121.5 -263.5t-254.5 -89.5z" />
    <glyph glyph-name="Ohungarumlaut" unicode="&#x150;" horiz-adv-x="1685" 
d="M631 629q0 -106 48 -169t157 -63q59 0 107 25t79 66.5t51.5 98t29.5 115t9 121.5q0 235 -201 240q-71 1 -126.5 -35.5t-88 -99.5t-49 -139t-16.5 -160zM793 -29q-146 0 -275 40t-231 116.5t-161.5 200t-59.5 278.5q0 261 108 461.5t303.5 310t450.5 109.5
q121 0 230.5 -23.5t205.5 -74t165.5 -124.5t109.5 -182t40 -239q0 -194 -62.5 -356.5t-176.5 -276t-280 -177t-367 -63.5zM580 1542l122 318h375l-190 -318h-307zM1020 1542l123 318h375l-191 -318h-307z" />
    <glyph glyph-name="ohungarumlaut" unicode="&#x151;" horiz-adv-x="1288" 
d="M500 463q0 -152 121 -152q86 0 126.5 85t40.5 227q0 60 -27.5 99.5t-86.5 39.5q-89 0 -131.5 -81t-42.5 -218zM614 -29q-112 0 -212 28t-183.5 85t-133 155.5t-50.5 227.5q-1 183 79 328t227 227t337 82q89 0 171 -17.5t157 -57t130 -97t88 -143.5t33 -191
q0 -281 -178.5 -454t-464.5 -173zM362 1163l140 359h334l-207 -359h-267zM750 1163l139 359h334l-207 -359h-266z" />
    <glyph glyph-name="OE" unicode="&#x152;" horiz-adv-x="2039" 
d="M926 1464h1171l-65 -415h-523l-20 -125h405l-57 -373h-405l-23 -135h553l-66 -416h-1075q-370 0 -562.5 154t-192.5 454q0 209 64.5 373.5t180 269.5t271.5 159t344 54zM973 1053h-53q-140 0 -214.5 -110t-74.5 -310q0 -119 55 -170t166 -51h18z" />
    <glyph glyph-name="oe" unicode="&#x153;" horiz-adv-x="2011" 
d="M1430 1104q187 0 317.5 -73.5t188 -215.5t28.5 -334l-6 -41h-721q2 -71 37.5 -118.5t114.5 -47.5q106 0 137 103h436q-35 -194 -188.5 -300t-395.5 -106q-255 0 -393 127q-152 -127 -371 -127q-89 0 -170.5 17t-156.5 56t-130 96t-88 142t-34 189q-1 183 79 327t227 225
t337 81q235 0 375 -137q159 137 377 137zM500 463q0 -152 121 -152q86 0 126.5 85t40.5 227q0 60 -27.5 99.5t-86.5 39.5q-89 0 -131.5 -81t-42.5 -218zM1423 815q-116 0 -161 -158h284q5 70 -25.5 114t-97.5 44z" />
    <glyph glyph-name="Racute" unicode="&#x154;" horiz-adv-x="1501" 
d="M33 0l231 1464h621q297 0 441 -116.5t144 -321.5q0 -170 -80.5 -284.5t-218.5 -161.5l234 -580h-545l-182 465h-31l-72 -465h-542zM702 807h84q154 0 154 141q0 111 -133 111h-66zM625 1542l127 318h469l-242 -318h-354z" />
    <glyph glyph-name="racute" unicode="&#x155;" horiz-adv-x="937" 
d="M-10 0l110 705q35 223 41 366h461q0 -135 -16 -252q116 273 385 264l-68 -436q-177 14 -266.5 -35.5t-110.5 -181.5l-67 -430h-469zM438 1163l146 359h448l-260 -359h-334z" />
    <glyph glyph-name="Rcommaaccent" unicode="&#x156;" horiz-adv-x="1501" 
d="M33 0l231 1464h621q297 0 441 -116.5t144 -321.5q0 -170 -80.5 -284.5t-218.5 -161.5l234 -580h-545l-182 465h-31l-72 -465h-542zM702 807h84q154 0 154 141q0 111 -133 111h-66zM651 -483l-254 55l84 354h404z" />
    <glyph glyph-name="rcommaaccent" unicode="&#x157;" horiz-adv-x="937" 
d="M-10 0l110 705q35 223 41 366h461q0 -135 -16 -252q116 273 385 264l-68 -436q-177 14 -266.5 -35.5t-110.5 -181.5l-67 -430h-469zM176 -483l-254 55l84 354h404z" />
    <glyph glyph-name="Rcaron" unicode="&#x158;" horiz-adv-x="1501" 
d="M33 0l231 1464h621q297 0 441 -116.5t144 -321.5q0 -170 -80.5 -284.5t-218.5 -161.5l234 -580h-545l-182 465h-31l-72 -465h-542zM702 807h84q154 0 154 141q0 111 -133 111h-66zM1296 1860l-276 -318h-387l-191 318h326l82 -91l102 91h344z" />
    <glyph glyph-name="rcaron" unicode="&#x159;" horiz-adv-x="937" 
d="M-10 0l110 705q35 223 41 366h461q0 -135 -16 -252q116 273 385 264l-68 -436q-177 14 -266.5 -35.5t-110.5 -181.5l-67 -430h-469zM1069 1522l-311 -353h-318l-209 353h312l86 -95l110 95h330z" />
    <glyph glyph-name="Sacute" unicode="&#x15a;" horiz-adv-x="1345" 
d="M649 -29q-315 0 -485.5 127.5t-167.5 376.5h510q4 -125 153 -125q115 0 115 78q0 30 -35.5 49t-115.5 33q-283 50 -398.5 153t-115.5 295q0 114 42 210.5t121 167.5t200.5 111t272.5 40q292 0 447 -119t151 -367h-497q-6 107 -113 107q-100 0 -100 -70q0 -34 33.5 -52
t117.5 -32q264 -43 394.5 -145t130.5 -295q0 -248 -170 -394t-490 -149zM590 1542l127 318h469l-242 -318h-354z" />
    <glyph glyph-name="sacute" unicode="&#x15b;" horiz-adv-x="1085" 
d="M485 -31q-115 0 -206.5 21t-161.5 65.5t-108.5 119.5t-39.5 177h432q3 -47 25 -69.5t72 -22.5q35 0 56 14t21 41q0 28 -31 42.5t-134 31.5q-190 32 -277.5 104t-87.5 212q0 131 68 223t186 135.5t276 42.5q478 0 498 -369h-422q-12 88 -86 88q-80 0 -80 -55q0 -30 30 -43
t106 -27q118 -22 192.5 -46.5t127 -63t74 -92.5t21.5 -133q0 -102 -41.5 -179t-117 -124t-174 -70t-218.5 -23zM418 1163l145 359h449l-260 -359h-334z" />
    <glyph glyph-name="Scircumflex" unicode="&#x15c;" horiz-adv-x="1345" 
d="M649 -29q-315 0 -485.5 127.5t-167.5 376.5h510q4 -125 153 -125q115 0 115 78q0 30 -35.5 49t-115.5 33q-283 50 -398.5 153t-115.5 295q0 114 42 210.5t121 167.5t200.5 111t272.5 40q292 0 447 -119t151 -367h-497q-6 107 -113 107q-100 0 -100 -70q0 -34 33.5 -52
t117.5 -32q264 -43 394.5 -145t130.5 -295q0 -248 -170 -394t-490 -149zM369 1542l276 318h387l191 -318h-326l-82 90l-102 -90h-344z" />
    <glyph glyph-name="scircumflex" unicode="&#x15d;" horiz-adv-x="1085" 
d="M485 -31q-115 0 -206.5 21t-161.5 65.5t-108.5 119.5t-39.5 177h432q3 -47 25 -69.5t72 -22.5q35 0 56 14t21 41q0 28 -31 42.5t-134 31.5q-190 32 -277.5 104t-87.5 212q0 131 68 223t186 135.5t276 42.5q478 0 498 -369h-422q-12 88 -86 88q-80 0 -80 -55q0 -30 30 -43
t106 -27q118 -22 192.5 -46.5t127 -63t74 -92.5t21.5 -133q0 -102 -41.5 -179t-117 -124t-174 -70t-218.5 -23zM180 1169l312 353h317l209 -353h-311l-86 95l-111 -95h-330z" />
    <glyph glyph-name="Scedilla" unicode="&#x15e;" horiz-adv-x="1345" 
d="M547 -475q-75 0 -136 19.5t-103.5 66t-47.5 113.5h205q8 -48 63 -48q24 0 43 15.5t19 46.5q0 53 -62 53q-37 0 -63 -22l-78 86l102 127q-240 28 -367 152t-126 341h510q4 -125 153 -125q115 0 115 78q0 30 -35.5 49t-115.5 33q-283 50 -398.5 153t-115.5 295
q0 114 42 210.5t121 167.5t200.5 111t272.5 40q292 0 447 -119t151 -367h-497q-6 107 -113 107q-100 0 -100 -70q0 -34 33.5 -52t117.5 -32q264 -43 394.5 -145t130.5 -295q0 -248 -170 -394t-490 -149l-47 -55q95 6 156 -40t61 -130q0 -108 -77.5 -164.5t-194.5 -56.5z" />
    <glyph glyph-name="scedilla" unicode="&#x15f;" horiz-adv-x="1085" 
d="M424 -475q-75 0 -136 19.5t-103.5 66t-47.5 113.5h205q8 -48 64 -48q24 0 42.5 15.5t18.5 46.5q0 53 -61 53q-38 0 -64 -22l-78 86l98 120q-183 21 -287.5 113t-105.5 264h432q3 -47 25 -69.5t72 -22.5q35 0 56 14t21 41q0 28 -31 42.5t-134 31.5q-190 32 -277.5 104
t-87.5 212q0 131 68 223t186 135.5t276 42.5q478 0 498 -369h-422q-12 88 -86 88q-80 0 -80 -55q0 -30 30 -43t106 -27q118 -22 192.5 -46.5t127 -63t74 -92.5t21.5 -133q0 -191 -139.5 -289.5t-372.5 -104.5l-45 -55q95 6 156 -40t61 -130q0 -108 -77.5 -164.5
t-194.5 -56.5z" />
    <glyph glyph-name="Scaron" unicode="&#x160;" horiz-adv-x="1345" 
d="M649 -29q-315 0 -485.5 127.5t-167.5 376.5h510q4 -125 153 -125q115 0 115 78q0 30 -35.5 49t-115.5 33q-283 50 -398.5 153t-115.5 295q0 114 42 210.5t121 167.5t200.5 111t272.5 40q292 0 447 -119t151 -367h-497q-6 107 -113 107q-100 0 -100 -70q0 -34 33.5 -52
t117.5 -32q264 -43 394.5 -145t130.5 -295q0 -248 -170 -394t-490 -149zM1233 1860l-277 -318h-387l-190 318h326l81 -91l103 91h344z" />
    <glyph glyph-name="scaron" unicode="&#x161;" horiz-adv-x="1085" 
d="M485 -31q-115 0 -206.5 21t-161.5 65.5t-108.5 119.5t-39.5 177h432q3 -47 25 -69.5t72 -22.5q35 0 56 14t21 41q0 28 -31 42.5t-134 31.5q-190 32 -277.5 104t-87.5 212q0 131 68 223t186 135.5t276 42.5q478 0 498 -369h-422q-12 88 -86 88q-80 0 -80 -55q0 -30 30 -43
t106 -27q118 -22 192.5 -46.5t127 -63t74 -92.5t21.5 -133q0 -102 -41.5 -179t-117 -124t-174 -70t-218.5 -23zM1047 1522l-312 -353h-317l-209 353h311l86 -95l111 95h330z" />
    <glyph glyph-name="Tcommaaccent" unicode="&#x162;" horiz-adv-x="1327" 
d="M303 0l164 1047h-354l67 417h1258l-68 -417h-354l-164 -1047h-549zM555 -483l-254 55l84 354h403z" />
    <glyph glyph-name="tcommaaccent" unicode="&#x163;" horiz-adv-x="833" 
d="M481 -29q-83 0 -147.5 14.5t-115.5 47t-78.5 85t-37 128t8.5 176.5l55 344h-117l47 305h117l35 213h469l-35 -213h190l-47 -305h-190l-51 -324q-9 -57 11.5 -80.5t68.5 -23.5q45 0 92 16l-56 -348q-95 -35 -219 -35zM352 -483l-254 55l84 354h404z" />
    <glyph glyph-name="Tcaron" unicode="&#x164;" horiz-adv-x="1327" 
d="M303 0l164 1047h-354l67 417h1258l-68 -417h-354l-164 -1047h-549zM1278 1860l-277 -318h-387l-190 318h326l81 -91l103 91h344z" />
    <glyph glyph-name="tcaron" unicode="&#x165;" horiz-adv-x="833" 
d="M481 -29q-83 0 -147.5 14.5t-115.5 47t-78.5 85t-37 128t8.5 176.5l55 344h-117l47 305h117l35 213h469l-35 -213h190l-47 -305h-190l-51 -324q-9 -57 11.5 -80.5t68.5 -23.5q45 0 92 16l-56 -348q-95 -35 -219 -35zM764 1165l70 357h313l-158 -357h-225z" />
    <glyph glyph-name="Tbar" unicode="&#x166;" horiz-adv-x="1327" 
d="M145 508l52 330h237l33 209h-354l67 417h1258l-68 -417h-354l-33 -209h238l-52 -330h-237l-80 -508h-549l80 508h-238z" />
    <glyph glyph-name="tbar" unicode="&#x167;" horiz-adv-x="833" 
d="M6 492l29 182h117l14 92h-117l47 305h117l35 213h469l-35 -213h190l-47 -305h-190l-14 -92h190l-29 -182h-190l-8 -50q-9 -57 11.5 -80.5t68.5 -23.5q45 0 92 16l-56 -348q-95 -35 -219 -35q-83 0 -147.5 14.5t-115.5 47t-78.5 85t-37 128t8.5 176.5l10 70h-115z" />
    <glyph glyph-name="Utilde" unicode="&#x168;" horiz-adv-x="1636" 
d="M801 -29q-369 0 -548.5 175t-125.5 511l129 807h545l-131 -823q-20 -122 11 -183t126 -61q50 0 82.5 14t51.5 47.5t28.5 67.5t19.5 95l133 843h549l-139 -884q-50 -321 -227 -465t-504 -144zM1096 1536q-56 0 -105 15t-86 29.5t-61 14.5q-23 0 -40 -15t-22 -38h-252
q28 178 111 265t195 87q67 0 147.5 -29.5t110.5 -29.5q47 0 63 53h252q-16 -91 -48 -160t-75 -110t-90.5 -61.5t-99.5 -20.5z" />
    <glyph glyph-name="utilde" unicode="&#x169;" horiz-adv-x="1306" 
d="M1307 1071l-115 -731q-35 -213 -27 -340h-460q-5 53 0 193q-138 -222 -367 -222q-74 0 -133 25t-103 80t-58 140.5t3 207.5l103 647h468l-98 -616q-21 -144 86 -144q61 0 92 36.5t43 119.5l97 604h469zM872 1167q-56 0 -103.5 15t-82.5 30t-59 15q-46 0 -60 -53h-237
q27 182 101.5 271t182.5 89q67 0 145.5 -29.5t108.5 -29.5q44 0 60 53h237q-28 -179 -107.5 -270t-185.5 -91z" />
    <glyph glyph-name="Umacron" unicode="&#x16a;" horiz-adv-x="1636" 
d="M801 -29q-369 0 -548.5 175t-125.5 511l129 807h545l-131 -823q-20 -122 11 -183t126 -61q50 0 82.5 14t51.5 47.5t28.5 67.5t19.5 95l133 843h549l-139 -884q-50 -321 -227 -465t-504 -144zM618 1565l41 264h719l-41 -264h-719z" />
    <glyph glyph-name="umacron" unicode="&#x16b;" horiz-adv-x="1306" 
d="M1307 1071l-115 -731q-35 -213 -27 -340h-460q-5 53 0 193q-138 -222 -367 -222q-74 0 -133 25t-103 80t-58 140.5t3 207.5l103 647h468l-98 -616q-21 -144 86 -144q61 0 92 36.5t43 119.5l97 604h469zM387 1214l39 244h678l-39 -244h-678z" />
    <glyph glyph-name="Ubreve" unicode="&#x16c;" horiz-adv-x="1636" 
d="M801 -29q-369 0 -548.5 175t-125.5 511l129 807h545l-131 -823q-20 -122 11 -183t126 -61q50 0 82.5 14t51.5 47.5t28.5 67.5t19.5 95l133 843h549l-139 -884q-50 -321 -227 -465t-504 -144zM979 1524q-179 0 -271 88.5t-94 247.5h287q2 -34 23 -54t59 -20q34 0 57 19
t29 55h291q-28 -163 -127 -249.5t-254 -86.5z" />
    <glyph glyph-name="ubreve" unicode="&#x16d;" horiz-adv-x="1306" 
d="M1307 1071l-115 -731q-35 -213 -27 -340h-460q-5 53 0 193q-138 -222 -367 -222q-74 0 -133 25t-103 80t-58 140.5t3 207.5l103 647h468l-98 -616q-21 -144 86 -144q61 0 92 36.5t43 119.5l97 604h469zM756 1167q-173 0 -268 92.5t-89 260.5h273q3 -82 88 -82q40 0 66 22
t30 60h277q-25 -173 -122 -263t-255 -90z" />
    <glyph glyph-name="Uring" unicode="&#x16e;" horiz-adv-x="1636" 
d="M801 -29q-369 0 -548.5 175t-125.5 511l129 807h545l-131 -823q-20 -122 11 -183t126 -61q50 0 82.5 14t51.5 47.5t28.5 67.5t19.5 95l133 843h549l-139 -884q-50 -321 -227 -465t-504 -144zM973 1622q38 0 63 26.5t25 69.5t-25 70t-63 27q-40 0 -64 -27t-24 -70
t24 -69.5t64 -26.5zM973 1468q-106 0 -182 73.5t-76 176.5t76 176.5t182 73.5t182 -73.5t76 -176.5t-76 -176.5t-182 -73.5z" />
    <glyph glyph-name="uring" unicode="&#x16f;" horiz-adv-x="1306" 
d="M1307 1071l-115 -731q-35 -213 -27 -340h-460q-5 53 0 193q-138 -222 -367 -222q-74 0 -133 25t-103 80t-58 140.5t3 207.5l103 647h468l-98 -616q-21 -144 86 -144q61 0 92 36.5t43 119.5l97 604h469zM733 1313q38 0 62 26.5t24 67.5t-24 67.5t-62 26.5t-62 -26.5
t-24 -67.5t24 -67.5t62 -26.5zM733 1161q-104 0 -179 72.5t-75 173.5t75 173.5t179 72.5t179 -72.5t75 -173.5t-75 -173.5t-179 -72.5z" />
    <glyph glyph-name="Uhungarumlaut" unicode="&#x170;" horiz-adv-x="1636" 
d="M801 -29q-369 0 -548.5 175t-125.5 511l129 807h545l-131 -823q-20 -122 11 -183t126 -61q50 0 82.5 14t51.5 47.5t28.5 67.5t19.5 95l133 843h549l-139 -884q-50 -321 -227 -465t-504 -144zM598 1542l123 318h375l-191 -318h-307zM1038 1542l123 318h375l-190 -318h-308
z" />
    <glyph glyph-name="uhungarumlaut" unicode="&#x171;" horiz-adv-x="1306" 
d="M1307 1071l-115 -731q-35 -213 -27 -340h-460q-5 53 0 193q-138 -222 -367 -222q-74 0 -133 25t-103 80t-58 140.5t3 207.5l103 647h468l-98 -616q-21 -144 86 -144q61 0 92 36.5t43 119.5l97 604h469zM387 1163l139 359h334l-207 -359h-266zM774 1163l139 359h334
l-207 -359h-266z" />
    <glyph glyph-name="Uogonek" unicode="&#x172;" horiz-adv-x="1636" 
d="M1671 1464l-139 -884q-37 -238 -142 -374t-313 -204q-9 -3 -30.5 -10t-31.5 -10t-28 -10t-27 -12t-21.5 -13.5t-18.5 -16.5t-10.5 -19.5t-4.5 -23.5q0 -41 51 -41q17 0 37 4l-30 -190q-76 -33 -179 -33q-68 0 -119.5 13t-88.5 50.5t-37 96.5q0 119 145 190
q-312 25 -459.5 198t-97.5 482l129 807h545l-131 -823q-20 -122 11 -183t126 -61q50 0 82.5 14t51.5 47.5t28.5 67.5t19.5 95l133 843h549z" />
    <glyph glyph-name="uogonek" unicode="&#x173;" horiz-adv-x="1306" 
d="M1167 20q-43 -42 -66.5 -73t-23.5 -60q0 -41 51 -41q17 0 37 4l-30 -190q-76 -33 -179 -33q-68 0 -119.5 13t-88.5 50.5t-37 96.5q0 78 62 132.5t145 80.5h-213q-5 53 0 193q-138 -222 -367 -222q-74 0 -133 25t-103 80t-58 140.5t3 207.5l103 647h468l-98 -616
q-21 -144 86 -144q61 0 92 36.5t43 119.5l97 604h469l-115 -731q-32 -194 -25 -320z" />
    <glyph glyph-name="Wcircumflex" unicode="&#x174;" horiz-adv-x="2103" 
d="M256 0l-109 1464h553l7 -805l266 805h459l41 -815l274 815h498l-572 -1464h-528l-49 774l-289 -774h-551zM770 1542l277 318h387l190 -318h-326l-81 90l-103 -90h-344z" />
    <glyph glyph-name="wcircumflex" unicode="&#x175;" horiz-adv-x="1767" 
d="M227 0l-147 1071h473l33 -526l205 526h372l37 -526l205 526h448l-505 -1071h-435l-43 492l-196 -492h-447zM539 1169l311 353h317l209 -353h-311l-86 95l-111 -95h-329z" />
    <glyph glyph-name="Ycircumflex" unicode="&#x176;" horiz-adv-x="1478" 
d="M383 0l96 623l-336 841h566l120 -389l242 389h543l-588 -868l-94 -596h-549zM459 1542l276 318h387l191 -318h-326l-82 90l-102 -90h-344z" />
    <glyph glyph-name="ycircumflex" unicode="&#x177;" horiz-adv-x="1257" 
d="M96 -352l248 473l-264 950h487l88 -475l226 475h460l-782 -1423h-463zM305 1169l311 353h318l209 -353h-312l-86 95l-110 -95h-330z" />
    <glyph glyph-name="Ydieresis" unicode="&#x178;" horiz-adv-x="1478" 
d="M383 0l96 623l-336 841h566l120 -389l242 389h543l-588 -868l-94 -596h-549zM676 1520q-88 0 -148.5 58.5t-60.5 143.5t60.5 144t148.5 59t149.5 -59t61.5 -144t-61.5 -143.5t-149.5 -58.5zM1153 1520q-88 0 -147.5 58.5t-59.5 143.5t60 144t147 59q89 0 150 -59t61 -144
t-61 -143.5t-150 -58.5z" />
    <glyph glyph-name="Zacute" unicode="&#x179;" horiz-adv-x="1286" 
d="M-76 0l8 55l682 1014h-444l63 395h1199l-11 -55l-680 -1008h467l-63 -401h-1221zM616 1542l127 318h469l-241 -318h-355z" />
    <glyph glyph-name="zacute" unicode="&#x17a;" horiz-adv-x="1067" 
d="M-78 0l6 43l500 690h-350l51 338h1006l-7 -43l-526 -694h383l-51 -334h-1012zM461 1163l145 359h449l-260 -359h-334z" />
    <glyph glyph-name="Zdotaccent" unicode="&#x17b;" horiz-adv-x="1286" 
d="M-76 0l8 55l682 1014h-444l63 395h1199l-11 -55l-680 -1008h467l-63 -401h-1221zM834 1520q-103 0 -170.5 61t-67.5 156t68 157t170 62t170.5 -62t68.5 -157q0 -94 -68.5 -155.5t-170.5 -61.5z" />
    <glyph glyph-name="zdotaccent" unicode="&#x17c;" horiz-adv-x="1067" 
d="M-78 0l6 43l500 690h-350l51 338h1006l-7 -43l-526 -694h383l-51 -334h-1012zM635 1128q-103 0 -170.5 61.5t-67.5 156.5t68 157t170 62t170.5 -62t68.5 -157t-68.5 -156.5t-170.5 -61.5z" />
    <glyph glyph-name="Zcaron" unicode="&#x17d;" horiz-adv-x="1286" 
d="M-76 0l8 55l682 1014h-444l63 395h1199l-11 -55l-680 -1008h467l-63 -401h-1221zM1288 1860l-276 -318h-387l-191 318h326l82 -91l102 91h344z" />
    <glyph glyph-name="zcaron" unicode="&#x17e;" horiz-adv-x="1067" 
d="M-78 0l6 43l500 690h-350l51 338h1006l-7 -43l-526 -694h383l-51 -334h-1012zM1094 1522l-312 -353h-317l-209 353h311l86 -95l111 95h330z" />
    <glyph glyph-name="florin" unicode="&#x192;" horiz-adv-x="968" 
d="M59 545l47 305h168l43 225q17 90 54.5 160.5t88 117t116 76.5t135.5 43t149 13q118 0 197 -23l-56 -342q-34 10 -94 10q-53 0 -91 -25.5t-48 -78.5l-33 -176h221l-47 -305h-231l-170 -918h-463l172 918h-158z" />
    <glyph glyph-name="Aringacute" unicode="&#x1fa;" horiz-adv-x="1605" 
d="M948 0l-18 195h-414l-80 -195h-520l682 1464h702l218 -1464h-570zM952 1509q-106 0 -182 73.5t-76 176.5t76 176.5t182 73.5t182 -73.5t76 -176.5t-76 -176.5t-182 -73.5zM803 2038l127 317h469l-242 -317h-354zM856 1026l-190 -467h231zM952 1663q38 0 63 26.5t25 69.5
t-25 69.5t-63 26.5q-40 0 -64 -26.5t-24 -69.5t24 -69.5t64 -26.5z" />
    <glyph glyph-name="aringacute" unicode="&#x1fb;" horiz-adv-x="1218" 
d="M539 274q50 0 84.5 29t40.5 72l8 39h-82q-73 0 -102 -18t-29 -56q0 -29 21.5 -47.5t58.5 -18.5zM1106 0h-455q-8 39 -8 133q-106 -162 -315 -162q-142 0 -239 78t-97 217q0 208 144 294.5t442 86.5h131l2 15q4 35 2 62.5t-23 44.5t-63 17q-83 0 -103 -92h-434
q40 201 179.5 305.5t379.5 104.5q297 0 425.5 -126t88.5 -378l-41 -260q-34 -205 -16 -340zM723 1313q38 0 62 26.5t24 67.5t-24 67.5t-62 26.5t-62 -26.5t-24 -67.5t24 -67.5t62 -26.5zM723 1161q-104 0 -179 72.5t-75 173.5t75 173.5t179 72.5t179 -72.5t75 -173.5
t-75 -173.5t-179 -72.5zM575 1700l127 317h469l-241 -317h-355z" />
    <glyph glyph-name="AEacute" unicode="&#x1fc;" horiz-adv-x="2107" 
d="M860 0l37 236h-332l-125 -236h-524l829 1464h1420l-66 -415h-532l-21 -125h416l-57 -373h-416l-23 -135h564l-66 -416h-1104zM1225 1542l127 318h469l-242 -318h-354zM997 1049l-243 -459h198l74 459h-29z" />
    <glyph glyph-name="aeacute" unicode="&#x1fd;" horiz-adv-x="1888" 
d="M645 1104q231 0 334 -103q150 103 332 103q185 0 314.5 -73.5t187 -215.5t28.5 -334l-6 -41h-721q2 -71 37.5 -118.5t114.5 -47.5q106 0 137 103h436q-35 -194 -188.5 -300t-395.5 -106q-324 0 -454 179q-112 -179 -400 -179q-183 0 -296 80t-113 225q0 200 147 287.5
t439 87.5h131l2 15q7 56 -10.5 88t-77.5 32q-51 0 -77 -28t-34 -64h-434q36 200 185.5 305t381.5 105zM842 1163l145 359h449l-260 -359h-334zM1300 815q-116 0 -161 -158h284q5 70 -25.5 114t-97.5 44zM539 274q50 0 84.5 29.5t42.5 77.5l8 51h-82q-133 0 -133 -88
q0 -33 21 -51.5t59 -18.5z" />
    <glyph glyph-name="Oslashacute" unicode="&#x1fe;" horiz-adv-x="1685" 
d="M170 -70l-104 107l151 153q-151 164 -151 416q0 261 108 461.5t303.5 310t450.5 109.5q274 0 467 -115l147 148l105 -107l-134 -133q166 -169 166 -436q0 -194 -62.5 -356.5t-176.5 -276t-280 -177t-367 -63.5q-269 0 -459 123zM741 1542l127 318h469l-241 -318h-355z
M1130 825q0 28 -4 64l-446 -449q55 -49 156 -49q75 0 133.5 37t92.5 100t51 138t17 159zM614 627q0 -25 2 -37l437 436q-52 40 -142 43q-96 2 -165 -62t-100.5 -162.5t-31.5 -217.5z" />
    <glyph glyph-name="oslashacute" unicode="&#x1ff;" horiz-adv-x="1288" 
d="M121 -82l-92 90l129 131q-123 126 -123 332q-1 183 79 327t227 225t337 81q195 0 342 -84l137 141l94 -90l-127 -129q133 -136 133 -348q0 -280 -178 -451.5t-465 -171.5q-209 0 -356 88zM512 1163l145 359h449l-260 -359h-334zM623 301q91 0 138.5 88.5t47.5 228.5
l-283 -286q34 -31 97 -31zM676 770q-95 0 -145 -82t-50 -219l273 279q-31 22 -78 22z" />
    <glyph glyph-name="Scommaaccent" unicode="&#x218;" horiz-adv-x="1345" 
d="M649 -29q-315 0 -485.5 127.5t-167.5 376.5h510q4 -125 153 -125q115 0 115 78q0 30 -35.5 49t-115.5 33q-283 50 -398.5 153t-115.5 295q0 114 42 210.5t121 167.5t200.5 111t272.5 40q292 0 447 -119t151 -367h-497q-6 107 -113 107q-100 0 -100 -70q0 -34 33.5 -52
t117.5 -32q264 -43 394.5 -145t130.5 -295q0 -248 -170 -394t-490 -149zM567 -483l-254 55l84 354h404z" />
    <glyph glyph-name="scommaaccent" unicode="&#x219;" horiz-adv-x="1085" 
d="M485 -31q-115 0 -206.5 21t-161.5 65.5t-108.5 119.5t-39.5 177h432q3 -47 25 -69.5t72 -22.5q35 0 56 14t21 41q0 28 -31 42.5t-134 31.5q-190 32 -277.5 104t-87.5 212q0 131 68 223t186 135.5t276 42.5q478 0 498 -369h-422q-12 88 -86 88q-80 0 -80 -55q0 -30 30 -43
t106 -27q118 -22 192.5 -46.5t127 -63t74 -92.5t21.5 -133q0 -102 -41.5 -179t-117 -124t-174 -70t-218.5 -23zM432 -483l-254 55l84 354h404z" />
    <glyph glyph-name="uni0237" unicode="&#x237;" horiz-adv-x="647" 
d="M-170 -367l49 326q59 3 91.5 25t39.5 73l160 1014h467l-168 -1061q-11 -69 -33.5 -125t-69.5 -108.5t-115.5 -86t-176 -49.5t-244.5 -8z" />
    <glyph glyph-name="circumflex" unicode="&#x2c6;" horiz-adv-x="819" 
d="M88 1169l311 353h318l209 -353h-312l-86 95l-110 -95h-330z" />
    <glyph glyph-name="caron" unicode="&#x2c7;" horiz-adv-x="819" 
d="M981 1522l-311 -353h-318l-209 353h312l86 -95l110 95h330z" />
    <glyph glyph-name="breve" unicode="&#x2d8;" horiz-adv-x="819" 
d="M541 1167q-173 0 -268 92.5t-89 260.5h273q3 -82 88 -82q40 0 66 22t30 60h277q-25 -173 -122 -263t-255 -90z" />
    <glyph glyph-name="dotaccent" unicode="&#x2d9;" horiz-adv-x="819" 
d="M537 1128q-103 0 -170.5 61.5t-67.5 156.5t68 157t170 62t170.5 -62t68.5 -157t-68.5 -156.5t-170.5 -61.5z" />
    <glyph glyph-name="ring" unicode="&#x2da;" horiz-adv-x="819" 
d="M545 1313q38 0 62 26.5t24 67.5t-24 67.5t-62 26.5t-62 -26.5t-24 -67.5t24 -67.5t62 -26.5zM545 1161q-104 0 -179 72.5t-75 173.5t75 173.5t179 72.5t179 -72.5t75 -173.5t-75 -173.5t-179 -72.5z" />
    <glyph glyph-name="ogonek" unicode="&#x2db;" horiz-adv-x="819" 
d="M268 -373q-68 0 -119.5 13t-88.5 50.5t-37 96.5q0 78 61.5 132.5t144.5 80.5h236q-76 -61 -76 -113q0 -41 51 -41q17 0 37 4l-31 -190q-76 -33 -178 -33z" />
    <glyph glyph-name="tilde" unicode="&#x2dc;" horiz-adv-x="819" 
d="M662 1167q-56 0 -103.5 15t-83 30t-59.5 15q-46 0 -60 -53h-237q27 182 101.5 271t182.5 89q67 0 145.5 -29.5t108.5 -29.5q44 0 60 53h237q-28 -179 -107 -270t-185 -91z" />
    <glyph glyph-name="hungarumlaut" unicode="&#x2dd;" horiz-adv-x="819" 
d="M164 1163l139 359h334l-207 -359h-266zM551 1163l139 359h334l-207 -359h-266z" />
    <glyph glyph-name="Wgrave" unicode="&#x1e80;" horiz-adv-x="2103" 
d="M256 0l-109 1464h553l7 -805l266 805h459l41 -815l274 815h498l-572 -1464h-528l-49 774l-289 -774h-551zM1044 1542l-182 318h465l62 -318h-345z" />
    <glyph glyph-name="wgrave" unicode="&#x1e81;" horiz-adv-x="1767" 
d="M227 0l-147 1071h473l33 -526l205 526h372l37 -526l205 526h448l-505 -1071h-435l-43 492l-196 -492h-447zM805 1163l-195 359h445l73 -359h-323z" />
    <glyph glyph-name="Wacute" unicode="&#x1e82;" horiz-adv-x="2103" 
d="M256 0l-109 1464h553l7 -805l266 805h459l41 -815l274 815h498l-572 -1464h-528l-49 774l-289 -774h-551zM1020 1542l127 318h469l-242 -318h-354z" />
    <glyph glyph-name="wacute" unicode="&#x1e83;" horiz-adv-x="1767" 
d="M227 0l-147 1071h473l33 -526l205 526h372l37 -526l205 526h448l-505 -1071h-435l-43 492l-196 -492h-447zM821 1163l146 359h448l-260 -359h-334z" />
    <glyph glyph-name="Wdieresis" unicode="&#x1e84;" horiz-adv-x="2103" 
d="M256 0l-109 1464h553l7 -805l266 805h459l41 -815l274 815h498l-572 -1464h-528l-49 774l-289 -774h-551zM979 1520q-88 0 -148.5 58.5t-60.5 143.5t60.5 144t148.5 59t149.5 -59t61.5 -144t-61.5 -143.5t-149.5 -58.5zM1456 1520q-88 0 -147.5 58.5t-59.5 143.5t60 144
t147 59q89 0 150 -59t61 -144t-61 -143.5t-150 -58.5z" />
    <glyph glyph-name="wdieresis" unicode="&#x1e85;" horiz-adv-x="1767" 
d="M227 0l-147 1071h473l33 -526l205 526h372l37 -526l205 526h448l-505 -1071h-435l-43 492l-196 -492h-447zM756 1130q-88 0 -148.5 59t-60.5 144t60.5 144t148.5 59t149.5 -59t61.5 -144t-61.5 -144t-149.5 -59zM1217 1130q-87 0 -147 59t-60 144t60 144t147 59
q89 0 149.5 -59t60.5 -144t-60.5 -144t-149.5 -59z" />
    <glyph glyph-name="Ygrave" unicode="&#x1ef2;" horiz-adv-x="1478" 
d="M383 0l96 623l-336 841h566l120 -389l242 389h543l-588 -868l-94 -596h-549zM725 1542l-182 318h465l61 -318h-344z" />
    <glyph glyph-name="ygrave" unicode="&#x1ef3;" horiz-adv-x="1257" 
d="M96 -352l248 473l-264 950h487l88 -475l226 475h460l-782 -1423h-463zM573 1163l-194 359h444l74 -359h-324z" />
    <glyph glyph-name="uni2009" unicode="&#x2009;" horiz-adv-x="153" 
 />
    <glyph glyph-name="endash" unicode="&#x2013;" horiz-adv-x="1122" 
d="M84 489l41 252h934l-41 -252h-934z" />
    <glyph glyph-name="emdash" unicode="&#x2014;" horiz-adv-x="2002" 
d="M84 489l41 252h1814l-41 -252h-1814z" />
    <glyph glyph-name="quoteleft" unicode="&#x2018;" horiz-adv-x="667" 
d="M506 813l-397 127l350 553l252 -92z" />
    <glyph glyph-name="quoteright" unicode="&#x2019;" horiz-adv-x="665" 
d="M344 1493l397 -127l-348 -553l-252 92z" />
    <glyph glyph-name="quotesinglbase" unicode="&#x201a;" horiz-adv-x="665" 
d="M168 471l397 -127l-348 -553l-252 92z" />
    <glyph glyph-name="quotedblleft" unicode="&#x201c;" horiz-adv-x="1183" 
d="M506 813l-397 127l350 553l252 -92zM1024 813l-397 127l348 553l252 -92z" />
    <glyph glyph-name="quotedblright" unicode="&#x201d;" horiz-adv-x="1183" 
d="M862 1493l398 -127l-351 -553l-252 92zM344 1493l397 -127l-348 -553l-252 92z" />
    <glyph glyph-name="quotedblbase" unicode="&#x201e;" horiz-adv-x="1183" 
d="M686 471l397 -127l-350 -553l-252 92zM168 471l397 -127l-348 -553l-252 92z" />
    <glyph glyph-name="dagger" unicode="&#x2020;" horiz-adv-x="862" 
d="M227 436l76 482h-209l51 319h209l37 227h371l-37 -227h209l-51 -319h-209l-76 -482h-371z" />
    <glyph glyph-name="daggerdbl" unicode="&#x2021;" horiz-adv-x="862" 
d="M301 895l16 111h-208l45 284h208l29 174h371l-29 -174h209l-45 -284h-209l-16 -111h209l-45 -285h-209l-29 -174h-371l29 174h-209l45 285h209z" />
    <glyph glyph-name="bullet" unicode="&#x2022;" horiz-adv-x="802" 
d="M399 285q-137 0 -228 91.5t-91 215.5q0 157 99 256.5t243 99.5q141 0 231 -92.5t90 -222.5q0 -152 -99 -250t-245 -98z" />
    <glyph glyph-name="ellipsis" unicode="&#x2026;" horiz-adv-x="1921" 
d="M258 -29q-108 0 -179 71t-71 175q0 103 70.5 174.5t177.5 71.5q111 0 185.5 -72t74.5 -174q0 -104 -73.5 -175t-184.5 -71zM903 -29q-108 0 -179 71t-71 175q0 103 70.5 174.5t177.5 71.5q111 0 185.5 -72t74.5 -174q0 -104 -73.5 -175t-184.5 -71zM1548 -29
q-108 0 -179 71t-71 175q0 103 70.5 174.5t177.5 71.5q111 0 185.5 -72t74.5 -174q0 -104 -73.5 -175t-184.5 -71z" />
    <glyph glyph-name="perthousand" unicode="&#x2030;" horiz-adv-x="2603" 
d="M434 1073q0 -41 19.5 -67t60.5 -25q49 1 72.5 51.5t23.5 114.5q0 39 -19 63.5t-56 24.5q-50 0 -75.5 -47t-25.5 -115zM502 725q-108 0 -196 35t-145 112t-57 185q0 183 122.5 304.5t318.5 121.5q104 0 191.5 -36t144.5 -113t57 -183q0 -178 -122 -302t-314 -124zM195 0
l1212 1464h223l-1212 -1464h-223zM1208 319q0 -41 19.5 -67t60.5 -25q49 1 72.5 51.5t23.5 114.5q0 39 -19 63.5t-56 24.5q-50 0 -75.5 -47t-25.5 -115zM1276 -29q-108 0 -196 35t-144.5 112t-56.5 185q0 179 122.5 302.5t317.5 123.5q104 0 191.5 -36t144.5 -113t57 -183
q0 -178 -122 -302t-314 -124zM2073 319q0 -41 19 -67t60 -25q49 1 73 51.5t24 114.5q0 39 -19.5 63.5t-56.5 24.5q-49 0 -74.5 -46.5t-25.5 -115.5zM2140 -29q-108 0 -196 35t-144.5 112t-56.5 185q0 179 122.5 302.5t317.5 123.5q104 0 191.5 -36t144.5 -113t57 -183
q0 -178 -122 -302t-314 -124z" />
    <glyph glyph-name="uni2032" unicode="&#x2032;" horiz-adv-x="550" 
d="M111 868l131 596h428l-230 -596h-329z" />
    <glyph glyph-name="uni2033" unicode="&#x2033;" horiz-adv-x="1038" 
d="M111 868l131 596h428l-230 -596h-329zM598 868l131 596h428l-229 -596h-330z" />
    <glyph glyph-name="guilsinglleft" unicode="&#x2039;" horiz-adv-x="612" 
d="M221 129l-190 422l305 389h299l-299 -391l164 -420h-279z" />
    <glyph glyph-name="guilsinglright" unicode="&#x203a;" horiz-adv-x="612" 
d="M383 940l190 -422l-305 -389h-299l299 391l-164 420h279z" />
    <glyph glyph-name="fraction" unicode="&#x2044;" horiz-adv-x="401" 
d="M-520 0l1265 1464h224l-1266 -1464h-223z" />
    <glyph glyph-name="Euro" unicode="&#x20ac;" horiz-adv-x="1521" 
d="M72 766l24 160h113q69 269 255.5 415t461.5 146q291 0 454.5 -142t159.5 -427h-504q0 82 -26 121.5t-101 39.5q-119 0 -172 -153h232l-51 -160h-216l-12 -78h203l-53 -160h-160q13 -141 141 -141q73 0 115.5 44.5t67.5 141.5h497q-111 -602 -706 -602q-292 0 -458 147
t-177 410h-125l24 160h107l12 78h-106z" />
    <glyph glyph-name="trademark" unicode="&#x2122;" horiz-adv-x="1603" 
d="M739 807l105 657h305l47 -252l135 252h332l-104 -657h-277l47 303l-162 -303h-84l-63 303l-47 -303h-234zM250 807l69 442h-155l35 215h583l-34 -215h-156l-70 -442h-272z" />
    <glyph glyph-name="onethird" unicode="&#x2153;" horiz-adv-x="1779" 
d="M229 659l76 474l-182 -86l43 274l244 143h290l-129 -805h-342zM102 0l1266 1464h223l-1265 -1464h-224zM1313 -16q-178 0 -278 73t-101 224h299q0 -66 63 -66q22 0 39 12.5t17 40.5q0 43 -76 43h-62l29 181h76q74 0 74 53q0 43 -52 43q-55 0 -69 -62h-295q20 139 122 215
t275 76q63 0 118.5 -10.5t107 -33.5t82 -68.5t30.5 -108.5q0 -75 -44.5 -123.5t-121.5 -69.5q140 -30 140 -159q0 -130 -105 -195t-268 -65z" />
    <glyph glyph-name="twothirds" unicode="&#x2154;" horiz-adv-x="1916" 
d="M31 659l8 41l305 273q42 37 61 54t55.5 53t53 61.5t16.5 44.5q0 45 -38 45q-55 0 -74 -94h-312q24 170 132.5 255t279.5 85q76 0 137 -13t110 -41t76 -78t27 -118q0 -80 -54 -150.5t-163 -158.5l-22 -19h190l-39 -240h-749zM289 0l1265 1464h224l-1266 -1464h-223z
M1450 -16q-178 0 -278 73t-101 224h299q0 -66 64 -66q22 0 38.5 12.5t16.5 40.5q0 43 -76 43h-61l28 181h76q74 0 74 53q0 43 -51 43q-56 0 -70 -62h-295q20 139 122 215t275 76q63 0 118.5 -10.5t107 -33.5t82 -68.5t30.5 -108.5q0 -75 -44.5 -123.5t-121.5 -69.5
q140 -30 140 -159q0 -130 -105 -195t-268 -65z" />
    <glyph glyph-name="oneeighth" unicode="&#x215b;" horiz-adv-x="1781" 
d="M229 659l76 474l-182 -86l43 274l244 143h290l-129 -805h-342zM109 0l1265 1464h223l-1265 -1464h-223zM1313 -16q-60 0 -115 6.5t-108.5 23t-92 42t-62.5 66.5t-24 93q0 89 44 138t132 77q-94 53 -94 139q0 66 31.5 116t84.5 77.5t114.5 41t130.5 13.5q72 0 134 -12.5
t113.5 -38.5t81 -70t29.5 -102q0 -153 -133 -191q59 -21 90 -63t31 -94q0 -59 -23.5 -105.5t-61 -75.5t-89 -47.5t-104 -26t-109.5 -7.5zM1309 205q29 0 48 16.5t19 46.5q0 24 -15.5 40t-43.5 16q-29 0 -48.5 -17.5t-19.5 -48.5q0 -23 16 -38t44 -15zM1343 489q27 0 45.5 17
t18.5 45q0 24 -16 38.5t-41 14.5q-24 0 -43 -16t-19 -45q0 -24 14.5 -39t40.5 -15z" />
    <glyph glyph-name="threeeighths" unicode="&#x215c;" horiz-adv-x="1921" 
d="M479 643q-178 0 -278 73t-101 224h299q0 -66 64 -66q22 0 38.5 13t16.5 41q0 43 -76 43h-61l29 180h75q74 0 74 53q0 43 -51 43q-56 0 -70 -61h-295q20 139 122.5 215t275.5 76q63 0 118.5 -10.5t107 -34t82 -69t30.5 -108.5q0 -146 -166 -192q139 -30 139 -160
t-105 -195t-268 -65zM252 0l1266 1464h223l-1266 -1464h-223zM1452 -16q-77 0 -144 11.5t-127 36t-95 72t-35 111.5q0 89 44 138t132 77q-94 53 -94 139q0 53 21 96t55.5 71t82 46.5t97.5 26.5t104 8q72 0 134 -12.5t113.5 -38.5t81 -70t29.5 -102q0 -153 -133 -191
q59 -21 90 -63t31 -94q0 -59 -23.5 -105.5t-61 -75.5t-89 -47.5t-104 -26t-109.5 -7.5zM1448 205q29 0 48.5 16.5t19.5 46.5q0 24 -16 40t-44 16q-29 0 -48 -17.5t-19 -48.5q0 -23 15.5 -38t43.5 -15zM1483 489q27 0 45 17t18 45q0 24 -16 38.5t-41 14.5q-24 0 -43 -16
t-19 -45q0 -24 15 -39t41 -15z" />
    <glyph glyph-name="fiveeighths" unicode="&#x215d;" horiz-adv-x="1867" 
d="M471 643q-73 0 -137.5 15t-119 46.5t-87.5 88t-35 131.5h318q4 -37 51 -37q23 0 39 15.5t16 45.5q0 51 -53 51q-43 0 -60 -43h-276l111 508h643l-37 -233h-414l-33 -150q77 115 230 115q104 0 164.5 -54t60.5 -161q0 -169 -103 -253.5t-278 -84.5zM209 0l1266 1464h223
l-1266 -1464h-223zM1399 -16q-60 0 -115 6.5t-108.5 23t-92 42t-62.5 66.5t-24 93q0 89 44.5 138t132.5 77q-95 54 -95 139q0 66 31.5 116t84.5 77.5t114.5 41t130.5 13.5q72 0 134 -12.5t113.5 -38.5t81 -70t29.5 -102q0 -153 -133 -191q59 -21 90 -63t31 -94
q0 -59 -23.5 -105.5t-61 -75.5t-89 -47.5t-104 -26t-109.5 -7.5zM1395 205q29 0 48 16.5t19 46.5q0 24 -15.5 40t-43.5 16q-29 0 -48.5 -17.5t-19.5 -48.5q0 -23 16 -38t44 -15zM1430 489q27 0 45 17t18 45q0 24 -16 38.5t-41 14.5q-24 0 -43 -16t-19 -45q0 -24 15 -39
t41 -15z" />
    <glyph glyph-name="seveneighths" unicode="&#x215e;" horiz-adv-x="1773" 
d="M145 659l291 541h-286l43 264h720l-6 -37l-415 -768h-347zM96 0l1266 1464h223l-1266 -1464h-223zM1305 -16q-60 0 -115 6.5t-108.5 23t-92 42t-62.5 66.5t-24 93q0 89 44 138t132 77q-94 53 -94 139q0 66 31.5 116t84.5 77.5t114.5 41t130.5 13.5q72 0 134 -12.5
t113.5 -38.5t81 -70t29.5 -102q0 -153 -133 -191q59 -21 90 -63t31 -94q0 -59 -23.5 -105.5t-61 -75.5t-89 -47.5t-104 -26t-109.5 -7.5zM1300 205q29 0 48.5 16.5t19.5 46.5q0 24 -15.5 40t-43.5 16q-29 0 -48.5 -17.5t-19.5 -48.5q0 -23 15.5 -38t43.5 -15zM1335 489
q27 0 45.5 17t18.5 45q0 24 -16.5 38.5t-41.5 14.5q-24 0 -42.5 -16t-18.5 -45q0 -24 14.5 -39t40.5 -15z" />
    <glyph glyph-name="minus" unicode="&#x2212;" 
d="M74 518l55 352h1073l-55 -352h-1073z" />
    <glyph glyph-name="approxequal" unicode="&#x2248;" horiz-adv-x="1269" 
d="M29 201q29 222 124.5 324t231.5 102q94 0 257 -39t202 -39q78 0 100 88h254q-21 -207 -120.5 -316.5t-233.5 -109.5q-95 0 -258 39t-203 39q-80 0 -100 -88h-254zM109 698q29 222 124.5 324t231.5 102q94 0 257 -38.5t202 -38.5q78 0 100 88h254q-21 -207 -120.5 -316.5
t-233.5 -109.5q-95 0 -258 38.5t-203 38.5q-81 0 -101 -88h-253z" />
    <glyph glyph-name="notequal" unicode="&#x2260;" horiz-adv-x="1216" 
d="M106 731l48 303h518l96 191h279l-97 -191h264l-47 -303h-370l-60 -117h412l-47 -303h-518l-97 -190h-278l96 190h-264l47 303h371l59 117h-412z" />
    <glyph glyph-name="lessequal" unicode="&#x2264;" horiz-adv-x="1058" 
d="M940 317l-827 496l14 84l979 471l-66 -420l-258 -108l224 -117zM-12 0l45 291h903l-45 -291h-903z" />
    <glyph glyph-name="greaterequal" unicode="&#x2265;" horiz-adv-x="1058" 
d="M211 1368l827 -496l-14 -84l-979 -471l66 420l258 109l-224 117zM-4 0l45 291h903l-45 -291h-903z" />
    <glyph glyph-name="uni24C5" unicode="&#x24c5;" horiz-adv-x="1724" 
d="M571 319v834h359q358 0 358 -297v-4q0 -135 -85 -208t-255 -73h-67v-252h-310zM881 776h28q88 0 88 76v4q0 68 -86 68h-30v-148zM887 61q137 0 259 49t211 136t141 214t52 275q0 195 -87 348t-237 236.5t-335 83.5q-187 0 -338.5 -84t-238.5 -238t-87 -350
q0 -197 89 -351t239 -236.5t332 -82.5zM887 -51q-164 0 -312.5 60.5t-256 163.5t-171 249t-63.5 309q0 162 63 307t170.5 250t257.5 166.5t316 61.5q168 0 317.5 -61t256 -165.5t168 -249t61.5 -305.5q0 -164 -63 -310.5t-171 -250.5t-257 -164.5t-316 -60.5z" />
    <glyph glyph-name="f_i" unicode="&#xfb01;" horiz-adv-x="1464" 
d="M96 1071h125l17 98q17 102 62.5 177t113 119.5t148.5 65.5t177 21q127 0 215 -30l-53 -336q-47 14 -90 14q-99 0 -115 -84l-8 -45h195l-47 -305h-195l-121 -766h-467l121 766h-125zM821 0l168 1071h467l-168 -1071h-467zM1260 1114q-106 0 -173 63.5t-67 161.5t68 162
t174 64q104 0 172.5 -64t68.5 -162t-69 -161.5t-174 -63.5z" />
    <glyph glyph-name="f_l" unicode="&#xfb02;" horiz-adv-x="1458" 
d="M96 1071h125l17 98q17 102 62.5 177t113 119.5t148.5 65.5t177 21q127 0 215 -30l-53 -336q-47 14 -90 14q-99 0 -115 -84l-8 -45h195l-47 -305h-195l-121 -766h-467l121 766h-125zM819 0l240 1522h465l-240 -1522h-465z" />
    <glyph glyph-name="space_uni0326" horiz-adv-x="819" 
d="M307 -483l-254 55l84 354h404z" />
    <glyph glyph-name="caron.alt" horiz-adv-x="819" 
d="M373 1165l69 357h314l-158 -357h-225z" />
    <glyph glyph-name="space_uni0326.alt" horiz-adv-x="819" 
d="M541 1561l254 -56l-84 -354h-404z" />
    <glyph glyph-name="grave.uc" horiz-adv-x="819" 
d="M426 1542l-182 318h465l61 -318h-344z" />
    <glyph glyph-name="dieresis.uc" horiz-adv-x="819" 
d="M356 1520q-88 0 -148.5 58.5t-60.5 143.5t60.5 144t148.5 59t149.5 -59t61.5 -144t-61.5 -143.5t-149.5 -58.5zM834 1520q-88 0 -147.5 58.5t-59.5 143.5t60 144t147 59q89 0 149.5 -59t60.5 -144t-60.5 -143.5t-149.5 -58.5z" />
    <glyph glyph-name="macron.uc" horiz-adv-x="819" 
d="M211 1565l41 264h719l-41 -264h-719z" />
    <glyph glyph-name="acute.uc" horiz-adv-x="819" 
d="M369 1542l127 318h469l-242 -318h-354z" />
    <glyph glyph-name="circumflex.uc" horiz-adv-x="819" 
d="M139 1542l277 318h387l190 -318h-325l-82 90l-103 -90h-344z" />
    <glyph glyph-name="caron.uc" horiz-adv-x="819" 
d="M1034 1860l-276 -318h-387l-191 318h326l82 -91l102 91h344z" />
    <glyph glyph-name="breve.uc" horiz-adv-x="819" 
d="M598 1524q-179 0 -271 88.5t-94 247.5h287q2 -34 23 -54t59 -20q34 0 57 19t29 55h291q-28 -163 -127 -249.5t-254 -86.5z" />
    <glyph glyph-name="dotaccent.uc" horiz-adv-x="819" 
d="M598 1520q-103 0 -170.5 61t-67.5 156t68 157t170 62t171 -62t69 -157q0 -94 -69 -155.5t-171 -61.5z" />
    <glyph glyph-name="ring.uc" horiz-adv-x="819" 
d="M602 1663q38 0 63 26.5t25 69.5t-25 69.5t-63 26.5q-40 0 -64 -26.5t-24 -69.5t24 -69.5t64 -26.5zM602 1509q-106 0 -182 73.5t-76 176.5t76 176.5t182 73.5t182 -73.5t76 -176.5t-76 -176.5t-182 -73.5z" />
    <glyph glyph-name="tilde.uc" horiz-adv-x="819" 
d="M721 1536q-56 0 -105 15t-86 29.5t-61 14.5q-23 0 -39.5 -15t-21.5 -38h-252q28 178 110.5 265t194.5 87q67 0 147.5 -29.5t110.5 -29.5q47 0 63 53h252q-16 -91 -48 -160t-75 -110t-90.5 -61.5t-99.5 -20.5z" />
    <glyph glyph-name="hungarumlaut.uc" horiz-adv-x="819" 
d="M178 1542l123 318h375l-191 -318h-307zM618 1542l123 318h375l-190 -318h-308z" />
    <glyph glyph-name="idotaccent" horiz-adv-x="647" 
d="M442 1114q-105 0 -172 63t-67 162q0 98 67.5 162t173.5 64q104 0 173 -64t69 -162t-69.5 -161.5t-174.5 -63.5zM4 0l168 1071h467l-168 -1071h-467z" />
    <glyph glyph-name="registered.alt" horiz-adv-x="1724" 
d="M532 322v833h365q365 0 365 -281v-4q0 -148 -121 -217l170 -331h-318l-129 264h-24v-264h-308zM840 780h37q86 0 86 74v6q0 64 -84 64h-39v-144zM887 61q137 0 259 49t211 136t141 214t52 275q0 195 -87 348t-237 236.5t-335 83.5q-187 0 -338.5 -84t-238.5 -238
t-87 -350q0 -197 89 -351t239 -236.5t332 -82.5zM887 -51q-164 0 -312.5 60.5t-256 163.5t-171 249t-63.5 309q0 162 63 307t170.5 250t257.5 166.5t316 61.5q168 0 317.5 -61t256 -165.5t168 -249t61.5 -305.5q0 -164 -63 -310.5t-171 -250.5t-257 -164.5t-316 -60.5z" />
    <glyph glyph-name="dollar.old" horiz-adv-x="1306" 
d="M446 -268l39 252q-96 13 -174.5 43t-148 83.5t-110 141.5t-44.5 205h453q0 -97 80 -135l30 194q-251 49 -358 147t-107 277q0 118 49 214t133 158t194 96t235 36l28 172h175l-29 -182q441 -52 459 -447h-443q0 75 -71 105l-31 -195q238 -44 356.5 -137.5t118.5 -276.5
q0 -126 -47.5 -224t-132 -159t-196 -93t-245.5 -34l-36 -241h-177zM825 401q0 28 -19.5 46.5t-66.5 31.5l-26 -174q112 12 112 96zM555 1018q0 -34 19 -55t63 -33l27 176q-46 -5 -77.5 -26t-31.5 -62z" />
    <glyph glyph-name="Euro.old" horiz-adv-x="1476" 
d="M70 743l24 154h107q68 261 248.5 403t447.5 142q283 0 441.5 -137.5t154.5 -413.5h-487q0 79 -25.5 117.5t-97.5 38.5q-119 0 -168 -150h225l-49 -154h-209l-12 -75h196l-51 -156h-156q13 -137 138 -137q71 0 111.5 43.5t64.5 138.5h483q-108 -586 -686 -586
q-283 0 -443.5 142.5t-172.5 398.5h-121l24 156h103l6 37l6 38h-102z" />
    <glyph glyph-name="sterling.old" horiz-adv-x="1368" 
d="M57 561l41 262h80q-8 70 -8 111q0 158 83 275t221 175t312 58q105 0 191.5 -16t162 -54.5t127 -98.5t80 -152t27.5 -212h-485q3 75 -19.5 107.5t-76.5 32.5q-35 0 -59.5 -15t-37 -43.5t-17.5 -60.5t-5 -74v-33h334l-43 -262h-291q-7 -81 -39 -155q89 -19 123 -19
q91 0 106 90h475q-14 -109 -52.5 -198t-100.5 -156t-153.5 -104t-205.5 -37q-91 0 -178.5 23.5t-151 47t-96.5 23.5q-35 0 -58.5 -21t-29.5 -55h-379q21 141 84 247.5t164 155.5q34 76 37 158h-162z" />
    <glyph glyph-name="yen.old" horiz-adv-x="1355" 
d="M119 598l24 156h252l-250 667h560l73 -370l199 370h514l-447 -667h259l-23 -156h-317l-11 -76h314l-25 -155h-313l-58 -367h-532l57 367h-313l22 155h316l10 76h-311z" />
    <glyph glyph-name="zero.old" horiz-adv-x="1413" 
d="M547 512q2 -82 35 -122t112 -40q80 0 122 59t63 189l6 39q10 75 10 119q0 79 -33.5 121.5t-113.5 42.5q-78 0 -121 -59.5t-64 -188.5l-6 -39q-10 -56 -10 -121zM684 -29q-134 0 -249 34.5t-203 102t-138.5 176.5t-50.5 248q0 57 10 132l6 38q46 295 231.5 444.5
t467.5 149.5q102 0 195.5 -22t174 -67.5t140.5 -111t94 -158t35 -202.5q0 -67 -11 -129l-6 -39q-96 -596 -696 -596z" />
    <glyph glyph-name="one.old" horiz-adv-x="942" 
d="M221 0l121 768l-264 -133l65 418l353 215h428l-201 -1268h-502z" />
    <glyph glyph-name="two.old" horiz-adv-x="1247" 
d="M-78 0l10 63l502 437q10 9 53 45.5t68 58t64.5 60t62 66t40 60t17.5 56.5q0 74 -88 74q-48 0 -86 -42t-55 -120h-455q38 258 208 398t435 140q264 0 405.5 -105t141.5 -290q0 -69 -21.5 -130t-67 -120t-100.5 -110t-138 -117l-87 -68h345l-56 -356h-1198z" />
    <glyph glyph-name="three.old" horiz-adv-x="1298" 
d="M606 -213q-295 0 -461.5 130.5t-162.5 393.5h456q7 -155 148 -155q60 2 98.5 36.5t38.5 96.5q0 108 -143 108h-121l49 301h127q69 0 112.5 32t43.5 106q0 47 -27.5 73.5t-81.5 26.5q-121 0 -158 -152h-461q43 238 207.5 375t444.5 137q162 0 283.5 -41t195.5 -132.5
t74 -225.5q0 -130 -76 -219.5t-203 -126.5q225 -75 225 -299q0 -146 -84.5 -253.5t-220.5 -159.5t-303 -52z" />
    <glyph glyph-name="four.old" horiz-adv-x="1425" 
d="M598 -184l41 250h-702l26 170l746 1032h622l-139 -877h180l-51 -325h-180l-41 -250h-502zM459 391h246l75 483z" />
    <glyph glyph-name="five.old" horiz-adv-x="1300" 
d="M575 -213q-123 0 -229 29.5t-190.5 88.5t-132.5 158.5t-46 229.5h474q6 -131 133 -131q61 0 102 44.5t41 112.5q0 134 -160 134q-122 0 -196 -93h-326l191 908h1040l-62 -383h-675l-56 -262q140 163 361 163q180 0 285.5 -110.5t105.5 -294.5q0 -281 -179.5 -437.5
t-480.5 -156.5z" />
    <glyph glyph-name="six.old" horiz-adv-x="1374" 
d="M682 -27q-190 0 -329 61.5t-219 189.5t-83 313q0 83 19 208l12 74q54 318 250.5 493t492.5 175q93 0 173 -15t151.5 -50t122 -88t79 -133t27.5 -181h-473q-7 90 -100 90q-84 0 -135 -83t-84 -257q46 67 132.5 115.5t211.5 48.5q113 0 203 -43.5t146 -135.5t56 -220
q0 -138 -51 -247t-141 -177t-207 -103t-254 -35zM563 461q-2 -55 32 -91t93 -36q64 0 107 47t43 121q0 56 -33 89.5t-90 33.5q-64 0 -107 -46.5t-45 -117.5z" />
    <glyph glyph-name="seven.old" horiz-adv-x="1220" 
d="M59 -184l539 1036h-516l68 416h1181l-10 -54l-719 -1398h-543z" />
    <glyph glyph-name="eight.old" horiz-adv-x="1398" 
d="M547 455q0 -60 34.5 -92.5t96.5 -32.5t103.5 40.5t41.5 112.5q0 58 -35 89.5t-94 31.5q-62 0 -104.5 -39t-42.5 -110zM651 1008q0 -50 30.5 -82.5t86.5 -32.5q55 0 94 35.5t39 97.5q0 52 -33 84.5t-84 32.5q-54 0 -93.5 -36.5t-39.5 -98.5zM657 -29q-102 0 -193.5 15.5
t-171.5 48t-138 80.5t-91.5 118t-33.5 154q0 155 86.5 251.5t232.5 139.5q-75 40 -116.5 106.5t-41.5 151.5q0 113 50 201t135.5 141.5t191.5 81t226 27.5q82 0 159.5 -12t154.5 -41.5t134.5 -74.5t93 -116t35.5 -160q0 -114 -69 -204t-181 -134q101 -40 152 -117t51 -175
q0 -160 -85.5 -270t-233 -161t-347.5 -51z" />
    <glyph glyph-name="nine.old" horiz-adv-x="1374" 
d="M725 1296q296 0 458.5 -149t166.5 -430q0 -70 -21 -203l-12 -74q-53 -322 -248.5 -489.5t-503.5 -167.5q-117 0 -216 26.5t-180 81.5t-126.5 149.5t-44.5 219.5h477q6 -100 111 -100q94 0 144.5 81t84.5 259q-46 -67 -132.5 -115.5t-211.5 -48.5q-84 0 -156.5 24
t-128.5 71t-88 122.5t-32 171.5q0 176 86.5 307t235 197.5t337.5 66.5zM838 809q2 55 -32 91t-93 36q-64 0 -107 -47t-43 -121q0 -56 33 -89.5t90 -33.5q64 0 107 46.5t45 117.5z" />
    <glyph glyph-name="dollar.tab" 
d="M408 -276l41 260q-99 14 -179 47t-143 90t-94 146t-23 204h422q-6 -104 72 -135l31 192q-228 50 -330.5 153t-102.5 284q0 160 77 279.5t208.5 180.5t298.5 62l29 178h162l-31 -188q201 -25 310 -133.5t108 -325.5h-414q-3 77 -59 100l-31 -192q99 -21 175 -53.5
t136.5 -82t92.5 -123t32 -167.5q0 -251 -159.5 -387.5t-428.5 -139.5l-39 -249h-161zM764 416q0 30 -16.5 48.5t-57.5 31.5l-26 -177q100 14 100 97zM530 1042q0 -59 72 -84l29 177q-101 -12 -101 -93z" />
    <glyph glyph-name="Euro.tab" 
d="M55 770l25 160h84q50 282 203 420.5t391 136.5q263 -2 393 -132.5t104 -387.5h-430q7 66 -9 98.5t-71 32.5q-49 0 -74.5 -38t-43.5 -130h217l-51 -160h-191l-12 -78h178l-51 -160h-154q-5 -47 -4.5 -85t23 -61.5t67.5 -23.5q49 0 75 32t36 114h424
q-36 -278 -179.5 -407.5t-388.5 -129.5q-275 0 -406.5 148.5t-107.5 412.5h-84l25 160h84l12 78h-84z" />
    <glyph glyph-name="sterling.tab" 
d="M37 584l41 258h80q-11 72 -11 129q0 243 157 379.5t411 136.5q287 0 416.5 -130.5t103.5 -408.5h-430q7 74 -16 103.5t-72 29.5q-29 0 -49.5 -12.5t-32 -31t-18 -47t-8 -52.5t-1.5 -57v-39h285l-41 -258h-242q-9 -83 -39 -166q66 -15 95 -15q89 0 104 89h436
q-32 -249 -156 -379.5t-325 -130.5q-64 0 -123 15t-93.5 33t-71 33t-62.5 15q-31 0 -51.5 -20.5t-26.5 -57.5h-360q43 291 208 399q44 96 50 185h-158z" />
    <glyph glyph-name="yen.tab" 
d="M80 616l26 160h267l-217 688h516l53 -319l154 319h485l-436 -688h286l-26 -160h-299l-12 -77h299l-25 -160h-299l-59 -379h-527l60 379h-283l25 160h282l12 77h-282z" />
    <glyph glyph-name="zero.tab" 
d="M528 571q-12 -90 -12 -110q0 -48 19 -70t61 -22q48 0 69.5 41t39.5 151l53 330q12 74 12 117q0 47 -18 68.5t-58 21.5q-49 0 -71.5 -42.5t-40.5 -152.5zM557 -29q-238 0 -376 123.5t-138 362.5q0 69 12 145l54 334q44 268 204.5 409.5t407.5 141.5q153 0 269 -52.5
t184.5 -163t68.5 -267.5q0 -75 -10 -134l-53 -331q-44 -278 -203.5 -423t-419.5 -145z" />
    <glyph glyph-name="one.tab" 
d="M369 0l147 928l-348 -189l72 451l440 274h465l-232 -1464h-544z" />
    <glyph glyph-name="two.tab" 
d="M-47 0l10 70l469 524q12 13 55.5 60t68 75t63.5 76t60.5 82t38.5 73.5t17 69.5q0 72 -61 72q-41 0 -63 -42.5t-44 -162.5h-481q40 297 198 443.5t449 146.5q84 0 157.5 -13t139.5 -43.5t114 -76.5t76.5 -115.5t30.5 -157.5q1 -82 -21.5 -155.5t-76 -149.5t-117.5 -144.5
t-168 -166.5l-69 -66h350l-62 -399h-1134z" />
    <glyph glyph-name="three.tab" 
d="M602 -29q-89 0 -164 11t-144.5 35t-121 65.5t-89 99.5t-54.5 140.5t-13 185.5h453q0 -83 21.5 -121.5t87.5 -38.5q114 0 114 135q0 97 -104 97h-113l51 313h123q59 0 94 32.5t35 102.5q0 84 -90 84q-52 0 -85 -33.5t-46 -113.5h-459q46 254 201 388t414 134
q81 0 153.5 -11t143 -39t121.5 -71t82.5 -112.5t31.5 -157.5q0 -136 -70 -227.5t-194 -125.5q95 -27 150 -100t55 -180q0 -227 -159 -359.5t-425 -132.5z" />
    <glyph glyph-name="four.tab" 
d="M500 0l41 266h-572l31 189l621 1009h581l-135 -854h135l-55 -344h-135l-41 -266h-471zM426 610h182l70 437z" />
    <glyph glyph-name="five.tab" 
d="M567 -29q-277 0 -416 130.5t-116 392.5h446q-3 -60 17.5 -88.5t76.5 -28.5q59 0 86 45t27 117q0 114 -125 114q-56 0 -100 -25t-68 -67h-317l184 903h975l-59 -377h-619l-59 -274q54 77 138.5 127.5t195.5 50.5q167 0 258.5 -100.5t91.5 -292.5q0 -292 -160.5 -459.5
t-456.5 -167.5z" />
    <glyph glyph-name="six.tab" 
d="M608 -29q-124 0 -225.5 31.5t-177 93.5t-117 161.5t-41.5 229.5q0 73 19 189l26 174q51 317 226 477t438 160q255 0 378.5 -113.5t116.5 -353.5h-434q3 51 -14 76.5t-66 25.5q-141 0 -188 -323q107 151 285 151q161 0 259.5 -102t98.5 -291q0 -263 -158.5 -424.5
t-425.5 -161.5zM498 477q0 -52 29.5 -87.5t82.5 -35.5q59 0 95 41.5t36 110.5q0 53 -28 86t-80 33q-57 0 -96 -40.5t-39 -107.5z" />
    <glyph glyph-name="seven.tab" 
d="M80 0l528 1036h-483l68 428h1150l-8 -53l-710 -1411h-545z" />
    <glyph glyph-name="eight.tab" 
d="M588 -29q-85 0 -163.5 11.5t-156 40.5t-134 73t-91.5 115.5t-35 161.5q0 293 289 403q-143 91 -143 246q0 111 45.5 201t122.5 146.5t175.5 87t207.5 30.5q99 0 187 -20.5t164.5 -64t121.5 -121t45 -181.5q0 -131 -57 -215.5t-167 -139.5q183 -92 183 -280
q0 -123 -47 -219t-129.5 -155t-188.5 -89.5t-229 -30.5zM481 457q0 -52 30.5 -81.5t84.5 -29.5q57 0 96 41.5t39 108.5q0 53 -30 81.5t-85 28.5q-58 -2 -96.5 -42t-38.5 -107zM569 997q0 -46 27 -77t78 -31q52 0 88.5 37.5t36.5 97.5q0 47 -28 76.5t-77 29.5
q-53 0 -89 -37.5t-36 -95.5z" />
    <glyph glyph-name="nine.tab" 
d="M686 1489q123 0 222.5 -30.5t174.5 -92t115.5 -161.5t40.5 -232q0 -79 -18 -189l-27 -174q-55 -340 -214.5 -488.5t-457.5 -148.5q-252 0 -381 117t-123 352h439q0 -51 19 -77.5t69 -26.5q80 0 125 78t67 246q-108 -152 -284 -152q-161 0 -260 102t-99 291
q0 122 40.5 228.5t114.5 186t187 125.5t250 46zM791 989q0 52 -31 87.5t-84 35.5q-59 0 -96 -41.5t-37 -109.5q0 -53 29 -86t81 -33q58 0 98 40t40 107z" />
    <glyph glyph-name="cent.tab" 
d="M451 -276l41 256q-97 13 -178.5 49t-144 93.5t-98 141t-36.5 185.5q-1 184 76 330.5t222.5 232.5t336.5 90l28 186h136l-31 -192q396 -53 407 -465h-403q0 99 -57 127l-76 -473q54 12 84.5 49.5t44.5 105.5h387q-19 -209 -168.5 -336t-396.5 -133l-39 -247h-135zM477 455
q0 -119 64 -158l73 465q-137 -49 -137 -307z" />
    <glyph glyph-name="percent.tab" horiz-adv-x="1638" 
d="M430 1108q0 -40 16 -63.5t54 -22.5q46 1 66 45t20 104q0 37 -16.5 59.5t-51.5 22.5q-45 0 -66.5 -40.5t-21.5 -104.5zM489 784q-75 0 -140 18.5t-116 54.5t-80.5 95t-29.5 135q0 171 111 283.5t294 112.5q71 0 135.5 -19.5t115.5 -56.5t81.5 -97t30.5 -134
q0 -165 -112 -278.5t-290 -113.5zM137 0l1213 1464h223l-1213 -1464h-223zM1112 295q0 -40 16 -63.5t54 -22.5q46 1 66 45t20 104q0 37 -16.5 59.5t-51.5 22.5q-45 0 -66.5 -40.5t-21.5 -104.5zM1171 -29q-75 0 -140 18.5t-116 54.5t-80.5 95t-29.5 135q0 171 111 283.5
t294 112.5q96 0 176.5 -33t133.5 -105t53 -170q0 -165 -112 -278t-290 -113z" />
    <glyph glyph-name="perthousand.tab" horiz-adv-x="2048" 
d="M360 1075q0 -74 54 -74q80 0 80 199q0 74 -52 74q-25 0 -43 -22t-25.5 -57t-10.5 -64t-3 -56zM397 784q-141 0 -226 76.5t-85 216.5q0 175 100 290.5t273 115.5q134 0 220.5 -79t86.5 -214q0 -180 -99.5 -293t-269.5 -113zM-23 0l1229 1464h215l-1228 -1464h-216z
M899 262q0 -74 53 -74q80 0 80 199q0 74 -51 74q-25 0 -43 -22t-25.5 -57t-10.5 -64t-3 -56zM936 -29q-141 0 -226 76.5t-85 216.5q0 175 99.5 290.5t272.5 115.5q134 0 221 -79t87 -214q0 -180 -99.5 -293t-269.5 -113zM1612 262q0 -74 53 -74q80 0 80 199q0 74 -51 74
q-25 0 -43 -22t-25.5 -57t-10.5 -64t-3 -56zM1649 -29q-141 0 -226.5 77t-85.5 216q0 175 100 290.5t273 115.5q134 0 220.5 -79t86.5 -214q0 -180 -99 -293t-269 -113z" />
    <glyph glyph-name="plus.tab" 
d="M373 168l55 360h-330l54 332h329l58 361h368l-57 -361h326l-54 -332h-325l-56 -360h-368z" />
    <glyph glyph-name="minus.tab" 
d="M94 518l56 352h1032l-56 -352h-1032z" />
    <glyph glyph-name="multiply.tab" 
d="M37 385l356 309l-266 316l274 243l271 -319l356 309l211 -244l-358 -311l268 -313l-277 -244l-270 318l-354 -308z" />
    <glyph glyph-name="divide.tab" 
d="M96 539l49 311h1033l-50 -311h-1032zM586 39q-97 0 -160.5 63t-63.5 156q0 92 63 155.5t159 63.5q99 0 165 -63.5t66 -155.5q0 -93 -65 -156t-164 -63zM684 911q-97 0 -160 63t-63 156q0 92 63 156t158 64q99 0 165 -64t66 -156q0 -93 -65 -156t-164 -63z" />
    <glyph glyph-name="equal.tab" 
d="M68 311l47 303h1020l-48 -303h-1019zM133 731l47 303h1020l-47 -303h-1020z" />
    <glyph glyph-name="less.tab" 
d="M1030 84l-878 547l14 88l1046 518l-67 -428l-397 -152l346 -176z" />
    <glyph glyph-name="greater.tab" 
d="M236 1239l878 -547l-14 -88l-1047 -518l68 428l397 152l-346 176z" />
    <glyph glyph-name="florin.tab" 
d="M154 545l47 305h196l39 211q22 119 75.5 204t130 131.5t161.5 67.5t186 21q124 0 203 -23l-55 -342q-45 10 -101 10q-125 0 -147 -122l-31 -158h242l-47 -305h-250l-172 -918h-463l172 918h-186z" />
    <glyph glyph-name="plusminus.tab" 
d="M406 393l51 320h-348l51 331h348l51 320h369l-51 -320h348l-51 -331h-349l-51 -320h-368zM-4 0l45 291h1073l-45 -291h-1073z" />
    <glyph glyph-name="notequal.tab" 
d="M113 731l47 303h518l96 191h279l-97 -191h265l-47 -303h-371l-60 -117h412l-47 -303h-518l-96 -190h-279l96 190h-264l47 303h371l59 117h-411z" />
    <glyph glyph-name="approxequal.tab" 
d="M10 201q29 222 125 324t232 102q94 0 256.5 -39t201.5 -39q79 0 101 88h254q-21 -207 -121 -316.5t-234 -109.5q-95 0 -257.5 39t-202.5 39q-81 0 -101 -88h-254zM90 698q29 222 124.5 324t231.5 102q94 0 257 -38.5t202 -38.5q79 0 101 88h254q-21 -207 -121 -316.5
t-234 -109.5q-95 0 -258 38.5t-203 38.5q-80 0 -100 -88h-254z" />
    <glyph glyph-name="lessequal.tab" 
d="M1024 317l-827 496l14 84l979 471l-66 -420l-258 -108l224 -117zM72 0l45 291h903l-45 -291h-903z" />
    <glyph glyph-name="greaterequal.tab" 
d="M295 1368l827 -496l-14 -84l-979 -471l66 420l258 109l-224 117zM80 0l45 291h903l-45 -291h-903z" />
    <glyph glyph-name="parenleft.tab" horiz-adv-x="614" 
d="M539 -303h-293q-40 68 -70 130.5t-63.5 152.5t-51.5 197.5t-18 223.5q0 656 477 1188h318q-404 -595 -404 -1233q0 -220 28.5 -373.5t76.5 -285.5z" />
    <glyph glyph-name="parenright.tab" horiz-adv-x="614" 
d="M104 1589h293q40 -68 70 -130.5t63.5 -152.5t51.5 -197.5t18 -223.5q0 -656 -477 -1188h-318q404 595 404 1233q0 220 -28.5 373.5t-76.5 285.5z" />
    <glyph glyph-name="bracketleft.tab" horiz-adv-x="614" 
d="M-68 -303l299 1892h535l-45 -295h-123l-207 -1302h123l-47 -295h-535z" />
    <glyph glyph-name="bracketright.tab" horiz-adv-x="614" 
d="M-121 -303l45 295h123l207 1302h-123l45 295h535l-299 -1892h-533z" />
    <glyph glyph-name="braceleft.tab" horiz-adv-x="614" 
d="M467 -303q-167 5 -274 43.5t-153 108.5t-42.5 165t55.5 219l62 148q57 130 -103 139l45 279q81 -4 113 27.5t27 99.5l-15 186q-11 135 18.5 227t104.5 147.5t186 79t275 23.5l-47 -297q-83 -4 -109 -31.5t-24 -101.5l6 -209q3 -124 -55.5 -196.5t-200.5 -106.5
q255 -80 147 -354l-55 -143q-32 -73 -14 -109.5t100 -46.5z" />
    <glyph glyph-name="braceright.tab" horiz-adv-x="614" 
d="M176 1589q167 -5 274 -43.5t153 -108.5t42.5 -165t-55.5 -219l-62 -148q-57 -130 103 -139l-45 -279q-81 4 -113 -27.5t-27 -99.5l15 -186q11 -135 -18.5 -227t-104.5 -147.5t-186 -79t-275 -23.5l47 297q83 4 109 31.5t24 101.5l-6 209q-3 124 55.5 196.5t200.5 106.5
q-253 79 -145 354l55 144q31 73 13 109t-101 46z" />
    <glyph glyph-name="period.tab" horiz-adv-x="614" 
d="M252 -29q-108 0 -179 71t-71 175q0 103 70.5 174.5t177.5 71.5q111 0 185.5 -72t74.5 -174q0 -104 -73.5 -175t-184.5 -71z" />
    <glyph glyph-name="comma.tab" horiz-adv-x="614" 
d="M150 -254l-254 107l206 581l410 -143z" />
    <glyph glyph-name="colon.tab" horiz-adv-x="614" 
d="M250 -29q-108 0 -179 71t-71 175q0 103 70.5 174.5t177.5 71.5q111 0 185.5 -72t74.5 -174q0 -104 -73.5 -175t-184.5 -71zM342 545q-108 0 -179 71t-71 175q0 103 70.5 174t177.5 71q111 0 185.5 -71.5t74.5 -173.5q0 -104 -73.5 -175t-184.5 -71z" />
    <glyph glyph-name="semicolon.tab" horiz-adv-x="614" 
d="M344 545q-108 0 -179 71t-71 175q0 103 70.5 174t177.5 71q111 0 185.5 -71.5t74.5 -173.5q0 -104 -73.5 -175t-184.5 -71zM123 -254l-254 107l207 581l409 -143z" />
    <glyph glyph-name="space.tab" horiz-adv-x="614" 
 />
    <glyph glyph-name="dollar.oldtab" 
d="M414 -268l39 252q-96 14 -173 46.5t-138 88t-90.5 142t-20.5 196.5h409q-6 -101 68 -131l29 186q-219 50 -318.5 150t-99.5 274q0 116 43 211t119 159t178.5 99t222.5 37l29 174h157l-28 -182q195 -25 300.5 -130.5t104.5 -316.5h-399q-3 74 -62 98l-30 -186
q98 -20 172 -51.5t133 -79.5t90 -119.5t31 -163.5q0 -244 -154.5 -376.5t-417.5 -135.5l-37 -241h-157zM762 403q0 28 -17 46.5t-57 31.5l-26 -172q100 10 100 94zM535 1012q0 -54 67 -80l27 166q-94 -12 -94 -86z" />
    <glyph glyph-name="Euro.oldtab" 
d="M68 745l24 156h82q48 275 195.5 409t380.5 132q255 -2 381 -128.5t102 -375.5h-418q7 65 -9 96t-69 31q-48 0 -72 -36t-42 -128h211l-52 -156h-184l-12 -73h174l-51 -156h-148q-5 -46 -4.5 -82.5t21.5 -59t65 -22.5q49 0 74 30.5t35 111.5h411q-36 -271 -175 -397
t-376 -126q-266 0 -392.5 144t-104.5 401h-84l24 156h82l13 73h-82z" />
    <glyph glyph-name="sterling.oldtab" 
d="M57 565l41 252h76q-8 49 -8 125q0 236 151.5 368t399.5 132q278 0 403 -126t101 -396h-418q7 72 -15 100.5t-71 28.5q-34 0 -56.5 -16.5t-32.5 -48t-13 -60.5t-3 -70v-37h277l-39 -252h-236q-10 -96 -39 -159q66 -15 93 -15q40 0 67.5 21.5t34.5 64.5h422
q-31 -241 -151 -368t-316 -127q-80 0 -147.5 23.5t-114.5 47t-76 23.5q-30 0 -50 -20t-26 -56h-350q39 280 201 387q43 90 49 178h-154z" />
    <glyph glyph-name="yen.oldtab" 
d="M102 639l25 156h256l-221 626h518l57 -301l152 301h452l-413 -626h274l-24 -156h-291l-13 -76h291l-24 -155h-291l-64 -408h-510l64 408h-274l24 155h275l10 76h-273z" />
    <glyph glyph-name="zero.oldtab" 
d="M518 457q0 -88 80 -88q47 0 67.5 39.5t36.5 144.5l23 145q14 86 14 125q0 43 -17 63.5t-58 20.5q-48 0 -72 -41t-39 -145l-23 -146q-12 -71 -12 -118zM582 -29q-250 0 -394.5 123t-144.5 363q0 71 12 147l23 146q41 267 198 406.5t400 139.5q248 0 392 -125.5t144 -363.5
q0 -72 -10 -131l-22 -146q-42 -273 -192.5 -416t-405.5 -143z" />
    <glyph glyph-name="one.oldtab" 
d="M391 0l121 766l-360 -199l65 420l449 281h428l-201 -1268h-502z" />
    <glyph glyph-name="two.oldtab" 
d="M-47 0l10 63l479 431q45 40 74 66.5t72 70.5t68 76.5t44 70t19 66.5q0 76 -74 76q-92 0 -123 -162h-454q44 269 203 403.5t423 134.5q84 0 160 -13t144.5 -42.5t118 -73.5t79 -110t29.5 -148q0 -64 -17.5 -123t-43.5 -104t-70.5 -94.5t-83 -83.5t-95.5 -80l-84 -68h320
l-55 -356h-1143z" />
    <glyph glyph-name="three.oldtab" 
d="M567 -215q-291 0 -449 134t-143 392h459q-2 -80 21.5 -118.5t91.5 -38.5q112 0 115 135q2 47 -28 77.5t-85 30.5h-111l49 301h121q65 0 102.5 35.5t37.5 108.5q0 45 -24 69.5t-69 24.5q-55 0 -86.5 -35t-46.5 -117h-456q35 248 190.5 380t415.5 132q81 0 154.5 -11
t145.5 -38.5t124.5 -70.5t85 -112t32.5 -157q0 -132 -70 -225.5t-202 -128.5q99 -30 153 -104t54 -189t-46 -206.5t-126.5 -149.5t-185 -88.5t-224.5 -30.5z" />
    <glyph glyph-name="four.oldtab" 
d="M469 -184l41 250h-571l24 165l623 1037h585l-141 -881h135l-49 -321h-135l-41 -250h-471zM381 387h190l76 469z" />
    <glyph glyph-name="five.oldtab" 
d="M553 -213q-272 0 -425.5 133.5t-129.5 372.5h446q-10 -133 103 -133q119 0 119 172q0 60 -33 92.5t-98 32.5q-105 0 -166 -95h-316l185 906h964l-61 -377h-609l-57 -277q125 183 324 183q161 0 256.5 -103t95.5 -301q0 -135 -36 -244.5t-107.5 -191t-187 -126
t-267.5 -44.5z" />
    <glyph glyph-name="six.oldtab" 
d="M629 -29q-127 0 -230 32t-181.5 97.5t-121.5 173.5t-43 252q0 53 15 152l26 174q46 301 226.5 468t455.5 167q112 0 201.5 -25t158.5 -78t102.5 -145.5t23.5 -218.5h-437q11 102 -80 102q-77 0 -123.5 -82.5t-74.5 -261.5q43 66 119.5 110t183.5 44q161 0 254.5 -101.5
t93.5 -275.5q0 -269 -153 -426.5t-416 -157.5zM502 465q0 -58 32 -93.5t91 -35.5q63 0 102 46t41 118q2 57 -30.5 91t-92.5 34q-62 0 -102.5 -45t-40.5 -115z" />
    <glyph glyph-name="seven.oldtab" 
d="M49 -184l524 1036h-479l68 416h1145l-11 -54l-704 -1398h-543z" />
    <glyph glyph-name="eight.oldtab" 
d="M588 -29q-91 0 -174 14t-158.5 46t-131 78.5t-88 115.5t-32.5 154q0 291 295 399q-147 92 -147 258q0 108 45 195t122.5 142t176 84.5t209.5 29.5q79 0 151.5 -12.5t140 -41.5t116.5 -73t78.5 -112t29.5 -152q0 -261 -230 -355q191 -90 191 -303q0 -118 -48 -209.5
t-131.5 -146.5t-188.5 -83t-226 -28zM475 444q0 -55 31 -84.5t90 -29.5t96 41.5t37 111.5q0 57 -29.5 88t-87.5 31q-60 0 -98.5 -44.5t-38.5 -113.5zM567 1006q0 -49 28.5 -80t78.5 -31q53 0 89 37t36 100q0 48 -29 80.5t-80 32.5t-87 -40t-36 -99z" />
    <glyph glyph-name="nine.oldtab" 
d="M649 1296q259 0 406 -130t147 -398q0 -81 -14 -174l-27 -174q-51 -332 -209 -485.5t-444 -153.5q-90 0 -167 15t-146.5 50.5t-117.5 89t-74 136.5t-21 188h436q-3 -51 18.5 -83t71.5 -32q77 0 125 83t76 261q-100 -153 -299 -153q-161 0 -257 104t-96 277
q0 266 162.5 422.5t429.5 156.5zM754 809q0 58 -32 93.5t-91 35.5q-64 0 -103 -46t-41 -118q-2 -57 30.5 -91t92.5 -34q62 0 103 45t41 115z" />
    <glyph glyph-name="zero.num" horiz-adv-x="940" 
d="M455 1004q0 -52 18 -78.5t62 -26.5q34 0 58 24t34.5 62t15 71.5t4.5 65.5q0 53 -18.5 78t-61.5 25q-34 0 -58 -24.5t-34.5 -62.5t-15 -70.5t-4.5 -63.5zM518 643q-180 0 -290.5 89t-110.5 257q0 216 127 352t342 136q179 0 289 -88.5t110 -255.5q0 -220 -126 -355
t-341 -135z" />
    <glyph glyph-name="one.num" horiz-adv-x="645" 
d="M223 659l76 474l-182 -86l43 274l243 143h291l-129 -805h-342z" />
    <glyph glyph-name="two.num" horiz-adv-x="794" 
d="M25 659l8 41l305 273q42 37 61 54t55.5 53t53 61.5t16.5 44.5q0 45 -39 45q-54 0 -73 -94h-312q24 170 132.5 255t279.5 85q76 0 137 -13t110 -41t76 -78t27 -118q0 -80 -54 -150.5t-163 -158.5l-22 -19h190l-39 -240h-749z" />
    <glyph glyph-name="three.num" horiz-adv-x="831" 
d="M473 643q-178 0 -278 73t-101 224h299q0 -66 64 -66q22 0 38.5 13t16.5 41q0 43 -76 43h-61l28 180h76q74 0 74 53q0 43 -51 43q-56 0 -70 -61h-295q20 139 122.5 215t275.5 76q63 0 118.5 -10.5t107 -34t81.5 -69t30 -108.5q0 -75 -44 -123t-121 -69q139 -30 139 -160
t-105 -195t-268 -65z" />
    <glyph glyph-name="four.num" horiz-adv-x="888" 
d="M434 659l23 144h-398l21 127l407 534h406l-70 -442h101l-35 -219h-101l-22 -144h-332zM379 1022h125l35 217z" />
    <glyph glyph-name="five.num" horiz-adv-x="819" 
d="M465 643q-73 0 -137.5 15t-119 46.5t-87.5 88t-35 131.5h317q4 -37 52 -37q23 0 39 15.5t16 45.5q0 51 -53 51q-43 0 -60 -43h-276l110 508h643l-36 -233h-414l-33 -150q77 115 230 115q104 0 164.5 -54t60.5 -161q0 -169 -103 -253.5t-278 -84.5z" />
    <glyph glyph-name="six.num" horiz-adv-x="876" 
d="M520 643q-183 0 -293 83t-110 257q0 53 8 100l4 25q28 169 150.5 269t298.5 100q75 0 135.5 -13.5t110.5 -44t78.5 -84.5t29.5 -129h-311q-7 35 -50 35q-76 0 -104 -143q65 80 188 80q111 0 179.5 -55t68.5 -160q0 -107 -53.5 -181t-137.5 -106.5t-192 -32.5zM459 922
q0 -58 55 -58q28 0 46 19.5t18 54.5q0 26 -14.5 41.5t-41.5 15.5t-45 -19.5t-18 -53.5z" />
    <glyph glyph-name="seven.num" horiz-adv-x="782" 
d="M139 659l291 541h-287l43 264h721l-6 -37l-416 -768h-346z" />
    <glyph glyph-name="eight.num" horiz-adv-x="849" 
d="M489 643q-77 0 -144 11.5t-127 36t-95 72t-35 111.5q0 89 44 138.5t132 77.5q-94 53 -94 139q0 53 21 96t55.5 71t82 46.5t97.5 26.5t104 8q97 0 175.5 -21.5t131 -74t52.5 -128.5q0 -152 -133 -190q59 -21 90 -63.5t31 -94.5q0 -73 -34.5 -126.5t-93 -82t-123 -41
t-137.5 -12.5zM485 864q29 0 48.5 17t19.5 47q0 24 -15.5 39.5t-43.5 15.5q-29 0 -48.5 -17t-19.5 -48q0 -23 15.5 -38.5t43.5 -15.5zM520 1149q27 0 45.5 16.5t18.5 44.5q0 24 -16.5 39t-41.5 15q-24 0 -42.5 -16.5t-18.5 -45.5q0 -24 14.5 -38.5t40.5 -14.5z" />
    <glyph glyph-name="nine.num" horiz-adv-x="876" 
d="M522 1477q88 0 159 -19t124.5 -59t83 -106.5t29.5 -155.5q0 -49 -9 -101l-4 -24q-58 -369 -448 -369q-342 0 -355 268h312q6 -32 49 -32q82 0 104 143q-65 -80 -188 -80q-112 0 -180 55t-68 164q0 79 31.5 140.5t86.5 99t124.5 57t148.5 19.5zM575 1198q0 57 -55 57
q-28 0 -45.5 -19t-17.5 -54q0 -26 14 -42t41 -16t45 20t18 54z" />
    <glyph glyph-name="zero.den" horiz-adv-x="940" 
d="M352 344q0 -52 18 -78t62 -26q34 0 58 24t35 62t15.5 71.5t4.5 65.5q0 52 -18.5 77t-61.5 25q-34 0 -58 -24.5t-35 -62.5t-15.5 -71t-4.5 -63zM416 -16q-180 0 -291 89t-111 257q0 216 127 351.5t342 135.5q179 0 289.5 -88.5t110.5 -255.5q0 -220 -125.5 -354.5
t-341.5 -134.5z" />
    <glyph glyph-name="one.den" horiz-adv-x="645" 
d="M121 0l76 473l-183 -86l43 275l244 143h291l-129 -805h-342z" />
    <glyph glyph-name="two.den" horiz-adv-x="794" 
d="M-78 0l8 41l306 272q42 37 61 54t55.5 53t53 61.5t16.5 44.5q0 45 -39 45q-55 0 -74 -94h-311q24 170 132.5 255t279.5 85q76 0 137 -13t110 -41t76 -78t27 -118q0 -80 -54 -150.5t-163 -158.5l-23 -18h191l-39 -240h-750z" />
    <glyph glyph-name="three.den" horiz-adv-x="831" 
d="M371 -16q-178 0 -278 73t-101 224h299q0 -66 63 -66q22 0 39 12.5t17 40.5q0 43 -76 43h-62l29 181h76q74 0 74 53q0 43 -52 43q-55 0 -69 -62h-295q20 139 122 215t275 76q63 0 118.5 -10.5t107 -33.5t82 -68.5t30.5 -108.5q0 -75 -44.5 -123.5t-121.5 -69.5
q139 -30 139 -159q0 -88 -52 -148t-133.5 -86t-186.5 -26z" />
    <glyph glyph-name="four.den" horiz-adv-x="888" 
d="M332 0l22 143h-397l20 127l408 535h406l-70 -443h100l-35 -219h-100l-22 -143h-332zM276 362h125l35 218z" />
    <glyph glyph-name="five.den" horiz-adv-x="819" 
d="M362 -16q-58 0 -110.5 9t-101 29.5t-84.5 52t-58 80t-24 109.5h317q4 -37 51 -37q23 0 39.5 16t16.5 46q0 51 -54 51q-42 0 -59 -43h-277l111 508h643l-37 -234h-413l-33 -149q77 115 229 115q104 0 164.5 -54t60.5 -161q0 -169 -103 -253.5t-278 -84.5z" />
    <glyph glyph-name="six.den" horiz-adv-x="876" 
d="M418 -16q-88 0 -160 19t-127.5 59t-86 106.5t-30.5 155.5q0 48 9 100l4 25q28 169 150 268.5t298 99.5q75 0 135.5 -13.5t110.5 -43.5t78.5 -84t29.5 -129h-311q-7 35 -49 35q-76 0 -104 -144q65 80 188 80q111 0 179.5 -55t68.5 -160q0 -81 -30.5 -143.5t-84 -100
t-121 -56.5t-147.5 -19zM356 262q0 -57 56 -57q28 0 45.5 19.5t17.5 54.5q0 26 -14 41.5t-41 15.5t-45.5 -20t-18.5 -54z" />
    <glyph glyph-name="seven.den" horiz-adv-x="782" 
d="M37 0l291 541h-287l43 264h721l-6 -37l-416 -768h-346z" />
    <glyph glyph-name="eight.den" horiz-adv-x="849" 
d="M387 -16q-77 0 -144 11.5t-127 36t-95 72t-35 111.5q0 89 44 138t132 77q-94 53 -94 139q0 53 21 96t55.5 71t82 46.5t97.5 26.5t104 8q72 0 134 -12.5t113.5 -38.5t81 -70t29.5 -102q0 -153 -133 -191q59 -21 90 -63t31 -94q0 -59 -23.5 -105.5t-61 -75.5t-89 -47.5
t-104 -26t-109.5 -7.5zM383 205q29 0 48.5 16.5t19.5 46.5q0 24 -16 40t-44 16q-29 0 -48 -17.5t-19 -48.5q0 -23 15.5 -38t43.5 -15zM418 489q27 0 45 17t18 45q0 24 -16 38.5t-41 14.5q-24 0 -43 -16t-19 -45q0 -24 15 -39t41 -15z" />
    <glyph glyph-name="nine.den" horiz-adv-x="876" 
d="M420 817q182 0 288.5 -82.5t106.5 -257.5q0 -53 -8 -100l-4 -25q-58 -368 -449 -368q-341 0 -354 268h311q3 -17 13.5 -25t35.5 -8q83 0 105 143q-64 -79 -189 -79q-112 0 -179.5 55t-67.5 164q0 104 55.5 177t142 105.5t193.5 32.5zM473 539q0 57 -55 57
q-28 0 -46 -19.5t-18 -54.5q0 -26 14.5 -41.5t41.5 -15.5t45 20t18 54z" />
    <glyph glyph-name="zero.sub" horiz-adv-x="940" 
d="M307 63q0 -52 18 -78t62 -26q34 0 58 24t35 62t15.5 71.5t4.5 65.5q0 53 -18.5 78t-61.5 25q-34 0 -58 -24.5t-35 -62.5t-15.5 -71.5t-4.5 -63.5zM371 -297q-180 0 -291 89t-111 257q0 216 127 352t342 136q179 0 289.5 -88.5t110.5 -255.5q0 -220 -126 -355t-341 -135z
" />
    <glyph glyph-name="one.sub" horiz-adv-x="645" 
d="M76 -281l76 474l-183 -87l43 275l244 143h291l-129 -805h-342z" />
    <glyph glyph-name="two.sub" horiz-adv-x="794" 
d="M-123 -281l8 41l305 273q121 106 157 152q30 38 30 61q0 45 -39 45q-55 0 -74 -94h-311q24 170 132.5 255t279.5 85q76 0 137 -13t110 -41t76 -78t27 -118q0 -80 -54 -151t-163 -159l-23 -18h191l-39 -240h-750z" />
    <glyph glyph-name="three.sub" horiz-adv-x="831" 
d="M326 -297q-178 0 -278 73t-101 224h299q0 -66 63 -66q22 0 39 13t17 41q0 43 -76 43h-62l29 180h76q74 0 74 53q0 43 -52 43q-55 0 -69 -61h-295q20 139 122 215t275 76q63 0 118.5 -10.5t107 -34t82 -69t30.5 -108.5q0 -146 -166 -192q139 -30 139 -160q0 -88 -52 -148
t-133.5 -86t-186.5 -26z" />
    <glyph glyph-name="four.sub" horiz-adv-x="888" 
d="M287 -281l22 144h-397l20 127l408 534h405l-69 -442h100l-35 -219h-100l-23 -144h-331zM231 82h125l35 217z" />
    <glyph glyph-name="five.sub" horiz-adv-x="819" 
d="M317 -297q-58 0 -110.5 9t-101 30t-84.5 52.5t-58 80t-24 109.5h317q4 -37 51 -37q23 0 39 15.5t16 45.5q0 51 -53 51q-42 0 -59 -43h-277l111 508h643l-37 -233h-414l-32 -150q77 115 229 115q104 0 164.5 -54t60.5 -161q0 -169 -103 -253.5t-278 -84.5z" />
    <glyph glyph-name="six.sub" horiz-adv-x="876" 
d="M373 -297q-88 0 -160 19t-127.5 59t-86 106.5t-30.5 155.5q0 53 8 100l5 25q28 169 150 269t298 100q75 0 135.5 -13.5t110.5 -44t78.5 -84.5t29.5 -129h-311q-7 35 -49 35q-77 0 -105 -143q65 80 189 80q111 0 179.5 -55t68.5 -160q0 -107 -53.5 -181t-137.5 -106.5
t-192 -32.5zM311 -18q0 -58 56 -58q28 0 45.5 19.5t17.5 54.5q0 26 -14 41.5t-41 15.5t-45.5 -19.5t-18.5 -53.5z" />
    <glyph glyph-name="seven.sub" horiz-adv-x="782" 
d="M-8 -281l291 541h-287l43 264h721l-6 -37l-416 -768h-346z" />
    <glyph glyph-name="eight.sub" horiz-adv-x="849" 
d="M342 -297q-77 0 -144 11.5t-127 36t-95 72t-35 111.5q0 89 44 138.5t132 77.5q-94 53 -94 139q0 53 21 96t55.5 71t82 46.5t97.5 26.5t104 8q97 0 175 -21.5t130.5 -74t52.5 -128.5q0 -152 -133 -190q59 -21 90 -63.5t31 -94.5q0 -59 -23.5 -105.5t-61 -75.5t-89 -47.5
t-104 -26t-109.5 -7.5zM338 -76q29 0 48.5 17t19.5 47q0 24 -16 39.5t-44 15.5q-29 0 -48 -17.5t-19 -48.5q0 -23 15.5 -38t43.5 -15zM373 209q27 0 45 16.5t18 44.5q0 24 -16 39t-41 15q-24 0 -43 -16.5t-19 -45.5q0 -24 15 -38.5t41 -14.5z" />
    <glyph glyph-name="nine.sub" horiz-adv-x="876" 
d="M375 537q182 0 288.5 -82.5t106.5 -257.5q0 -54 -8 -101l-4 -24q-58 -369 -449 -369q-341 0 -354 268h311q6 -32 49 -32q83 0 105 143q-65 -80 -189 -80q-112 0 -179.5 55t-67.5 164q0 79 31.5 140.5t86.5 99t124.5 57t148.5 19.5zM428 258q0 57 -55 57
q-29 0 -46.5 -19.5t-17.5 -53.5q0 -26 14.5 -42t41.5 -16t45 20t18 54z" />
    <glyph glyph-name="plus.sub" horiz-adv-x="751" 
d="M143 -170l31 195h-192l36 231h193l33 197h235l-33 -197h193l-37 -231h-192l-31 -195h-236z" />
    <glyph glyph-name="minus.sub" horiz-adv-x="751" 
d="M-18 25l36 231h621l-37 -231h-620z" />
    <glyph glyph-name="zero.sup" horiz-adv-x="940" 
d="M465 1122q0 -52 18 -78t62 -26q34 0 58 24t34.5 62t15 71.5t4.5 65.5q0 53 -18 77.5t-61 24.5q-34 0 -58 -24.5t-35 -62.5t-15.5 -71t-4.5 -63zM528 762q-180 0 -290.5 89t-110.5 257q0 216 127 351.5t342 135.5q179 0 289 -88.5t110 -255.5q0 -220 -125.5 -354.5
t-341.5 -134.5z" />
    <glyph glyph-name="one.sup" horiz-adv-x="645" 
d="M233 778l76 473l-182 -86l43 275l244 143h291l-130 -805h-342z" />
    <glyph glyph-name="two.sup" horiz-adv-x="794" 
d="M35 778l8 41l305 273q121 106 157 152q30 38 30 61q0 45 -39 45q-54 0 -74 -95h-311q24 170 132 255t279 85q76 0 137 -13t110 -41t76 -77.5t27 -117.5q0 -80 -54 -151t-163 -159l-22 -18h190l-39 -240h-749z" />
    <glyph glyph-name="three.sup" horiz-adv-x="831" 
d="M483 762q-178 0 -278 73t-101 224h299q0 -66 64 -66q22 0 38.5 13t16.5 41q0 43 -76 43h-61l29 180h75q74 0 74 53q0 43 -51 43q-56 0 -70 -61h-295q20 139 122.5 214.5t275.5 75.5q63 0 118.5 -10.5t107 -33.5t82 -68.5t30.5 -108.5q0 -146 -166 -192q139 -30 139 -160
t-105 -195t-268 -65z" />
    <glyph glyph-name="four.sup" horiz-adv-x="888" 
d="M444 778l23 144h-397l20 127l408 534h405l-69 -442h100l-35 -219h-100l-23 -144h-332zM389 1141h125l35 217z" />
    <glyph glyph-name="five.sup" horiz-adv-x="819" 
d="M475 762q-73 0 -137 15t-119 46t-88 87.5t-35 131.5h318q4 -36 51 -36q23 0 39 15.5t16 45.5q0 51 -53 51q-42 0 -59 -43h-277l111 508h643l-37 -233h-414l-33 -150q77 115 230 115q104 0 164.5 -54t60.5 -161q0 -169 -103 -253.5t-278 -84.5z" />
    <glyph glyph-name="six.sup" horiz-adv-x="876" 
d="M530 762q-183 0 -293 83t-110 257q0 53 8 100l4 25q28 169 150.5 268.5t298.5 99.5q75 0 135.5 -13.5t110.5 -43.5t78.5 -84t29.5 -129h-311q-7 35 -49 35q-77 0 -105 -143q64 79 189 79q111 0 179 -55t68 -160q0 -81 -30.5 -143.5t-84 -100t-121 -56.5t-147.5 -19z
M469 1040q0 -57 55 -57q28 0 46 19.5t18 54.5q0 26 -14.5 41.5t-41.5 15.5t-45 -20t-18 -54z" />
    <glyph glyph-name="seven.sup" horiz-adv-x="782" 
d="M150 778l290 541h-286l43 264h721l-7 -37l-415 -768h-346z" />
    <glyph glyph-name="eight.sup" horiz-adv-x="849" 
d="M500 762q-60 0 -115 6.5t-108.5 23t-92 42t-62.5 66.5t-24 93q0 89 44 138t132 77q-94 53 -94 140q0 66 31.5 115.5t84.5 77.5t114.5 41t130.5 13q72 0 134 -12.5t113.5 -38.5t81 -70t29.5 -102q0 -152 -133 -190q59 -21 90 -63.5t31 -94.5q0 -59 -23.5 -105.5t-61 -75.5
t-89 -47.5t-104 -26t-109.5 -7.5zM496 983q29 0 48 17t19 47q0 24 -15.5 39.5t-43.5 15.5q-29 0 -48.5 -17.5t-19.5 -48.5q0 -23 16 -38t44 -15zM530 1268q27 0 45.5 16.5t18.5 44.5q0 24 -16 38.5t-41 14.5q-24 0 -43 -16t-19 -45q0 -24 14.5 -38.5t40.5 -14.5z" />
    <glyph glyph-name="nine.sup" horiz-adv-x="876" 
d="M532 1595q88 0 159 -19t124.5 -59t83 -106.5t29.5 -155.5q0 -53 -8 -100l-5 -25q-58 -368 -448 -368q-341 0 -354 268h311q3 -17 13.5 -25t35.5 -8q83 0 105 144q-65 -80 -189 -80q-112 0 -180 55t-68 164q0 104 55.5 177t142 105.5t193.5 32.5zM586 1317q0 57 -56 57
q-28 0 -45.5 -19.5t-17.5 -54.5q0 -26 14 -41.5t41 -15.5t45.5 20t18.5 54z" />
    <glyph glyph-name="plus.sup" horiz-adv-x="751" 
d="M285 889l30 194h-192l37 232h192l31 196h235l-30 -196h192l-37 -232h-192l-31 -194h-235z" />
    <glyph glyph-name="minus.sup" horiz-adv-x="751" 
d="M123 1083l37 232h620l-37 -232h-620z" />
    <glyph glyph-name="a.alt" horiz-adv-x="1325" 
d="M1325 1071l-115 -731q-34 -204 -22 -340h-465q-10 41 -10 172q-120 -201 -322 -201q-167 0 -266.5 118t-99.5 333q0 163 41 295t111.5 215t160.5 127.5t190 44.5q116 0 195.5 -49.5t107.5 -136.5l25 153h469zM672 764q-72 0 -120 -80t-48 -211q0 -158 112 -158
q75 0 122.5 85t47.5 208q0 156 -114 156z" />
    <glyph glyph-name="t.alt" horiz-adv-x="827" 
d="M66 0l120 766h-137l47 305h137l35 213h469l-35 -213h177l-48 -305h-176l-120 -766h-469z" />
    <glyph glyph-name="germandbls.alt" horiz-adv-x="1480" 
d="M989 -18q-100 0 -180 18.5t-144 59.5t-97 114t-29 174h364q-5 -86 49 -86q43 0 43 55q0 14 -6 25t-21.5 21t-30.5 18t-43.5 23t-51.5 28q-197 113 -197 264q0 62 28 117t68.5 94t80.5 73t68 69t28 67q0 92 -123 92q-148 0 -172 -157l-164 -1051h-469l166 1059
q40 255 213 374t450 119q109 0 203.5 -19t176.5 -59t129.5 -113.5t47.5 -172.5q0 -69 -30 -128t-73 -97.5t-85.5 -69t-72.5 -53.5t-30 -39q0 -4 1 -8t2 -7.5t4 -7t6 -6.5t9.5 -8t12.5 -9t16.5 -10.5t19.5 -12.5t24.5 -15.5t29.5 -18.5q56 -35 93.5 -66.5t69.5 -72
t47.5 -90.5t15.5 -111q0 -181 -121.5 -278.5t-325.5 -97.5z" />
    <glyph glyph-name="aacute.alt" horiz-adv-x="1325" 
d="M1325 1071l-115 -731q-34 -204 -22 -340h-465q-10 41 -10 172q-120 -201 -322 -201q-167 0 -266.5 118t-99.5 333q0 163 41 295t111.5 215t160.5 127.5t190 44.5q116 0 195.5 -49.5t107.5 -136.5l25 153h469zM672 764q-72 0 -120 -80t-48 -211q0 -158 112 -158
q75 0 122.5 85t47.5 208q0 156 -114 156zM561 1163l146 359h448l-260 -359h-334z" />
    <glyph glyph-name="abreve.alt" horiz-adv-x="1325" 
d="M1325 1071l-115 -731q-34 -204 -22 -340h-465q-10 41 -10 172q-120 -201 -322 -201q-167 0 -266.5 118t-99.5 333q0 163 41 295t111.5 215t160.5 127.5t190 44.5q116 0 195.5 -49.5t107.5 -136.5l25 153h469zM672 764q-72 0 -120 -80t-48 -211q0 -158 112 -158
q75 0 122.5 85t47.5 208q0 156 -114 156zM758 1167q-173 0 -268 92.5t-89 260.5h273q3 -82 88 -82q40 0 66 22t30 60h277q-25 -173 -122 -263t-255 -90z" />
    <glyph glyph-name="acircumflex.alt" horiz-adv-x="1325" 
d="M1325 1071l-115 -731q-34 -204 -22 -340h-465q-10 41 -10 172q-120 -201 -322 -201q-167 0 -266.5 118t-99.5 333q0 163 41 295t111.5 215t160.5 127.5t190 44.5q116 0 195.5 -49.5t107.5 -136.5l25 153h469zM672 764q-72 0 -120 -80t-48 -211q0 -158 112 -158
q75 0 122.5 85t47.5 208q0 156 -114 156zM328 1169l311 353h317l209 -353h-311l-86 95l-111 -95h-329z" />
    <glyph glyph-name="adieresis.alt" horiz-adv-x="1325" 
d="M1325 1071l-115 -731q-34 -204 -22 -340h-465q-10 41 -10 172q-120 -201 -322 -201q-167 0 -266.5 118t-99.5 333q0 163 41 295t111.5 215t160.5 127.5t190 44.5q116 0 195.5 -49.5t107.5 -136.5l25 153h469zM672 764q-72 0 -120 -80t-48 -211q0 -158 112 -158
q75 0 122.5 85t47.5 208q0 156 -114 156zM535 1130q-88 0 -148.5 59t-60.5 144t60.5 144t148.5 59t149 -59t61 -144t-61 -144t-149 -59zM995 1130q-87 0 -147 59t-60 144t60 144t147 59q89 0 150 -59t61 -144t-61 -144t-150 -59z" />
    <glyph glyph-name="agrave.alt" horiz-adv-x="1325" 
d="M1325 1071l-115 -731q-34 -204 -22 -340h-465q-10 41 -10 172q-120 -201 -322 -201q-167 0 -266.5 118t-99.5 333q0 163 41 295t111.5 215t160.5 127.5t190 44.5q116 0 195.5 -49.5t107.5 -136.5l25 153h469zM672 764q-72 0 -120 -80t-48 -211q0 -158 112 -158
q75 0 122.5 85t47.5 208q0 156 -114 156zM594 1163l-195 359h445l74 -359h-324z" />
    <glyph glyph-name="amacron.alt" horiz-adv-x="1325" 
d="M1325 1071l-115 -731q-34 -204 -22 -340h-465q-10 41 -10 172q-120 -201 -322 -201q-167 0 -266.5 118t-99.5 333q0 163 41 295t111.5 215t160.5 127.5t190 44.5q116 0 195.5 -49.5t107.5 -136.5l25 153h469zM672 764q-72 0 -120 -80t-48 -211q0 -158 112 -158
q75 0 122.5 85t47.5 208q0 156 -114 156zM414 1214l39 244h677l-38 -244h-678z" />
    <glyph glyph-name="aogonek.alt" horiz-adv-x="1325" 
d="M1325 1071l-115 -731q-32 -205 -24 -320q-43 -42 -66.5 -73t-23.5 -60q0 -41 51 -41q17 0 37 4l-31 -190q-76 -33 -178 -33q-49 0 -90.5 7.5t-78 25t-57 50t-20.5 77.5q0 78 62 132.5t145 80.5h-213q-10 41 -10 172q-120 -201 -322 -201q-167 0 -266.5 118t-99.5 333
q0 163 41 295t111.5 215t160.5 127.5t190 44.5q116 0 195.5 -49.5t107.5 -136.5l25 153h469zM672 764q-72 0 -120 -80t-48 -211q0 -158 112 -158q75 0 122.5 85t47.5 208q0 156 -114 156z" />
    <glyph glyph-name="aring.alt" horiz-adv-x="1325" 
d="M1325 1071l-115 -731q-34 -204 -22 -340h-465q-10 41 -10 172q-120 -201 -322 -201q-167 0 -266.5 118t-99.5 333q0 163 41 295t111.5 215t160.5 127.5t190 44.5q116 0 195.5 -49.5t107.5 -136.5l25 153h469zM672 764q-72 0 -120 -80t-48 -211q0 -158 112 -158
q75 0 122.5 85t47.5 208q0 156 -114 156zM760 1313q38 0 62 26.5t24 67.5t-24 67.5t-62 26.5t-62 -26.5t-24 -67.5t24 -67.5t62 -26.5zM760 1161q-104 0 -179 72.5t-75 173.5t75 173.5t179 72.5t179 -72.5t75 -173.5t-75 -173.5t-179 -72.5z" />
    <glyph glyph-name="aringacute.alt" horiz-adv-x="1325" 
d="M1325 1071l-115 -731q-34 -204 -22 -340h-465q-10 41 -10 172q-120 -201 -322 -201q-167 0 -266.5 118t-99.5 333q0 163 41 295t111.5 215t160.5 127.5t190 44.5q116 0 195.5 -49.5t107.5 -136.5l25 153h469zM672 764q-72 0 -120 -80t-48 -211q0 -158 112 -158
q75 0 122.5 85t47.5 208q0 156 -114 156zM760 1313q38 0 62 26.5t24 67.5t-24 67.5t-62 26.5t-62 -26.5t-24 -67.5t24 -67.5t62 -26.5zM760 1161q-104 0 -179 72.5t-75 173.5t75 173.5t179 72.5t179 -72.5t75 -173.5t-75 -173.5t-179 -72.5zM612 1700l127 317h469l-241 -317
h-355z" />
    <glyph glyph-name="atilde.alt" horiz-adv-x="1325" 
d="M1325 1071l-115 -731q-34 -204 -22 -340h-465q-10 41 -10 172q-120 -201 -322 -201q-167 0 -266.5 118t-99.5 333q0 163 41 295t111.5 215t160.5 127.5t190 44.5q116 0 195.5 -49.5t107.5 -136.5l25 153h469zM672 764q-72 0 -120 -80t-48 -211q0 -158 112 -158
q75 0 122.5 85t47.5 208q0 156 -114 156zM899 1167q-56 0 -103.5 15t-83 30t-59.5 15q-45 0 -59 -53h-238q27 181 102 270.5t183 89.5q67 0 145.5 -29.5t108.5 -29.5q25 0 38 13t21 40h238q-28 -179 -107.5 -270t-185.5 -91z" />
    <glyph glyph-name="tbar.alt" horiz-adv-x="827" 
d="M-4 430l39 244h137l14 92h-137l47 305h137l35 213h469l-35 -213h177l-48 -305h-176l-14 -92h176l-39 -244h-176l-67 -430h-469l67 430h-137z" />
    <glyph glyph-name="tcaron.alt" horiz-adv-x="827" 
d="M66 0l120 766h-137l47 305h137l35 213h469l-35 -213h177l-48 -305h-176l-120 -766h-469zM782 1165l70 357h313l-157 -357h-226z" />
    <glyph glyph-name="tcommaaccent.alt" horiz-adv-x="827" 
d="M66 0l120 766h-137l47 305h137l35 213h469l-35 -213h177l-48 -305h-176l-120 -766h-469zM254 -483l-254 55l84 354h403z" />
    <glyph glyph-name="f.short" horiz-adv-x="831" 
d="M96 1071h125l17 98q17 102 62.5 177t113 119.5t148.5 65.5t177 21q127 0 215 -30l-53 -336q-47 14 -90 14q-99 0 -115 -84l-8 -45h195l-47 -305h-195l-121 -766h-467l121 766h-125z" />
    <glyph glyph-name="f_f.short" horiz-adv-x="1558" 
d="M780 0l121 766h-260l-121 -766h-467l121 766h-125l47 305h125l12 76q16 102 60.5 177t111.5 119.5t146.5 65.5t173.5 21q120 0 211 -31l-53 -334q-44 13 -84 13q-49 0 -74 -20t-33 -64l-4 -23h260l17 98q16 102 61 177t113 119.5t149.5 65.5t177.5 21q127 0 215 -30
l-53 -336q-47 14 -90 14q-99 0 -115 -84l-8 -45h195l-47 -305h-195l-121 -766h-467z" />
    <glyph glyph-name="questiondown.uc" horiz-adv-x="1210" 
d="M940 948l-4 -20q-16 -79 -64 -146t-104.5 -111.5t-110.5 -84t-90.5 -81.5t-36.5 -85q3 -64 70 -64q85 0 113 136h458q-16 -129 -71 -228.5t-140 -161.5t-192 -93.5t-231 -31.5q-254 0 -386.5 100t-132.5 283q0 80 28 147.5t70.5 112.5t98 88.5t106 75.5t98.5 74t73 84
l2 6h446zM770 1493q108 0 179 -68.5t71 -169.5t-74 -172t-182 -71t-181 69.5t-73 169.5t76 171t184 71z" />
    <glyph glyph-name="exclamdown.uc" horiz-adv-x="733" 
d="M477 1493q108 0 179 -68.5t71 -169.5t-74 -172t-182 -71t-181 69.5t-73 169.5t76 171t184 71zM629 948l-84 -948h-529l220 948h393z" />
    <glyph glyph-name="hyphen.uc" horiz-adv-x="872" 
d="M84 487l57 359h684l-57 -359h-684z" />
    <glyph glyph-name="endash.uc" horiz-adv-x="1122" 
d="M94 551l41 252h934l-41 -252h-934z" />
    <glyph glyph-name="emdash.uc" horiz-adv-x="2002" 
d="M94 551l41 252h1815l-41 -252h-1815z" />
    <glyph glyph-name="guilsinglleft.uc" horiz-adv-x="612" 
d="M231 211l-190 422l305 389h299l-299 -391l164 -420h-279z" />
    <glyph glyph-name="guilsinglright.uc" horiz-adv-x="612" 
d="M393 1022l191 -422l-305 -389h-299l299 391l-164 420h278z" />
    <glyph glyph-name="guillemotleft.uc" horiz-adv-x="962" 
d="M238 211l-197 418l283 393h278l-280 -395l180 -416h-264zM602 211l-186 412l282 399h279l-281 -408l170 -403h-264z" />
    <glyph glyph-name="guillemotright.uc" horiz-adv-x="962" 
d="M743 1022l197 -418l-283 -393h-278l280 395l-180 416h264zM379 1022l186 -412l-282 -399h-279l281 407l-170 404h264z" />
    <glyph glyph-name="parenleft.uc" horiz-adv-x="763" 
d="M627 -201h-346q-45 66 -79 129t-70 151.5t-55.5 197.5t-19.5 229q0 320 136 599.5t385 504.5h358q-111 -152 -186 -276.5t-136.5 -265t-90.5 -289.5t-29 -314q0 -357 133 -666z" />
    <glyph glyph-name="parenright.uc" horiz-adv-x="763" 
d="M176 1610h346q45 -66 79 -129t69.5 -151.5t55 -197.5t19.5 -229q0 -320 -135.5 -599.5t-384.5 -504.5h-358q111 152 186 276.5t136.5 265t90.5 289.5t29 314q0 357 -133 666z" />
    <glyph glyph-name="bracketleft.uc" horiz-adv-x="894" 
d="M-8 -201l287 1811h712l-53 -336h-240l-180 -1139h240l-53 -336h-713z" />
    <glyph glyph-name="bracketright.uc" horiz-adv-x="894" 
d="M-45 -201l53 336h236l180 1139h-236l54 336h708l-286 -1811h-709z" />
    <glyph glyph-name="braceleft.uc" horiz-adv-x="894" 
d="M705 -201q-336 0 -477 133t-58 379l37 111q25 66 -13.5 100.5t-138.5 40.5l51 322q103 0 146 29t43 94v110q0 141 40 236t128 151.5t214.5 80.5t313.5 24l-53 -338q-100 -7 -136.5 -41.5t-41.5 -118.5l-8 -143q-6 -107 -70.5 -173.5t-183.5 -88.5q116 -29 159 -103.5
t9 -185.5l-41 -137q-23 -75 5 -106t128 -38z" />
    <glyph glyph-name="braceright.uc" horiz-adv-x="894" 
d="M240 1610q336 0 476.5 -133t57.5 -379l-37 -111q-25 -66 13.5 -100.5t138.5 -40.5l-51 -322q-103 0 -146 -29t-43 -94v-110q0 -141 -40 -236t-128 -151.5t-214.5 -80.5t-313.5 -24l53 338q100 7 136.5 41.5t41.5 118.5l9 143q6 107 70 173.5t183 88.5
q-116 29 -158.5 103.5t-8.5 185.5l40 137q23 75 -5 106t-128 38z" />
    <glyph glyph-name="slash.uc" horiz-adv-x="921" 
d="M-131 -172l862 1761h371l-864 -1761h-369z" />
    <glyph glyph-name="backslash.uc" horiz-adv-x="942" 
d="M518 -172l-397 1761h348l397 -1761h-348z" />
    <glyph glyph-name="bar.uc" horiz-adv-x="563" 
d="M150 -172v1761h317v-1761h-317z" />
    <glyph glyph-name="at.uc" horiz-adv-x="1904" 
d="M981 -188q-205 0 -375.5 64t-285.5 176.5t-178.5 267t-63.5 333.5q0 204 79.5 378t212 289.5t305 180t359.5 64.5q178 0 333.5 -52t270.5 -146t181.5 -235t66.5 -311q0 -122 -26 -220.5t-71.5 -165t-108 -111t-133.5 -64.5t-150 -20q-270 0 -318 161q-84 -161 -284 -161
q-139 0 -224 98t-88 264q0 229 121 371.5t303 142.5q158 0 207 -112l19 96h368l-94 -580q-20 -123 76 -123q94 0 162.5 108t68.5 324q0 264 -188.5 427t-495.5 163q-159 0 -299 -54t-245 -151.5t-165.5 -244.5t-60.5 -322q0 -151 46.5 -276.5t136.5 -218t230 -144t318 -51.5
q173 0 323.5 56.5t225.5 133.5h201q-113 -155 -316 -245t-444 -90zM946 537q54 0 87.5 57.5t33.5 138.5q0 43 -21.5 68.5t-64.5 25.5q-51 0 -85.5 -54t-33.5 -140q0 -96 84 -96z" />
    </font>
</defs>
</svg>
